Arimo-Regular.ufo
<glyph name="dollar" format="2">
  <advance width="1139"/>
  <unicode hex="0024"/>
  <note>
dollar
</note>
  <outline>
    <contour>
      <point x="518" y="20" type="qcurve"/>
      <point x="518" y="-142" type="line"/>
      <point x="642" y="-142" type="line"/>
      <point x="642" y="20" type="line"/>
      <point x="864" y="31"/>
      <point x="1106" y="231"/>
      <point x="1106" y="396" type="qcurve" smooth="yes"/>
      <point x="1106" y="477"/>
      <point x="1060" y="597"/>
      <point x="972" y="685"/>
      <point x="821" y="755"/>
      <point x="642" y="797" type="qcurve"/>
      <point x="642" y="1242" type="line"/>
      <point x="759" y="1231"/>
      <point x="881" y="1126"/>
      <point x="901" y="1032" type="qcurve"/>
      <point x="1075" y="1065" type="line"/>
      <point x="1033" y="1225"/>
      <point x="829" y="1376"/>
      <point x="642" y="1385" type="qcurve"/>
      <point x="642" y="1516" type="line"/>
      <point x="518" y="1516" type="line"/>
      <point x="518" y="1385" type="line"/>
      <point x="311" y="1376"/>
      <point x="86" y="1201"/>
      <point x="86" y="1046" type="qcurve" smooth="yes"/>
      <point x="86" y="973"/>
      <point x="123" y="869"/>
      <point x="206" y="778"/>
      <point x="341" y="708"/>
      <point x="518" y="664" type="qcurve"/>
      <point x="518" y="168" type="line"/>
      <point x="376" y="177"/>
      <point x="217" y="297"/>
      <point x="192" y="416" type="qcurve"/>
      <point x="22" y="379" type="line"/>
      <point x="92" y="38"/>
    </contour>
    <contour>
      <point x="934" y="394" type="qcurve" smooth="yes"/>
      <point x="934" y="292"/>
      <point x="783" y="176"/>
      <point x="642" y="167" type="qcurve"/>
      <point x="642" y="635" type="line"/>
      <point x="784" y="598"/>
      <point x="882" y="543"/>
      <point x="934" y="459"/>
    </contour>
    <contour>
      <point x="258" y="1048" type="qcurve" smooth="yes"/>
      <point x="258" y="1230"/>
      <point x="518" y="1244" type="qcurve"/>
      <point x="518" y="823" type="line"/>
      <point x="407" y="851"/>
      <point x="308" y="907"/>
      <point x="258" y="989"/>
    </contour>
  </outline>
</glyph>
<glyph name="percent" format="2">
  <advance width="1821"/>
  <unicode hex="0025"/>
  <note>
percent
</note>
  <outline>
    <contour>
      <point x="1748" y="434" type="qcurve" smooth="yes"/>
      <point x="1748" y="656"/>
      <point x="1596" y="885"/>
      <point x="1432" y="885" type="qcurve" smooth="yes"/>
      <point x="1266" y="885"/>
      <point x="1113" y="662"/>
      <point x="1113" y="434" type="qcurve" smooth="yes"/>
      <point x="1113" y="213"/>
      <point x="1272" y="-12"/>
      <point x="1428" y="-12" type="qcurve" smooth="yes"/>
      <point x="1586" y="-12"/>
      <point x="1748" y="219"/>
    </contour>
    <contour>
      <point x="527" y="0" type="line"/>
      <point x="1451" y="1409" type="line"/>
      <point x="1294" y="1409" type="line"/>
      <point x="372" y="0" type="line"/>
    </contour>
    <contour>
      <point x="394" y="1421" type="qcurve" smooth="yes"/>
      <point x="227" y="1421"/>
      <point x="73" y="1198"/>
      <point x="73" y="975" type="qcurve" smooth="yes"/>
      <point x="73" y="756"/>
      <point x="232" y="524"/>
      <point x="390" y="524" type="qcurve" smooth="yes"/>
      <point x="548" y="524"/>
      <point x="707" y="758"/>
      <point x="707" y="975" type="qcurve" smooth="yes"/>
      <point x="707" y="1197"/>
      <point x="553" y="1421"/>
    </contour>
    <contour>
      <point x="1600" y="434" type="qcurve" smooth="yes"/>
      <point x="1600" y="265"/>
      <point x="1518" y="98"/>
      <point x="1430" y="98" type="qcurve" smooth="yes"/>
      <point x="1339" y="98"/>
      <point x="1260" y="263"/>
      <point x="1260" y="434" type="qcurve" smooth="yes"/>
      <point x="1260" y="616"/>
      <point x="1341" y="774"/>
      <point x="1432" y="774" type="qcurve" smooth="yes"/>
      <point x="1523" y="774"/>
      <point x="1600" y="613"/>
    </contour>
    <contour>
      <point x="560" y="975" type="qcurve" smooth="yes"/>
      <point x="560" y="805"/>
      <point x="479" y="637"/>
      <point x="392" y="637" type="qcurve" smooth="yes"/>
      <point x="300" y="637"/>
      <point x="220" y="802"/>
      <point x="220" y="975" type="qcurve" smooth="yes"/>
      <point x="220" y="1154"/>
      <point x="300" y="1313"/>
      <point x="394" y="1313" type="qcurve" smooth="yes"/>
      <point x="484" y="1313"/>
      <point x="560" y="1151"/>
    </contour>
  </outline>
</glyph>
<glyph name="ampersand" format="2">
  <advance width="1366"/>
  <unicode hex="0026"/>
  <note>
ampersand
</note>
  <outline>
    <contour>
      <point x="1193" y="-12" type="qcurve" smooth="yes"/>
      <point x="1278" y="-12"/>
      <point x="1334" y="10" type="qcurve"/>
      <point x="1334" y="145" type="line"/>
      <point x="1288" y="129"/>
      <point x="1217" y="129" type="qcurve" smooth="yes"/>
      <point x="1105" y="129"/>
      <point x="1009" y="227" type="qcurve"/>
      <point x="1158" y="447"/>
      <point x="1221" y="696" type="qcurve"/>
      <point x="1076" y="739" type="line"/>
      <point x="1018" y="495"/>
      <point x="905" y="329" type="qcurve"/>
      <point x="723" y="536"/>
      <point x="612" y="741" type="qcurve"/>
      <point x="838" y="831"/>
      <point x="1021" y="1015"/>
      <point x="1021" y="1133" type="qcurve" smooth="yes"/>
      <point x="1021" y="1265"/>
      <point x="836" y="1417"/>
      <point x="685" y="1417" type="qcurve" smooth="yes"/>
      <point x="517" y="1417"/>
      <point x="334" y="1252"/>
      <point x="334" y="1102" type="qcurve" smooth="yes"/>
      <point x="334" y="1032"/>
      <point x="382" y="862"/>
      <point x="415" y="800" type="qcurve"/>
      <point x="72" y="649"/>
      <point x="72" y="371" type="qcurve" smooth="yes"/>
      <point x="72" y="187"/>
      <point x="308" y="-20"/>
      <point x="523" y="-20" type="qcurve" smooth="yes"/>
      <point x="628" y="-20"/>
      <point x="820" y="50"/>
      <point x="895" y="115" type="qcurve"/>
      <point x="1016" y="-12"/>
    </contour>
    <contour>
      <point x="869" y="1133" type="qcurve" smooth="yes"/>
      <point x="869" y="1079"/>
      <point x="806" y="989"/>
      <point x="683" y="911"/>
      <point x="552" y="858" type="qcurve"/>
      <point x="487" y="988"/>
      <point x="487" y="1102" type="qcurve" smooth="yes"/>
      <point x="487" y="1193"/>
      <point x="587" y="1296"/>
      <point x="683" y="1296" type="qcurve" smooth="yes"/>
      <point x="769" y="1296"/>
      <point x="869" y="1205"/>
    </contour>
    <contour>
      <point x="795" y="217" type="qcurve"/>
      <point x="742" y="166"/>
      <point x="600" y="111"/>
      <point x="529" y="111" type="qcurve" smooth="yes"/>
      <point x="395" y="111"/>
      <point x="240" y="252"/>
      <point x="240" y="373" type="qcurve" smooth="yes"/>
      <point x="240" y="574"/>
      <point x="476" y="674" type="qcurve"/>
      <point x="597" y="451"/>
    </contour>
  </outline>
</glyph>
<glyph name="parenleft" format="2">
  <advance width="682"/>
  <unicode hex="0028"/>
  <note>
parenleft
</note>
  <outline>
    <contour>
      <point x="127" y="532" type="qcurve" smooth="yes"/>
      <point x="127" y="528" type="line" smooth="yes"/>
      <point x="127" y="241"/>
      <point x="307" y="-220"/>
      <point x="496" y="-424" type="qcurve"/>
      <point x="670" y="-424" type="line"/>
      <point x="481" y="-213"/>
      <point x="308" y="253"/>
      <point x="308" y="530" type="qcurve" smooth="yes"/>
      <point x="308" y="808"/>
      <point x="483" y="1276"/>
      <point x="670" y="1484" type="qcurve"/>
      <point x="496" y="1484" type="line"/>
      <point x="308" y="1281"/>
      <point x="127" y="821"/>
    </contour>
  </outline>
</glyph>
<glyph name="comma" format="2">
  <advance width="569"/>
  <unicode hex="002C"/>
  <note>
comma
</note>
  <outline>
    <contour>
      <point x="385" y="219" type="line"/>
      <point x="190" y="219" type="line"/>
      <point x="190" y="0" type="line"/>
      <point x="278" y="0" type="line"/>
      <point x="278" y="-126"/>
      <point x="184" y="-262" type="qcurve"/>
      <point x="307" y="-262" type="line"/>
      <point x="347" y="-197"/>
      <point x="385" y="-55"/>
      <point x="385" y="51" type="qcurve" smooth="yes"/>
    </contour>
  </outline>
</glyph>
<glyph name="slash" format="2">
  <advance width="569"/>
  <unicode hex="002F"/>
  <note>
slash
</note>
  <outline>
    <contour>
      <point x="0" y="-20" type="line"/>
      <point x="162" y="-20" type="line"/>
      <point x="569" y="1484" type="line"/>
      <point x="411" y="1484" type="line"/>
    </contour>
  </outline>
</glyph>
<glyph name="zero" format="2">
  <advance width="1139"/>
  <unicode hex="0030"/>
  <note>
zero
</note>
  <outline>
    <contour>
      <point x="1059" y="705" type="qcurve" smooth="yes"/>
      <point x="1059" y="1064"/>
      <point x="822" y="1430"/>
      <point x="573" y="1430" type="qcurve" smooth="yes"/>
      <point x="317" y="1430"/>
      <point x="80" y="1068"/>
      <point x="80" y="705" type="qcurve" smooth="yes"/>
      <point x="80" y="350"/>
      <point x="324" y="-20"/>
      <point x="567" y="-20" type="qcurve" smooth="yes"/>
      <point x="810" y="-20"/>
      <point x="1059" y="352"/>
    </contour>
    <contour>
      <point x="876" y="705" type="qcurve" smooth="yes"/>
      <point x="876" y="411"/>
      <point x="728" y="127"/>
      <point x="569" y="127" type="qcurve" smooth="yes"/>
      <point x="409" y="127"/>
      <point x="262" y="405"/>
      <point x="262" y="705" type="qcurve" smooth="yes"/>
      <point x="262" y="1014"/>
      <point x="407" y="1284"/>
      <point x="573" y="1284" type="qcurve" smooth="yes"/>
      <point x="735" y="1284"/>
      <point x="876" y="1010"/>
    </contour>
  </outline>
</glyph>
<glyph name="two" format="2">
  <advance width="1139"/>
  <unicode hex="0032"/>
  <note>
two
</note>
  <outline>
    <contour>
      <point x="103" y="0" type="line"/>
      <point x="1036" y="0" type="line"/>
      <point x="1036" y="153" type="line"/>
      <point x="301" y="153" type="line"/>
      <point x="331" y="223"/>
      <point x="467" y="374"/>
      <point x="582" y="468" type="qcurve" smooth="yes"/>
      <point x="791" y="638"/>
      <point x="939" y="800"/>
      <point x="1014" y="962"/>
      <point x="1014" y="1044" type="qcurve" smooth="yes"/>
      <point x="1014" y="1229"/>
      <point x="785" y="1430"/>
      <point x="572" y="1430" type="qcurve" smooth="yes"/>
      <point x="378" y="1430"/>
      <point x="131" y="1230"/>
      <point x="111" y="1061" type="qcurve"/>
      <point x="295" y="1044" type="line"/>
      <point x="308" y="1157"/>
      <point x="457" y="1282"/>
      <point x="572" y="1282" type="qcurve" smooth="yes"/>
      <point x="693" y="1282"/>
      <point x="829" y="1154"/>
      <point x="829" y="1038" type="qcurve" smooth="yes"/>
      <point x="829" y="952"/>
      <point x="750" y="816"/>
      <point x="622" y="692"/>
      <point x="463" y="568"/>
      <point x="301" y="423"/>
      <point x="154" y="244"/>
      <point x="103" y="127" type="qcurve"/>
    </contour>
  </outline>
</glyph>
<glyph name="five" format="2">
  <advance width="1139"/>
  <unicode hex="0035"/>
  <note>
five
</note>
  <outline>
    <contour>
      <point x="1053" y="459" type="qcurve" smooth="yes"/>
      <point x="1053" y="655"/>
      <point x="806" y="899"/>
      <point x="598" y="899" type="qcurve" smooth="yes"/>
      <point x="424" y="899"/>
      <point x="307" y="809" type="qcurve"/>
      <point x="334" y="1256" type="line"/>
      <point x="971" y="1256" type="line"/>
      <point x="971" y="1409" type="line"/>
      <point x="170" y="1409" type="line"/>
      <point x="123" y="651" type="line"/>
      <point x="299" y="651" type="line"/>
      <point x="362" y="706"/>
      <point x="488" y="752"/>
      <point x="561" y="752" type="qcurve" smooth="yes"/>
      <point x="701" y="752"/>
      <point x="866" y="588"/>
      <point x="866" y="455" type="qcurve" smooth="yes"/>
      <point x="866" y="302"/>
      <point x="702" y="127"/>
      <point x="557" y="127" type="qcurve" smooth="yes"/>
      <point x="321" y="127"/>
      <point x="264" y="336" type="qcurve"/>
      <point x="82" y="315" type="line"/>
      <point x="114" y="152"/>
      <point x="356" y="-20"/>
      <point x="553" y="-20" type="qcurve" smooth="yes"/>
      <point x="788" y="-20"/>
      <point x="1053" y="236"/>
    </contour>
  </outline>
</glyph>
<glyph name="seven" format="2">
  <advance width="1139"/>
  <unicode hex="0037"/>
  <note>
seven
</note>
  <outline>
    <contour>
      <point x="1036" y="1263" type="qcurve"/>
      <point x="1036" y="1409" type="line"/>
      <point x="105" y="1409" type="line"/>
      <point x="105" y="1256" type="line"/>
      <point x="862" y="1256" type="line"/>
      <point x="594" y="867"/>
      <point x="365" y="270"/>
      <point x="365" y="0" type="qcurve"/>
      <point x="553" y="0" type="line"/>
      <point x="553" y="195"/>
      <point x="642" y="559"/>
      <point x="820" y="933"/>
    </contour>
  </outline>
</glyph>
<glyph name="eight" format="2">
  <advance width="1139"/>
  <unicode hex="0038"/>
  <note>
eight
</note>
  <outline>
    <contour>
      <point x="1050" y="393" type="qcurve" smooth="yes"/>
      <point x="1050" y="532"/>
      <point x="900" y="717"/>
      <point x="765" y="739" type="qcurve"/>
      <point x="765" y="743" type="line"/>
      <point x="881" y="766"/>
      <point x="1015" y="946"/>
      <point x="1015" y="1067" type="qcurve" smooth="yes"/>
      <point x="1015" y="1234"/>
      <point x="774" y="1430"/>
      <point x="566" y="1430" type="qcurve" smooth="yes"/>
      <point x="363" y="1430"/>
      <point x="122" y="1230"/>
      <point x="122" y="1069" type="qcurve" smooth="yes"/>
      <point x="122" y="948"/>
      <point x="255" y="768"/>
      <point x="370" y="741" type="qcurve"/>
      <point x="370" y="737" type="line"/>
      <point x="247" y="717"/>
      <point x="89" y="529"/>
      <point x="89" y="391" type="qcurve" smooth="yes"/>
      <point x="89" y="194"/>
      <point x="344" y="-20"/>
      <point x="570" y="-20" type="qcurve" smooth="yes"/>
      <point x="802" y="-20"/>
      <point x="1050" y="198"/>
    </contour>
    <contour>
      <point x="828" y="1057" type="qcurve" smooth="yes"/>
      <point x="828" y="926"/>
      <point x="695" y="809"/>
      <point x="568" y="809" type="qcurve" smooth="yes"/>
      <point x="443" y="809"/>
      <point x="306" y="936"/>
      <point x="306" y="1057" type="qcurve" smooth="yes"/>
      <point x="306" y="1176"/>
      <point x="439" y="1296"/>
      <point x="566" y="1296" type="qcurve" smooth="yes"/>
      <point x="828" y="1296"/>
    </contour>
    <contour>
      <point x="863" y="410" type="qcurve" smooth="yes"/>
      <point x="863" y="256"/>
      <point x="719" y="115"/>
      <point x="572" y="115" type="qcurve" smooth="yes"/>
      <point x="275" y="115"/>
      <point x="275" y="406" type="qcurve" smooth="yes"/>
      <point x="275" y="531"/>
      <point x="429" y="674"/>
      <point x="566" y="674" type="qcurve" smooth="yes"/>
      <point x="707" y="674"/>
      <point x="863" y="541"/>
    </contour>
  </outline>
</glyph>
<glyph name="nine" format="2">
  <advance width="1139"/>
  <unicode hex="0039"/>
  <note>
nine
</note>
  <outline>
    <contour>
      <point x="1042" y="733" type="qcurve" smooth="yes"/>
      <point x="1042" y="1082"/>
      <point x="800" y="1430"/>
      <point x="565" y="1430" type="qcurve" smooth="yes"/>
      <point x="344" y="1430"/>
      <point x="96" y="1177"/>
      <point x="96" y="956" type="qcurve" smooth="yes"/>
      <point x="96" y="741"/>
      <point x="324" y="481"/>
      <point x="514" y="481" type="qcurve" smooth="yes"/>
      <point x="630" y="481"/>
      <point x="824" y="590"/>
      <point x="864" y="680" type="qcurve"/>
      <point x="860" y="413"/>
      <point x="690" y="125"/>
      <point x="535" y="125" type="qcurve" smooth="yes"/>
      <point x="351" y="125"/>
      <point x="297" y="301" type="qcurve"/>
      <point x="125" y="274" type="line"/>
      <point x="168" y="119"/>
      <point x="367" y="-20"/>
      <point x="532" y="-20" type="qcurve" smooth="yes"/>
      <point x="777" y="-20"/>
      <point x="1042" y="370"/>
    </contour>
    <contour>
      <point x="846" y="907" type="qcurve" smooth="yes"/>
      <point x="846" y="824"/>
      <point x="769" y="694"/>
      <point x="635" y="623"/>
      <point x="557" y="623" type="qcurve" smooth="yes"/>
      <point x="429" y="623"/>
      <point x="279" y="802"/>
      <point x="279" y="956" type="qcurve" smooth="yes"/>
      <point x="279" y="1107"/>
      <point x="429" y="1284"/>
      <point x="559" y="1284" type="qcurve" smooth="yes"/>
      <point x="690" y="1284"/>
      <point x="846" y="1077"/>
    </contour>
  </outline>
</glyph>
<glyph name="semicolon" format="2">
  <advance width="569"/>
  <unicode hex="003B"/>
  <unicode hex="037E"/>
  <note>
semicolon
</note>
  <outline>
    <contour>
      <point x="385" y="207" type="line"/>
      <point x="190" y="207" type="line"/>
      <point x="190" y="0" type="line"/>
      <point x="278" y="0" type="line"/>
      <point x="278" y="-126"/>
      <point x="184" y="-262" type="qcurve"/>
      <point x="307" y="-262" type="line"/>
      <point x="347" y="-197"/>
      <point x="385" y="-55"/>
      <point x="385" y="51" type="qcurve" smooth="yes"/>
    </contour>
    <contour>
      <point x="190" y="875" type="line"/>
      <point x="385" y="875" type="line"/>
      <point x="385" y="1082" type="line"/>
      <point x="190" y="1082" type="line"/>
    </contour>
  </outline>
</glyph>
<glyph name="question" format="2">
  <advance width="1139"/>
  <unicode hex="003F"/>
  <note>
question
</note>
  <outline>
    <contour>
      <point x="1063" y="1032" type="qcurve" smooth="yes"/>
      <point x="1063" y="1219"/>
      <point x="807" y="1430"/>
      <point x="584" y="1430" type="qcurve" smooth="yes"/>
      <point x="370" y="1430"/>
      <point x="110" y="1218"/>
      <point x="84" y="1020" type="qcurve"/>
      <point x="268" y="1008" type="line"/>
      <point x="282" y="1130"/>
      <point x="446" y="1270"/>
      <point x="586" y="1270" type="qcurve" smooth="yes"/>
      <point x="726" y="1270"/>
      <point x="881" y="1138"/>
      <point x="881" y="1024" type="qcurve" smooth="yes"/>
      <point x="881" y="965"/>
      <point x="844" y="877"/>
      <point x="784" y="807"/>
      <point x="707" y="750"/>
      <point x="627" y="693"/>
      <point x="549" y="630"/>
      <point x="487" y="550"/>
      <point x="448" y="446"/>
      <point x="446" y="377" type="qcurve"/>
      <point x="621" y="377" type="line"/>
      <point x="622" y="445"/>
      <point x="692" y="560"/>
      <point x="764" y="612" type="qcurve" smooth="yes"/>
      <point x="844" y="671" type="line" smooth="yes"/>
      <point x="937" y="739"/>
      <point x="1019" y="839"/>
      <point x="1063" y="957"/>
    </contour>
    <contour>
      <point x="438" y="0" type="line"/>
      <point x="633" y="0" type="line"/>
      <point x="633" y="201" type="line"/>
      <point x="438" y="201" type="line"/>
    </contour>
  </outline>
</glyph>
<glyph name="at" format="2">
  <advance width="2079"/>
  <unicode hex="0040"/>
  <note>
at
</note>
  <outline>
    <contour>
      <point x="1902" y="755" type="qcurve" smooth="yes"/>
      <point x="1902" y="973"/>
      <point x="1717" y="1303"/>
      <point x="1367" y="1484"/>
      <point x="1126" y="1484" type="qcurve" smooth="yes"/>
      <point x="852" y="1484"/>
      <point x="410" y="1229"/>
      <point x="161" y="771"/>
      <point x="161" y="491" type="qcurve" smooth="yes"/>
      <point x="161" y="261"/>
      <point x="352" y="-92"/>
      <point x="713" y="-283"/>
      <point x="954" y="-283" type="qcurve" smooth="yes"/>
      <point x="1128" y="-283"/>
      <point x="1467" y="-192"/>
      <point x="1612" y="-105" type="qcurve"/>
      <point x="1557" y="7" type="line"/>
      <point x="1397" y="-80"/>
      <point x="1099" y="-155"/>
      <point x="954" y="-155" type="qcurve" smooth="yes"/>
      <point x="756" y="-155"/>
      <point x="459" y="3"/>
      <point x="302" y="298"/>
      <point x="302" y="491" type="qcurve" smooth="yes"/>
      <point x="302" y="741"/>
      <point x="514" y="1144"/>
      <point x="886" y="1358"/>
      <point x="1128" y="1358" type="qcurve" smooth="yes"/>
      <point x="1322" y="1358"/>
      <point x="1612" y="1209"/>
      <point x="1766" y="932"/>
      <point x="1766" y="753" type="qcurve" smooth="yes"/>
      <point x="1766" y="606"/>
      <point x="1688" y="364"/>
      <point x="1553" y="226"/>
      <point x="1473" y="226" type="qcurve" smooth="yes"/>
      <point x="1392" y="226"/>
      <point x="1392" y="320" type="qcurve" smooth="yes"/>
      <point x="1392" y="409"/>
      <point x="1429" y="573" type="qcurve" smooth="yes"/>
      <point x="1545" y="1079" type="line"/>
      <point x="1389" y="1079" type="line"/>
      <point x="1350" y="919" type="line"/>
      <point x="1344" y="919" type="line"/>
      <point x="1262" y="1101"/>
      <point x="1043" y="1101" type="qcurve" smooth="yes"/>
      <point x="902" y="1101"/>
      <point x="670" y="935"/>
      <point x="541" y="653"/>
      <point x="541" y="489" type="qcurve" smooth="yes"/>
      <point x="541" y="308"/>
      <point x="714" y="104"/>
      <point x="871" y="104" type="qcurve" smooth="yes"/>
      <point x="984" y="104"/>
      <point x="1179" y="227"/>
      <point x="1245" y="350" type="qcurve"/>
      <point x="1251" y="350" type="line"/>
      <point x="1248" y="280" type="line" smooth="yes"/>
      <point x="1248" y="192"/>
      <point x="1356" y="104"/>
      <point x="1455" y="104" type="qcurve" smooth="yes"/>
      <point x="1582" y="104"/>
      <point x="1787" y="268"/>
      <point x="1902" y="569"/>
    </contour>
    <contour>
      <point x="1296" y="747" type="qcurve" smooth="yes"/>
      <point x="1296" y="694"/>
      <point x="1273" y="602" type="qcurve" smooth="yes"/>
      <point x="1233" y="445"/>
      <point x="1025" y="235"/>
      <point x="900" y="235" type="qcurve" smooth="yes"/>
      <point x="801" y="235"/>
      <point x="706" y="371"/>
      <point x="706" y="491" type="qcurve" smooth="yes"/>
      <point x="706" y="622"/>
      <point x="796" y="847"/>
      <point x="953" y="974"/>
      <point x="1054" y="974" type="qcurve" smooth="yes"/>
      <point x="1164" y="974"/>
      <point x="1296" y="849"/>
    </contour>
  </outline>
</glyph>
<glyph name="C" format="2">
  <advance width="1479"/>
  <unicode hex="0043"/>
  <note>
C
</note>
  <outline>
    <contour>
      <point x="792" y="1274" type="qcurve" smooth="yes"/>
      <point x="941" y="1274"/>
      <point x="1158" y="1144"/>
      <point x="1207" y="1021" type="qcurve"/>
      <point x="1388" y="1081" type="line"/>
      <point x="1317" y="1254"/>
      <point x="1015" y="1430"/>
      <point x="790" y="1430" type="qcurve" smooth="yes"/>
      <point x="468" y="1430"/>
      <point x="104" y="1048"/>
      <point x="104" y="711" type="qcurve" smooth="yes"/>
      <point x="104" y="486"/>
      <point x="267" y="157"/>
      <point x="578" y="-20"/>
      <point x="791" y="-20" type="qcurve" smooth="yes"/>
      <point x="999" y="-20"/>
      <point x="1314" y="170"/>
      <point x="1401" y="352" type="qcurve"/>
      <point x="1245" y="430" type="line"/>
      <point x="1096" y="137"/>
      <point x="800" y="137" type="qcurve" smooth="yes"/>
      <point x="569" y="137"/>
      <point x="298" y="452"/>
      <point x="298" y="711" type="qcurve" smooth="yes"/>
      <point x="298" y="973"/>
      <point x="558" y="1274"/>
    </contour>
  </outline>
</glyph>
<glyph name="J" format="2">
  <advance width="1024"/>
  <unicode hex="004A"/>
  <note>
J
</note>
  <outline>
    <contour>
      <point x="457" y="-20" type="qcurve" smooth="yes"/>
      <point x="650" y="-20"/>
      <point x="872" y="215"/>
      <point x="872" y="420" type="qcurve" smooth="yes"/>
      <point x="872" y="1409" type="line"/>
      <point x="411" y="1409" type="line"/>
      <point x="411" y="1253" type="line"/>
      <point x="682" y="1253" type="line"/>
      <point x="682" y="416" type="line" smooth="yes"/>
      <point x="682" y="278"/>
      <point x="562" y="135"/>
      <point x="458" y="135" type="qcurve" smooth="yes"/>
      <point x="363" y="135"/>
      <point x="237" y="265"/>
      <point x="219" y="381" type="qcurve"/>
      <point x="32" y="350" type="line"/>
      <point x="99" y="-20"/>
    </contour>
  </outline>
</glyph>
<glyph name="L" format="2">
  <advance width="1139"/>
  <unicode hex="004C"/>
  <note>
L
</note>
  <outline>
    <contour>
      <point x="168" y="0" type="line"/>
      <point x="1071" y="0" type="line"/>
      <point x="1071" y="156" type="line"/>
      <point x="359" y="156" type="line"/>
      <point x="359" y="1409" type="line"/>
      <point x="168" y="1409" type="line"/>
    </contour>
  </outline>
</glyph>
<glyph name="N" format="2">
  <advance width="1479"/>
  <unicode hex="004E"/>
  <note>
N
</note>
  <outline>
    <contour>
      <point x="1082" y="0" type="line"/>
      <point x="1312" y="0" type="line"/>
      <point x="1312" y="1409" type="line"/>
      <point x="1140" y="1409" type="line"/>
      <point x="1140" y="485" type="line" smooth="yes"/>
      <point x="1140" y="397"/>
      <point x="1152" y="201" type="qcurve"/>
      <point x="390" y="1409" type="line"/>
      <point x="168" y="1409" type="line"/>
      <point x="168" y="0" type="line"/>
      <point x="338" y="0" type="line"/>
      <point x="338" y="936" type="line"/>
      <point x="333" y="1103" type="line"/>
      <point x="328" y="1200" type="line"/>
    </contour>
  </outline>
</glyph>
<glyph name="V" format="2">
  <advance width="1366"/>
  <unicode hex="0056"/>
  <note>
V
</note>
  <outline>
    <contour>
      <point x="782" y="0" type="line"/>
      <point x="1357" y="1409" type="line"/>
      <point x="1156" y="1409" type="line"/>
      <point x="768" y="417" type="line"/>
      <point x="684" y="168" type="line"/>
      <point x="600" y="417" type="line"/>
      <point x="210" y="1409" type="line"/>
      <point x="9" y="1409" type="line"/>
      <point x="584" y="0" type="line"/>
    </contour>
  </outline>
</glyph>
<glyph name="W" format="2">
  <advance width="1933"/>
  <unicode hex="0057"/>
  <note>
W
</note>
  <outline>
    <contour>
      <point x="1511" y="0" type="line"/>
      <point x="1926" y="1409" type="line"/>
      <point x="1727" y="1409" type="line"/>
      <point x="1463" y="463"/>
      <point x="1429" y="318"/>
      <point x="1402" y="203" type="qcurve" smooth="yes"/>
      <point x="1393" y="168" type="line"/>
      <point x="1361" y="317"/>
      <point x="1305" y="532" type="qcurve" smooth="yes"/>
      <point x="1060" y="1409" type="line"/>
      <point x="877" y="1409" type="line"/>
      <point x="631" y="538"/>
      <point x="568" y="278"/>
      <point x="544" y="168" type="qcurve"/>
      <point x="506" y="346"/>
      <point x="461" y="514" type="qcurve" smooth="yes"/>
      <point x="208" y="1409" type="line"/>
      <point x="9" y="1409" type="line"/>
      <point x="424" y="0" type="line"/>
      <point x="652" y="0" type="line"/>
      <point x="907" y="924"/>
      <point x="943" y="1080"/>
      <point x="969" y="1196" type="qcurve"/>
      <point x="1015" y="979"/>
      <point x="1039" y="895" type="qcurve" smooth="yes"/>
      <point x="1283" y="0" type="line"/>
    </contour>
  </outline>
</glyph>
<glyph name="asciicircum" format="2">
  <advance width="961"/>
  <unicode hex="005E"/>
  <note>
asciicircum
</note>
  <outline>
    <contour>
      <point x="787" y="673" type="line"/>
      <point x="951" y="673" type="line"/>
      <point x="581" y="1409" type="line"/>
      <point x="378" y="1409" type="line"/>
      <point x="10" y="673" type="line"/>
      <point x="172" y="673" type="line"/>
      <point x="478" y="1306" type="line"/>
    </contour>
  </outline>
</glyph>
<glyph name="underscore" format="2">
  <advance width="1139"/>
  <unicode hex="005F"/>
  <note>
underscore
</note>
  <outline>
    <contour>
      <point x="-31" y="-407" type="line"/>
      <point x="1162" y="-407" type="line"/>
      <point x="1162" y="-277" type="line"/>
      <point x="-31" y="-277" type="line"/>
    </contour>
  </outline>
</glyph>
<glyph name="a" format="2">
  <advance width="1139"/>
  <unicode hex="0061"/>
  <note>
a
</note>
  <outline>
    <contour>
      <point x="414" y="-20" type="qcurve" smooth="yes"/>
      <point x="545" y="-20"/>
      <point x="728" y="83"/>
      <point x="797" y="207" type="qcurve"/>
      <point x="803" y="207" type="line"/>
      <point x="809" y="95"/>
      <point x="900" y="-10"/>
      <point x="1000" y="-10" type="qcurve" smooth="yes"/>
      <point x="1071" y="-10"/>
      <point x="1139" y="6" type="qcurve"/>
      <point x="1139" y="118" type="line"/>
      <point x="1106" y="111"/>
      <point x="1080" y="111" type="qcurve" smooth="yes"/>
      <point x="1021" y="111"/>
      <point x="979" y="192"/>
      <point x="979" y="272" type="qcurve" smooth="yes"/>
      <point x="979" y="738" type="line" smooth="yes"/>
      <point x="979" y="915"/>
      <point x="773" y="1102"/>
      <point x="569" y="1102" type="qcurve" smooth="yes"/>
      <point x="181" y="1102"/>
      <point x="135" y="810" type="qcurve"/>
      <point x="323" y="793" type="line"/>
      <point x="334" y="883"/>
      <point x="444" y="965"/>
      <point x="565" y="965" type="qcurve" smooth="yes"/>
      <point x="685" y="965"/>
      <point x="797" y="851"/>
      <point x="797" y="719" type="qcurve" smooth="yes"/>
      <point x="797" y="660" type="line"/>
      <point x="554" y="656" type="line" smooth="yes"/>
      <point x="308" y="650"/>
      <point x="87" y="470"/>
      <point x="87" y="302" type="qcurve" smooth="yes"/>
      <point x="87" y="152"/>
      <point x="251" y="-20"/>
    </contour>
    <contour>
      <point x="455" y="115" type="qcurve" smooth="yes"/>
      <point x="367" y="115"/>
      <point x="272" y="211"/>
      <point x="272" y="299" type="qcurve" smooth="yes"/>
      <point x="272" y="380"/>
      <point x="342" y="480"/>
      <point x="473" y="528"/>
      <point x="600" y="530" type="qcurve" smooth="yes"/>
      <point x="797" y="534" type="line"/>
      <point x="797" y="445" type="line" smooth="yes"/>
      <point x="797" y="362"/>
      <point x="708" y="205"/>
      <point x="554" y="115"/>
    </contour>
  </outline>
</glyph>
<glyph name="d" format="2">
  <advance width="1139"/>
  <unicode hex="0064"/>
  <note>
d
</note>
  <outline>
    <contour>
      <point x="821" y="174" type="qcurve"/>
      <point x="825" y="174" type="line"/>
      <point x="825" y="132"/>
      <point x="832" y="16"/>
      <point x="835" y="0" type="qcurve"/>
      <point x="1007" y="0" type="line"/>
      <point x="1001" y="54"/>
      <point x="1001" y="223" type="qcurve" smooth="yes"/>
      <point x="1001" y="1484" type="line"/>
      <point x="821" y="1484" type="line"/>
      <point x="821" y="1035" type="line"/>
      <point x="823" y="914" type="line"/>
      <point x="821" y="914" type="line"/>
      <point x="771" y="1012"/>
      <point x="607" y="1102"/>
      <point x="484" y="1102" type="qcurve" smooth="yes"/>
      <point x="86" y="1102"/>
      <point x="86" y="536" type="qcurve" smooth="yes"/>
      <point x="86" y="256"/>
      <point x="279" y="-20"/>
      <point x="484" y="-20" type="qcurve" smooth="yes"/>
      <point x="606" y="-20"/>
      <point x="771" y="70"/>
    </contour>
    <contour>
      <point x="275" y="542" type="qcurve" smooth="yes"/>
      <point x="275" y="768"/>
      <point x="396" y="969"/>
      <point x="532" y="969" type="qcurve" smooth="yes"/>
      <point x="683" y="969"/>
      <point x="821" y="769"/>
      <point x="821" y="554" type="qcurve" smooth="yes"/>
      <point x="821" y="331"/>
      <point x="683" y="119"/>
      <point x="530" y="119" type="qcurve" smooth="yes"/>
      <point x="395" y="119"/>
      <point x="275" y="315"/>
    </contour>
  </outline>
</glyph>
<glyph name="j" format="2">
  <advance width="455"/>
  <unicode hex="006A"/>
  <note>
j
</note>
  <outline>
    <contour>
      <point x="137" y="1312" type="line"/>
      <point x="317" y="1312" type="line"/>
      <point x="317" y="1484" type="line"/>
      <point x="137" y="1484" type="line"/>
    </contour>
    <contour>
      <point x="317" y="-134" type="qcurve" smooth="yes"/>
      <point x="317" y="1082" type="line"/>
      <point x="137" y="1082" type="line"/>
      <point x="137" y="-107" type="line" smooth="yes"/>
      <point x="137" y="-211"/>
      <point x="81" y="-283"/>
      <point x="12" y="-283" type="qcurve"/>
      <point x="-50" y="-277" type="line"/>
      <point x="-50" y="-416" type="line"/>
      <point x="0" y="-425"/>
      <point x="77" y="-425" type="qcurve" smooth="yes"/>
      <point x="197" y="-425"/>
      <point x="317" y="-287"/>
    </contour>
  </outline>
</glyph>
<glyph name="l" format="2">
  <advance width="455"/>
  <unicode hex="006C"/>
  <note>
l
</note>
  <outline>
    <contour>
      <point x="138" y="0" type="line"/>
      <point x="318" y="0" type="line"/>
      <point x="318" y="1484" type="line"/>
      <point x="138" y="1484" type="line"/>
    </contour>
  </outline>
</glyph>
<glyph name="o" format="2">
  <advance width="1139"/>
  <unicode hex="006F"/>
  <note>
o
</note>
  <outline>
    <contour>
      <point x="1053" y="542" type="qcurve" smooth="yes"/>
      <point x="1053" y="829"/>
      <point x="819" y="1102"/>
      <point x="571" y="1102" type="qcurve" smooth="yes"/>
      <point x="86" y="1102"/>
      <point x="86" y="542" type="qcurve" smooth="yes"/>
      <point x="86" y="269"/>
      <point x="328" y="-20"/>
      <point x="565" y="-20" type="qcurve" smooth="yes"/>
      <point x="803" y="-20"/>
      <point x="1053" y="258"/>
    </contour>
    <contour>
      <point x="864" y="542" type="qcurve" smooth="yes"/>
      <point x="864" y="321"/>
      <point x="725" y="113"/>
      <point x="563" y="113" type="qcurve" smooth="yes"/>
      <point x="414" y="113"/>
      <point x="275" y="328"/>
      <point x="275" y="542" type="qcurve" smooth="yes"/>
      <point x="275" y="762"/>
      <point x="416" y="969"/>
      <point x="574" y="969" type="qcurve" smooth="yes"/>
      <point x="731" y="969"/>
      <point x="864" y="766"/>
    </contour>
  </outline>
</glyph>
<glyph name="s" format="2">
  <advance width="1024"/>
  <unicode hex="0073"/>
  <note>
s
</note>
  <outline>
    <contour>
      <point x="950" y="299" type="qcurve" smooth="yes"/>
      <point x="950" y="361"/>
      <point x="910" y="458"/>
      <point x="837" y="532"/>
      <point x="711" y="593"/>
      <point x="568" y="629" type="qcurve" smooth="yes"/>
      <point x="417" y="666"/>
      <point x="323" y="708"/>
      <point x="275" y="768"/>
      <point x="275" y="814" type="qcurve" smooth="yes"/>
      <point x="275" y="889"/>
      <point x="391" y="963"/>
      <point x="513" y="963" type="qcurve" smooth="yes"/>
      <point x="623" y="963"/>
      <point x="754" y="886"/>
      <point x="769" y="814" type="qcurve"/>
      <point x="931" y="834" type="line"/>
      <point x="903" y="973"/>
      <point x="692" y="1099"/>
      <point x="513" y="1099" type="qcurve" smooth="yes"/>
      <point x="311" y="1099"/>
      <point x="100" y="944"/>
      <point x="100" y="796" type="qcurve" smooth="yes"/>
      <point x="100" y="716"/>
      <point x="174" y="606"/>
      <point x="305" y="529"/>
      <point x="460" y="489" type="qcurve" smooth="yes"/>
      <point x="589" y="455" type="line" smooth="yes"/>
      <point x="687" y="429"/>
      <point x="775" y="349"/>
      <point x="775" y="285" type="qcurve" smooth="yes"/>
      <point x="775" y="201"/>
      <point x="648" y="117"/>
      <point x="511" y="117" type="qcurve" smooth="yes"/>
      <point x="383" y="117"/>
      <point x="239" y="198"/>
      <point x="216" y="285" type="qcurve"/>
      <point x="57" y="254" type="line"/>
      <point x="90" y="113"/>
      <point x="309" y="-20"/>
      <point x="511" y="-20" type="qcurve" smooth="yes"/>
      <point x="719" y="-20"/>
      <point x="950" y="146"/>
    </contour>
  </outline>
</glyph>
<glyph name="v" format="2">
  <advance width="1024"/>
  <unicode hex="0076"/>
  <note>
v
</note>
  <outline>
    <contour>
      <point x="613" y="0" type="line"/>
      <point x="1017" y="1082" type="line"/>
      <point x="826" y="1082" type="line"/>
      <point x="580" y="376" type="line"/>
      <point x="541" y="258" type="line"/>
      <point x="506" y="141" type="line"/>
      <point x="450" y="338"/>
      <point x="437" y="378" type="qcurve" smooth="yes"/>
      <point x="199" y="1082" type="line"/>
      <point x="7" y="1082" type="line"/>
      <point x="400" y="0" type="line"/>
    </contour>
  </outline>
</glyph>
<glyph name="y" format="2">
  <advance width="1024"/>
  <unicode hex="0079"/>
  <note>
y
</note>
  <outline>
    <contour>
      <point x="191" y="-425" type="qcurve" smooth="yes"/>
      <point x="280" y="-425"/>
      <point x="421" y="-342"/>
      <point x="537" y="-173"/>
      <point x="604" y="0" type="qcurve" smooth="yes"/>
      <point x="1020" y="1082" type="line"/>
      <point x="830" y="1082" type="line"/>
      <point x="593" y="393" type="line"/>
      <point x="523" y="196" type="line"/>
      <point x="520" y="209"/>
      <point x="444" y="431"/>
      <point x="430" y="470"/>
      <point x="425" y="484" type="qcurve" smooth="yes"/>
      <point x="197" y="1082" type="line"/>
      <point x="5" y="1082" type="line"/>
      <point x="434" y="5" type="line"/>
      <point x="417" y="-38" type="line" smooth="yes"/>
      <point x="319" y="-285"/>
      <point x="151" y="-285" type="qcurve" smooth="yes"/>
      <point x="105" y="-285"/>
      <point x="67" y="-279" type="qcurve"/>
      <point x="67" y="-414" type="line"/>
      <point x="117" y="-425"/>
    </contour>
  </outline>
</glyph>
<glyph name="bar" format="2">
  <advance width="532"/>
  <unicode hex="007C"/>
  <note>
bar
</note>
  <outline>
    <contour>
      <point x="183" y="-434" type="line"/>
      <point x="349" y="-434" type="line"/>
      <point x="349" y="1484" type="line"/>
      <point x="183" y="1484" type="line"/>
    </contour>
  </outline>
</glyph>
<glyph name="braceright" format="2">
  <advance width="684"/>
  <unicode hex="007D"/>
  <note>
braceright
</note>
  <outline>
    <contour>
      <point x="94" y="-296" type="qcurve" smooth="yes"/>
      <point x="34" y="-296" type="line"/>
      <point x="34" y="-425" type="line"/>
      <point x="166" y="-425" type="line" smooth="yes"/>
      <point x="293" y="-425"/>
      <point x="430" y="-270"/>
      <point x="430" y="-132" type="qcurve" smooth="yes"/>
      <point x="430" y="229" type="line" smooth="yes"/>
      <point x="430" y="346"/>
      <point x="535" y="462"/>
      <point x="647" y="466" type="qcurve"/>
      <point x="647" y="593" type="line"/>
      <point x="536" y="597"/>
      <point x="430" y="713"/>
      <point x="430" y="829" type="qcurve" smooth="yes"/>
      <point x="430" y="1191" type="line" smooth="yes"/>
      <point x="430" y="1332"/>
      <point x="297" y="1484"/>
      <point x="166" y="1484" type="qcurve" smooth="yes"/>
      <point x="34" y="1484" type="line"/>
      <point x="34" y="1355" type="line"/>
      <point x="94" y="1355" type="line" smooth="yes"/>
      <point x="185" y="1355"/>
      <point x="264" y="1248"/>
      <point x="264" y="1140" type="qcurve" smooth="yes"/>
      <point x="264" y="784" type="line" smooth="yes"/>
      <point x="264" y="687"/>
      <point x="371" y="552"/>
      <point x="457" y="532" type="qcurve"/>
      <point x="457" y="530" type="line"/>
      <point x="368" y="510"/>
      <point x="264" y="374"/>
      <point x="264" y="276" type="qcurve" smooth="yes"/>
      <point x="264" y="-81" type="line" smooth="yes"/>
      <point x="264" y="-187"/>
      <point x="185" y="-296"/>
    </contour>
  </outline>
</glyph>
<glyph name="cent" format="2">
  <advance width="1139"/>
  <unicode hex="00A2"/>
  <note>
cent
</note>
  <outline>
    <contour>
      <point x="596" y="277" type="qcurve" smooth="yes"/>
      <point x="459" y="277"/>
      <point x="323" y="485"/>
      <point x="323" y="701" type="qcurve" smooth="yes"/>
      <point x="323" y="926"/>
      <point x="451" y="1116"/>
      <point x="594" y="1116" type="qcurve" smooth="yes"/>
      <point x="699" y="1116"/>
      <point x="813" y="1010"/>
      <point x="827" y="920" type="qcurve"/>
      <point x="1012" y="934" type="line"/>
      <point x="985" y="1073"/>
      <point x="805" y="1239"/>
      <point x="662" y="1254" type="qcurve"/>
      <point x="662" y="1409" type="line"/>
      <point x="538" y="1409" type="line"/>
      <point x="538" y="1254" type="line"/>
      <point x="339" y="1237"/>
      <point x="135" y="950"/>
      <point x="135" y="697" type="qcurve" smooth="yes"/>
      <point x="135" y="440"/>
      <point x="339" y="155"/>
      <point x="538" y="137" type="qcurve"/>
      <point x="538" y="-31" type="line"/>
      <point x="662" y="-31" type="line"/>
      <point x="662" y="137" type="line"/>
      <point x="809" y="151"/>
      <point x="999" y="333"/>
      <point x="1018" y="477" type="qcurve"/>
      <point x="836" y="489" type="line"/>
      <point x="821" y="381"/>
      <point x="692" y="277"/>
    </contour>
  </outline>
</glyph>
<glyph name="section" format="2">
  <advance width="1139"/>
  <unicode hex="00A7"/>
  <note>
section
</note>
  <outline>
    <contour>
      <point x="588" y="1484" type="qcurve" smooth="yes"/>
      <point x="385" y="1484"/>
      <point x="174" y="1329"/>
      <point x="174" y="1190" type="qcurve" smooth="yes"/>
      <point x="174" y="1104"/>
      <point x="285" y="970"/>
      <point x="381" y="938" type="qcurve"/>
      <point x="276" y="908"/>
      <point x="153" y="760"/>
      <point x="153" y="671" type="qcurve" smooth="yes"/>
      <point x="153" y="559"/>
      <point x="324" y="403"/>
      <point x="518" y="358" type="qcurve" smooth="yes"/>
      <point x="669" y="321"/>
      <point x="792" y="263"/>
      <point x="858" y="186"/>
      <point x="858" y="129" type="qcurve" smooth="yes"/>
      <point x="858" y="47"/>
      <point x="713" y="-41"/>
      <point x="577" y="-41" type="qcurve" smooth="yes"/>
      <point x="432" y="-41"/>
      <point x="296" y="41"/>
      <point x="276" y="131" type="qcurve"/>
      <point x="115" y="100" type="line"/>
      <point x="149" y="-39"/>
      <point x="368" y="-172"/>
      <point x="577" y="-172" type="qcurve" smooth="yes"/>
      <point x="787" y="-172"/>
      <point x="1018" y="-3"/>
      <point x="1018" y="145" type="qcurve" smooth="yes"/>
      <point x="1018" y="236"/>
      <point x="917" y="365"/>
      <point x="805" y="413" type="qcurve"/>
      <point x="905" y="437"/>
      <point x="1024" y="587"/>
      <point x="1024" y="686" type="qcurve" smooth="yes"/>
      <point x="1024" y="767"/>
      <point x="938" y="885"/>
      <point x="782" y="968"/>
      <point x="635" y="1003" type="qcurve" smooth="yes"/>
      <point x="505" y="1034"/>
      <point x="394" y="1086"/>
      <point x="334" y="1156"/>
      <point x="334" y="1204" type="qcurve" smooth="yes"/>
      <point x="334" y="1275"/>
      <point x="463" y="1354"/>
      <point x="588" y="1354" type="qcurve" smooth="yes"/>
      <point x="813" y="1354"/>
      <point x="840" y="1204" type="qcurve"/>
      <point x="1001" y="1224" type="line"/>
      <point x="974" y="1351"/>
      <point x="761" y="1484"/>
    </contour>
    <contour>
      <point x="866" y="663" type="qcurve" smooth="yes"/>
      <point x="866" y="578"/>
      <point x="731" y="477"/>
      <point x="612" y="475" type="qcurve"/>
      <point x="483" y="508"/>
      <point x="372" y="562"/>
      <point x="313" y="635"/>
      <point x="313" y="684" type="qcurve" smooth="yes"/>
      <point x="313" y="768"/>
      <point x="442" y="874"/>
      <point x="551" y="880" type="qcurve"/>
      <point x="727" y="839"/>
      <point x="866" y="735"/>
    </contour>
  </outline>
</glyph>
<glyph name="degree" format="2">
  <advance width="819"/>
  <unicode hex="00B0"/>
  <note>
degree
</note>
  <outline>
    <contour>
      <point x="696" y="1145" type="qcurve" smooth="yes"/>
      <point x="696" y="1264"/>
      <point x="529" y="1430"/>
      <point x="409" y="1430" type="qcurve" smooth="yes"/>
      <point x="289" y="1430"/>
      <point x="122" y="1262"/>
      <point x="122" y="1145" type="qcurve" smooth="yes"/>
      <point x="122" y="1028"/>
      <point x="291" y="860"/>
      <point x="409" y="860" type="qcurve" smooth="yes"/>
      <point x="527" y="860"/>
      <point x="696" y="1026"/>
    </contour>
    <contour>
      <point x="587" y="1145" type="qcurve" smooth="yes"/>
      <point x="587" y="1070"/>
      <point x="483" y="965"/>
      <point x="409" y="965" type="qcurve" smooth="yes"/>
      <point x="336" y="965"/>
      <point x="231" y="1071"/>
      <point x="231" y="1145" type="qcurve" smooth="yes"/>
      <point x="231" y="1219"/>
      <point x="334" y="1325"/>
      <point x="409" y="1325" type="qcurve" smooth="yes"/>
      <point x="484" y="1325"/>
      <point x="587" y="1221"/>
    </contour>
  </outline>
</glyph>
<glyph name="threesuperior" format="2">
  <advance width="682"/>
  <unicode hex="00B3"/>
  <note>
threesuperior
</note>
  <outline>
    <contour>
      <point x="642" y="795" type="qcurve" smooth="yes"/>
      <point x="642" y="883"/>
      <point x="536" y="988"/>
      <point x="445" y="997" type="qcurve"/>
      <point x="445" y="999" type="line"/>
      <point x="535" y="1019"/>
      <point x="621" y="1129"/>
      <point x="621" y="1204" type="qcurve" smooth="yes"/>
      <point x="621" y="1302"/>
      <point x="473" y="1421"/>
      <point x="343" y="1421" type="qcurve" smooth="yes"/>
      <point x="216" y="1421"/>
      <point x="59" y="1301"/>
      <point x="46" y="1192" type="qcurve"/>
      <point x="181" y="1180" type="line"/>
      <point x="187" y="1245"/>
      <point x="271" y="1315"/>
      <point x="339" y="1315" type="qcurve" smooth="yes"/>
      <point x="410" y="1315"/>
      <point x="484" y="1246"/>
      <point x="484" y="1186" type="qcurve" smooth="yes"/>
      <point x="484" y="1121"/>
      <point x="392" y="1049"/>
      <point x="312" y="1049" type="qcurve" smooth="yes"/>
      <point x="255" y="1049" type="line"/>
      <point x="255" y="940" type="line"/>
      <point x="316" y="940" type="line" smooth="yes"/>
      <point x="505" y="940"/>
      <point x="505" y="803" type="qcurve" smooth="yes"/>
      <point x="505" y="655"/>
      <point x="345" y="655" type="qcurve" smooth="yes"/>
      <point x="181" y="655"/>
      <point x="163" y="791" type="qcurve"/>
      <point x="27" y="778" type="line"/>
      <point x="59" y="551"/>
      <point x="345" y="551" type="qcurve" smooth="yes"/>
      <point x="487" y="551"/>
      <point x="642" y="679"/>
    </contour>
  </outline>
</glyph>
<glyph name="acute" format="2">
  <advance width="682"/>
  <unicode hex="00B4"/>
  <note>
acute
</note>
  <outline>
    <contour>
      <point x="72" y="1201" type="line"/>
      <point x="166" y="1201" type="line"/>
      <point x="496" y="1479" type="line"/>
      <point x="496" y="1508" type="line"/>
      <point x="289" y="1508" type="line"/>
      <point x="72" y="1221" type="line"/>
    </contour>
  </outline>
</glyph>
<glyph name="cedilla" format="2">
  <advance width="682"/>
  <unicode hex="00B8"/>
  <note>
cedilla
</note>
  <outline>
    <contour>
      <point x="483" y="-253" type="qcurve" smooth="yes"/>
      <point x="483" y="-184"/>
      <point x="389" y="-103"/>
      <point x="295" y="-100" type="qcurve"/>
      <point x="334" y="0" type="line"/>
      <point x="227" y="0" type="line"/>
      <point x="162" y="-182" type="line"/>
      <point x="176" y="-180"/>
      <point x="219" y="-180" type="qcurve" smooth="yes"/>
      <point x="352" y="-180"/>
      <point x="352" y="-257" type="qcurve" smooth="yes"/>
      <point x="352" y="-338"/>
      <point x="205" y="-338" type="qcurve" smooth="yes"/>
      <point x="168" y="-338"/>
      <point x="119" y="-332" type="qcurve"/>
      <point x="119" y="-430" type="line"/>
      <point x="152" y="-434"/>
      <point x="209" y="-434" type="qcurve" smooth="yes"/>
      <point x="483" y="-434"/>
    </contour>
  </outline>
</glyph>
<glyph name="questiondown" format="2">
  <advance width="1251"/>
  <unicode hex="00BF"/>
  <note>
questiondown
</note>
  <outline>
    <contour>
      <point x="131" y="50" type="qcurve" smooth="yes"/>
      <point x="131" y="-137"/>
      <point x="387" y="-348"/>
      <point x="610" y="-348" type="qcurve" smooth="yes"/>
      <point x="824" y="-348"/>
      <point x="1084" y="-136"/>
      <point x="1110" y="62" type="qcurve"/>
      <point x="926" y="74" type="line"/>
      <point x="912" y="-48"/>
      <point x="748" y="-188"/>
      <point x="608" y="-188" type="qcurve" smooth="yes"/>
      <point x="468" y="-188"/>
      <point x="313" y="-56"/>
      <point x="313" y="58" type="qcurve" smooth="yes"/>
      <point x="313" y="117"/>
      <point x="350" y="205"/>
      <point x="410" y="275"/>
      <point x="487" y="332"/>
      <point x="567" y="389"/>
      <point x="645" y="452"/>
      <point x="707" y="532"/>
      <point x="746" y="636"/>
      <point x="748" y="705" type="qcurve"/>
      <point x="573" y="705" type="line"/>
      <point x="572" y="637"/>
      <point x="502" y="522"/>
      <point x="431" y="470" type="qcurve" smooth="yes"/>
      <point x="350" y="411" type="line" smooth="yes"/>
      <point x="257" y="343"/>
      <point x="175" y="243"/>
      <point x="131" y="125"/>
    </contour>
    <contour>
      <point x="756" y="1082" type="line"/>
      <point x="561" y="1082" type="line"/>
      <point x="561" y="881" type="line"/>
      <point x="756" y="881" type="line"/>
    </contour>
  </outline>
</glyph>
<glyph name="Oslash" format="2">
  <advance width="1593"/>
  <unicode hex="00D8"/>
  <note>
Oslash
</note>
  <outline>
    <contour>
      <point x="1495" y="711" type="qcurve" smooth="yes"/>
      <point x="1495" y="1034"/>
      <point x="1323" y="1224" type="qcurve"/>
      <point x="1524" y="1466" type="line"/>
      <point x="1332" y="1466" type="line"/>
      <point x="1211" y="1320" type="line"/>
      <point x="1044" y="1430"/>
      <point x="797" y="1430" type="qcurve" smooth="yes"/>
      <point x="467" y="1430"/>
      <point x="97" y="1049"/>
      <point x="97" y="711" type="qcurve" smooth="yes"/>
      <point x="97" y="380"/>
      <point x="271" y="188" type="qcurve"/>
      <point x="71" y="-53" type="line"/>
      <point x="261" y="-53" type="line"/>
      <point x="381" y="92" type="line"/>
      <point x="549" y="-20"/>
      <point x="795" y="-20" type="qcurve" smooth="yes"/>
      <point x="1010" y="-20"/>
      <point x="1326" y="158"/>
      <point x="1495" y="490"/>
    </contour>
    <contour>
      <point x="1300" y="711" type="qcurve" smooth="yes"/>
      <point x="1300" y="436"/>
      <point x="1039" y="135"/>
      <point x="795" y="135" type="qcurve" smooth="yes"/>
      <point x="615" y="135"/>
      <point x="493" y="226" type="qcurve"/>
      <point x="1202" y="1079" type="line"/>
      <point x="1300" y="935"/>
    </contour>
    <contour>
      <point x="291" y="711" type="qcurve" smooth="yes"/>
      <point x="291" y="978"/>
      <point x="555" y="1274"/>
      <point x="797" y="1274" type="qcurve" smooth="yes"/>
      <point x="975" y="1274"/>
      <point x="1099" y="1186" type="qcurve"/>
      <point x="392" y="333" type="line"/>
      <point x="291" y="482"/>
    </contour>
  </outline>
</glyph>
<glyph name="germandbls" format="2">
  <advance width="1251"/>
  <unicode hex="00DF"/>
  <note>
germandbls
</note>
  <outline>
    <contour>
      <point x="1167" y="295" type="qcurve" smooth="yes"/>
      <point x="1167" y="481"/>
      <point x="983" y="605" type="qcurve" smooth="yes"/>
      <point x="935" y="637"/>
      <point x="853" y="694"/>
      <point x="798" y="753"/>
      <point x="798" y="791" type="qcurve" smooth="yes"/>
      <point x="798" y="820"/>
      <point x="832" y="869"/>
      <point x="911" y="941" type="qcurve" smooth="yes"/>
      <point x="1024" y="1044"/>
      <point x="1024" y="1187" type="qcurve" smooth="yes"/>
      <point x="1024" y="1323"/>
      <point x="799" y="1484"/>
      <point x="609" y="1484" type="qcurve" smooth="yes"/>
      <point x="377" y="1484"/>
      <point x="142" y="1254"/>
      <point x="142" y="1027" type="qcurve" smooth="yes"/>
      <point x="142" y="0" type="line"/>
      <point x="322" y="0" type="line"/>
      <point x="322" y="1021" type="line" smooth="yes"/>
      <point x="322" y="1183"/>
      <point x="461" y="1343"/>
      <point x="609" y="1343" type="qcurve" smooth="yes"/>
      <point x="718" y="1343"/>
      <point x="852" y="1250"/>
      <point x="852" y="1173" type="qcurve" smooth="yes"/>
      <point x="852" y="1123"/>
      <point x="799" y="1039"/>
      <point x="741" y="991" type="qcurve" smooth="yes"/>
      <point x="687" y="946"/>
      <point x="630" y="846"/>
      <point x="630" y="785" type="qcurve" smooth="yes"/>
      <point x="630" y="699"/>
      <point x="721" y="567"/>
      <point x="813" y="513" type="qcurve" smooth="yes"/>
      <point x="910" y="455"/>
      <point x="995" y="353"/>
      <point x="995" y="289" type="qcurve" smooth="yes"/>
      <point x="995" y="210"/>
      <point x="897" y="124"/>
      <point x="805" y="124" type="qcurve" smooth="yes"/>
      <point x="736" y="124"/>
      <point x="576" y="164"/>
      <point x="524" y="193" type="qcurve"/>
      <point x="526" y="29" type="line"/>
      <point x="638" y="-20"/>
      <point x="809" y="-20" type="qcurve" smooth="yes"/>
      <point x="979" y="-20"/>
      <point x="1167" y="145"/>
    </contour>
  </outline>
</glyph>
<glyph name="ae" format="2">
  <advance width="1821"/>
  <unicode hex="00E6"/>
  <note>
ae
</note>
  <outline>
    <contour>
      <point x="968" y="503" type="line"/>
      <point x="1730" y="503" type="line"/>
      <point x="1730" y="527" type="line" smooth="yes"/>
      <point x="1730" y="1102"/>
      <point x="1253" y="1102" type="qcurve" smooth="yes"/>
      <point x="1025" y="1102"/>
      <point x="907" y="963" type="qcurve"/>
      <point x="808" y="1102"/>
      <point x="558" y="1102" type="qcurve" smooth="yes"/>
      <point x="160" y="1102"/>
      <point x="114" y="810" type="qcurve"/>
      <point x="302" y="793" type="line"/>
      <point x="315" y="885"/>
      <point x="428" y="965"/>
      <point x="554" y="965" type="qcurve" smooth="yes"/>
      <point x="675" y="965"/>
      <point x="786" y="854"/>
      <point x="786" y="719" type="qcurve" smooth="yes"/>
      <point x="786" y="660" type="line"/>
      <point x="546" y="656" type="line" smooth="yes"/>
      <point x="304" y="652"/>
      <point x="66" y="476"/>
      <point x="66" y="302" type="qcurve" smooth="yes"/>
      <point x="66" y="152"/>
      <point x="235" y="-20"/>
      <point x="402" y="-20" type="qcurve" smooth="yes"/>
      <point x="548" y="-20"/>
      <point x="758" y="97"/>
      <point x="837" y="237" type="qcurve"/>
      <point x="939" y="-20"/>
      <point x="1260" y="-20" type="qcurve" smooth="yes"/>
      <point x="1604" y="-20"/>
      <point x="1701" y="236" type="qcurve"/>
      <point x="1543" y="281" type="line"/>
      <point x="1518" y="209"/>
      <point x="1377" y="115"/>
      <point x="1260" y="115" type="qcurve" smooth="yes"/>
      <point x="1120" y="115"/>
      <point x="970" y="305"/>
      <point x="968" y="486" type="qcurve" smooth="yes"/>
    </contour>
    <contour>
      <point x="786" y="534" type="line"/>
      <point x="786" y="445" type="line" smooth="yes"/>
      <point x="786" y="359"/>
      <point x="699" y="204"/>
      <point x="546" y="115"/>
      <point x="444" y="115" type="qcurve" smooth="yes"/>
      <point x="351" y="115"/>
      <point x="251" y="212"/>
      <point x="251" y="299" type="qcurve" smooth="yes"/>
      <point x="251" y="373"/>
      <point x="317" y="474"/>
      <point x="458" y="527"/>
      <point x="591" y="530" type="qcurve" smooth="yes"/>
    </contour>
    <contour>
      <point x="1544" y="641" type="qcurve"/>
      <point x="970" y="641" type="line"/>
      <point x="976" y="798"/>
      <point x="1123" y="969"/>
      <point x="1250" y="969" type="qcurve" smooth="yes"/>
      <point x="1385" y="969"/>
      <point x="1529" y="812"/>
    </contour>
  </outline>
</glyph>
<glyph name="eth" format="2">
  <advance width="1139"/>
  <unicode hex="00F0"/>
  <note>
eth
</note>
  <outline>
    <contour>
      <point x="566" y="-20" type="qcurve" smooth="yes"/>
      <point x="814" y="-20"/>
      <point x="1063" y="249"/>
      <point x="1063" y="510" type="qcurve" smooth="yes"/>
      <point x="1063" y="516" type="line" smooth="yes"/>
      <point x="1063" y="748"/>
      <point x="889" y="1154"/>
      <point x="718" y="1310" type="qcurve"/>
      <point x="929" y="1402" type="line"/>
      <point x="930" y="1514" type="line"/>
      <point x="624" y="1382" type="line"/>
      <point x="534" y="1448"/>
      <point x="454" y="1484" type="qcurve"/>
      <point x="245" y="1484" type="line"/>
      <point x="378" y="1413"/>
      <point x="487" y="1326" type="qcurve"/>
      <point x="269" y="1232" type="line"/>
      <point x="269" y="1118" type="line"/>
      <point x="570" y="1251" type="line"/>
      <point x="695" y="1137"/>
      <point x="804" y="920" type="qcurve"/>
      <point x="710" y="979"/>
      <point x="573" y="979" type="qcurve" smooth="yes"/>
      <point x="334" y="979"/>
      <point x="86" y="725"/>
      <point x="86" y="481" type="qcurve" smooth="yes"/>
      <point x="86" y="238"/>
      <point x="334" y="-20"/>
    </contour>
    <contour>
      <point x="874" y="481" type="qcurve" smooth="yes"/>
      <point x="874" y="288"/>
      <point x="725" y="113"/>
      <point x="564" y="113" type="qcurve" smooth="yes"/>
      <point x="419" y="113"/>
      <point x="275" y="291"/>
      <point x="275" y="481" type="qcurve" smooth="yes"/>
      <point x="275" y="672"/>
      <point x="420" y="846"/>
      <point x="577" y="846" type="qcurve" smooth="yes"/>
      <point x="733" y="846"/>
      <point x="874" y="673"/>
    </contour>
  </outline>
</glyph>
<glyph name="oslash" format="2">
  <advance width="1251"/>
  <unicode hex="00F8"/>
  <note>
oslash
</note>
  <outline>
    <contour>
      <point x="1112" y="542" type="qcurve" smooth="yes"/>
      <point x="1112" y="782"/>
      <point x="1031" y="915" type="qcurve"/>
      <point x="1204" y="1116" type="line"/>
      <point x="1037" y="1116" type="line"/>
      <point x="946" y="1011" type="line"/>
      <point x="831" y="1102"/>
      <point x="630" y="1102" type="qcurve" smooth="yes"/>
      <point x="145" y="1102"/>
      <point x="145" y="542" type="qcurve" smooth="yes"/>
      <point x="145" y="314"/>
      <point x="228" y="176" type="qcurve"/>
      <point x="44" y="-38" type="line"/>
      <point x="211" y="-38" type="line"/>
      <point x="311" y="78" type="line"/>
      <point x="429" y="-20"/>
      <point x="624" y="-20" type="qcurve" smooth="yes"/>
      <point x="862" y="-20"/>
      <point x="1112" y="258"/>
    </contour>
    <contour>
      <point x="923" y="542" type="qcurve" smooth="yes"/>
      <point x="923" y="321"/>
      <point x="784" y="113"/>
      <point x="622" y="113" type="qcurve" smooth="yes"/>
      <point x="485" y="113"/>
      <point x="417" y="201" type="qcurve"/>
      <point x="900" y="763" type="line"/>
      <point x="923" y="671"/>
    </contour>
    <contour>
      <point x="334" y="542" type="qcurve" smooth="yes"/>
      <point x="334" y="762"/>
      <point x="475" y="969"/>
      <point x="633" y="969" type="qcurve" smooth="yes"/>
      <point x="773" y="969"/>
      <point x="840" y="888" type="qcurve"/>
      <point x="358" y="327" type="line"/>
      <point x="334" y="412"/>
    </contour>
  </outline>
</glyph>
<glyph name="hbar" format="2">
  <advance width="1139"/>
  <unicode hex="0127"/>
  <note>
hbar
</note>
  <outline>
    <contour>
      <point x="317" y="857" type="qcurve"/>
      <point x="314" y="857" type="line"/>
      <point x="315" y="867"/>
      <point x="322" y="997"/>
      <point x="322" y="1058" type="qcurve" smooth="yes"/>
      <point x="322" y="1206" type="line"/>
      <point x="622" y="1206" type="line"/>
      <point x="622" y="1337" type="line"/>
      <point x="322" y="1337" type="line"/>
      <point x="322" y="1484" type="line"/>
      <point x="142" y="1484" type="line"/>
      <point x="142" y="1337" type="line"/>
      <point x="10" y="1337" type="line"/>
      <point x="10" y="1206" type="line"/>
      <point x="142" y="1206" type="line"/>
      <point x="142" y="0" type="line"/>
      <point x="322" y="0" type="line"/>
      <point x="322" y="598" type="line" smooth="yes"/>
      <point x="322" y="747"/>
      <point x="475" y="923"/>
      <point x="602" y="923" type="qcurve" smooth="yes"/>
      <point x="687" y="923"/>
      <point x="783" y="871"/>
      <point x="825" y="760"/>
      <point x="825" y="646" type="qcurve" smooth="yes"/>
      <point x="825" y="0" type="line"/>
      <point x="1006" y="0" type="line"/>
      <point x="1006" y="681" type="line" smooth="yes"/>
      <point x="1006" y="887"/>
      <point x="839" y="1062"/>
      <point x="663" y="1062" type="qcurve" smooth="yes"/>
      <point x="538" y="1062"/>
      <point x="375" y="963"/>
    </contour>
  </outline>
</glyph>
<glyph name="Eng" format="2">
  <advance width="1481"/>
  <unicode hex="014A"/>
  <note>
Eng
</note>
  <outline>
    <contour>
      <point x="941" y="-20" type="qcurve" smooth="yes"/>
      <point x="1085" y="-20"/>
      <point x="1255" y="93"/>
      <point x="1332" y="320"/>
      <point x="1332" y="542" type="qcurve" smooth="yes"/>
      <point x="1332" y="889" type="line" smooth="yes"/>
      <point x="1332" y="1171"/>
      <point x="1112" y="1429"/>
      <point x="866" y="1429" type="qcurve" smooth="yes"/>
      <point x="703" y="1429"/>
      <point x="432" y="1287"/>
      <point x="360" y="1158" type="qcurve"/>
      <point x="356" y="1158" type="line"/>
      <point x="356" y="1255"/>
      <point x="349" y="1409" type="qcurve"/>
      <point x="165" y="1409" type="line"/>
      <point x="169" y="1092" type="line"/>
      <point x="169" y="0" type="line"/>
      <point x="360" y="0" type="line"/>
      <point x="360" y="891" type="line" smooth="yes"/>
      <point x="360" y="992"/>
      <point x="481" y="1170"/>
      <point x="689" y="1274"/>
      <point x="808" y="1274" type="qcurve" smooth="yes"/>
      <point x="985" y="1274"/>
      <point x="1142" y="1081"/>
      <point x="1142" y="868" type="qcurve" smooth="yes"/>
      <point x="1142" y="546" type="line" smooth="yes"/>
      <point x="1142" y="374"/>
      <point x="1104" y="212"/>
      <point x="1019" y="133"/>
      <point x="946" y="133" type="qcurve" smooth="yes"/>
      <point x="840" y="133"/>
      <point x="750" y="243" type="qcurve"/>
      <point x="623" y="128" type="line"/>
      <point x="682" y="54"/>
      <point x="846" y="-20"/>
    </contour>
  </outline>
</glyph>
<glyph name="eng" format="2">
  <advance width="1139"/>
  <unicode hex="014B"/>
  <note>
eng
</note>
  <outline>
    <contour>
      <point x="769" y="-425" type="qcurve" smooth="yes"/>
      <point x="890" y="-425"/>
      <point x="1010" y="-285"/>
      <point x="1010" y="-134" type="qcurve" smooth="yes"/>
      <point x="1010" y="721" type="line" smooth="yes"/>
      <point x="1010" y="925"/>
      <point x="845" y="1102"/>
      <point x="667" y="1102" type="qcurve" smooth="yes"/>
      <point x="546" y="1102"/>
      <point x="383" y="1009"/>
      <point x="321" y="897" type="qcurve"/>
      <point x="318" y="897" type="line"/>
      <point x="316" y="976"/>
      <point x="313" y="1033"/>
      <point x="311" y="1077"/>
      <point x="310" y="1082" type="qcurve"/>
      <point x="140" y="1082" type="line"/>
      <point x="146" y="1040"/>
      <point x="146" y="851" type="qcurve" smooth="yes"/>
      <point x="146" y="0" type="line"/>
      <point x="326" y="0" type="line"/>
      <point x="326" y="627" type="line" smooth="yes"/>
      <point x="326" y="785"/>
      <point x="476" y="963"/>
      <point x="606" y="963" type="qcurve" smooth="yes"/>
      <point x="695" y="963"/>
      <point x="787" y="911"/>
      <point x="829" y="793"/>
      <point x="829" y="686" type="qcurve" smooth="yes"/>
      <point x="829" y="-107" type="line" smooth="yes"/>
      <point x="829" y="-211"/>
      <point x="773" y="-283"/>
      <point x="704" y="-283" type="qcurve"/>
      <point x="642" y="-277" type="line"/>
      <point x="642" y="-416" type="line"/>
      <point x="692" y="-425"/>
    </contour>
  </outline>
</glyph>
<glyph name="OE" format="2">
  <advance width="2048"/>
  <unicode hex="0152"/>
  <note>
OE
</note>
  <outline>
    <contour>
      <point x="999" y="0" type="qcurve"/>
      <point x="1958" y="0" type="line"/>
      <point x="1958" y="156" type="line"/>
      <point x="1114" y="156" type="line"/>
      <point x="1114" y="647" type="line"/>
      <point x="1857" y="647" type="line"/>
      <point x="1857" y="801" type="line"/>
      <point x="1114" y="801" type="line"/>
      <point x="1114" y="1253" type="line"/>
      <point x="1917" y="1253" type="line"/>
      <point x="1917" y="1409" type="line"/>
      <point x="1003" y="1409" type="line"/>
      <point x="898" y="1420"/>
      <point x="791" y="1420" type="qcurve" smooth="yes"/>
      <point x="465" y="1420"/>
      <point x="97" y="1043"/>
      <point x="97" y="711" type="qcurve" smooth="yes"/>
      <point x="97" y="376"/>
      <point x="466" y="-10"/>
      <point x="789" y="-10" type="qcurve" smooth="yes"/>
      <point x="932" y="-10"/>
    </contour>
    <contour>
      <point x="789" y="145" type="qcurve" smooth="yes"/>
      <point x="554" y="145"/>
      <point x="291" y="443"/>
      <point x="291" y="711" type="qcurve" smooth="yes"/>
      <point x="291" y="978"/>
      <point x="546" y="1264"/>
      <point x="791" y="1264" type="qcurve" smooth="yes"/>
      <point x="806" y="1264"/>
      <point x="879" y="1264"/>
      <point x="923" y="1260" type="qcurve"/>
      <point x="923" y="149" type="line"/>
      <point x="871" y="145"/>
    </contour>
  </outline>
</glyph>
<glyph name="oe" format="2">
  <advance width="1933"/>
  <unicode hex="0153"/>
  <note>
oe
</note>
  <outline>
    <contour>
      <point x="1070" y="503" type="qcurve"/>
      <point x="1842" y="503" type="line"/>
      <point x="1842" y="527" type="line" smooth="yes"/>
      <point x="1842" y="1102"/>
      <point x="1365" y="1102" type="qcurve" smooth="yes"/>
      <point x="1105" y="1102"/>
      <point x="979" y="925" type="qcurve"/>
      <point x="862" y="1102"/>
      <point x="581" y="1102" type="qcurve" smooth="yes"/>
      <point x="339" y="1102"/>
      <point x="86" y="821"/>
      <point x="86" y="542" type="qcurve" smooth="yes"/>
      <point x="86" y="269"/>
      <point x="337" y="-20"/>
      <point x="575" y="-20" type="qcurve" smooth="yes"/>
      <point x="852" y="-20"/>
      <point x="976" y="163" type="qcurve"/>
      <point x="1097" y="-20"/>
      <point x="1372" y="-20" type="qcurve" smooth="yes"/>
      <point x="1716" y="-20"/>
      <point x="1813" y="236" type="qcurve"/>
      <point x="1655" y="281" type="line"/>
      <point x="1630" y="209"/>
      <point x="1489" y="115"/>
      <point x="1372" y="115" type="qcurve" smooth="yes"/>
      <point x="1224" y="115"/>
      <point x="1070" y="317"/>
    </contour>
    <contour>
      <point x="881" y="542" type="qcurve" smooth="yes"/>
      <point x="881" y="321"/>
      <point x="737" y="113"/>
      <point x="573" y="113" type="qcurve" smooth="yes"/>
      <point x="275" y="113"/>
      <point x="275" y="542" type="qcurve" smooth="yes"/>
      <point x="275" y="756"/>
      <point x="422" y="969"/>
      <point x="584" y="969" type="qcurve" smooth="yes"/>
      <point x="743" y="969"/>
      <point x="881" y="761"/>
    </contour>
    <contour>
      <point x="1656" y="641" type="qcurve"/>
      <point x="1072" y="641" type="line"/>
      <point x="1078" y="794"/>
      <point x="1231" y="969"/>
      <point x="1362" y="969" type="qcurve" smooth="yes"/>
      <point x="1497" y="969"/>
      <point x="1641" y="812"/>
    </contour>
  </outline>
</glyph>
<glyph name="uni0181" format="2">
  <advance width="1553"/>
  <unicode hex="0181"/>
  <note>
uni0181
</note>
  <outline>
    <contour>
      <point x="1436" y="397" type="qcurve" smooth="yes"/>
      <point x="1436" y="538"/>
      <point x="1254" y="723"/>
      <point x="1086" y="743" type="qcurve"/>
      <point x="1214" y="772"/>
      <point x="1354" y="942"/>
      <point x="1354" y="1067" type="qcurve" smooth="yes"/>
      <point x="1354" y="1409"/>
      <point x="858" y="1409" type="qcurve" smooth="yes"/>
      <point x="346" y="1409" type="line" smooth="yes"/>
      <point x="192" y="1409"/>
      <point x="20" y="1265"/>
      <point x="20" y="1135" type="qcurve" smooth="yes"/>
      <point x="20" y="1074"/>
      <point x="37" y="1000" type="qcurve"/>
      <point x="192" y="1017" type="line"/>
      <point x="174" y="1073"/>
      <point x="174" y="1122" type="qcurve" smooth="yes"/>
      <point x="174" y="1193"/>
      <point x="240" y="1261"/>
      <point x="317" y="1261" type="qcurve" smooth="yes"/>
      <point x="346" y="1261" type="line"/>
      <point x="346" y="0" type="line"/>
      <point x="918" y="0" type="line" smooth="yes"/>
      <point x="1162" y="0"/>
      <point x="1436" y="209"/>
    </contour>
    <contour>
      <point x="1243" y="412" type="qcurve" smooth="yes"/>
      <point x="1243" y="283"/>
      <point x="1083" y="153"/>
      <point x="908" y="153" type="qcurve" smooth="yes"/>
      <point x="537" y="153" type="line"/>
      <point x="537" y="661" type="line"/>
      <point x="893" y="661" type="line" smooth="yes"/>
      <point x="1243" y="661"/>
    </contour>
    <contour>
      <point x="1162" y="1044" type="qcurve" smooth="yes"/>
      <point x="1162" y="925"/>
      <point x="1011" y="810"/>
      <point x="858" y="810" type="qcurve" smooth="yes"/>
      <point x="537" y="810" type="line"/>
      <point x="537" y="1256" type="line"/>
      <point x="858" y="1256" type="line" smooth="yes"/>
      <point x="1006" y="1256"/>
      <point x="1162" y="1158"/>
    </contour>
  </outline>
</glyph>
<glyph name="uni0184" format="2">
  <advance width="1344"/>
  <unicode hex="0184"/>
  <note>
uni0184
</note>
  <outline>
    <contour>
      <point x="1263" y="418" type="qcurve" smooth="yes"/>
      <point x="1263" y="608"/>
      <point x="1003" y="823"/>
      <point x="766" y="823" type="qcurve" smooth="yes"/>
      <point x="359" y="823" type="line"/>
      <point x="359" y="1409" type="line"/>
      <point x="303" y="1409" type="line"/>
      <point x="10" y="1209" type="line"/>
      <point x="10" y="1176" type="line"/>
      <point x="168" y="1011" type="line"/>
      <point x="168" y="0" type="line"/>
      <point x="778" y="0" type="line" smooth="yes"/>
      <point x="927" y="0"/>
      <point x="1146" y="105"/>
      <point x="1263" y="295"/>
    </contour>
    <contour>
      <point x="1071" y="416" type="qcurve" smooth="yes"/>
      <point x="1071" y="292"/>
      <point x="915" y="151"/>
      <point x="751" y="151" type="qcurve" smooth="yes"/>
      <point x="359" y="151" type="line"/>
      <point x="359" y="671" type="line"/>
      <point x="743" y="671" type="line" smooth="yes"/>
      <point x="906" y="671"/>
      <point x="1071" y="536"/>
    </contour>
  </outline>
</glyph>
<glyph name="uni018A" format="2">
  <advance width="1658"/>
  <unicode hex="018A"/>
  <note>
uni018A
</note>
  <outline>
    <contour>
      <point x="1559" y="719" type="qcurve" smooth="yes"/>
      <point x="1559" y="1050"/>
      <point x="1170" y="1409"/>
      <point x="812" y="1409" type="qcurve" smooth="yes"/>
      <point x="346" y="1409" type="line" smooth="yes"/>
      <point x="192" y="1409"/>
      <point x="20" y="1265"/>
      <point x="20" y="1135" type="qcurve" smooth="yes"/>
      <point x="20" y="1074"/>
      <point x="37" y="1000" type="qcurve"/>
      <point x="192" y="1017" type="line"/>
      <point x="174" y="1073"/>
      <point x="174" y="1122" type="qcurve" smooth="yes"/>
      <point x="174" y="1193"/>
      <point x="240" y="1261"/>
      <point x="317" y="1261" type="qcurve" smooth="yes"/>
      <point x="346" y="1261" type="line"/>
      <point x="346" y="0" type="line"/>
      <point x="873" y="0" type="line" smooth="yes"/>
      <point x="1077" y="0"/>
      <point x="1389" y="174"/>
      <point x="1559" y="501"/>
    </contour>
    <contour>
      <point x="1367" y="719" type="qcurve" smooth="yes"/>
      <point x="1367" y="545"/>
      <point x="1241" y="289"/>
      <point x="1006" y="153"/>
      <point x="851" y="153" type="qcurve" smooth="yes"/>
      <point x="537" y="153" type="line"/>
      <point x="537" y="1256" type="line"/>
      <point x="808" y="1256" type="line" smooth="yes"/>
      <point x="1080" y="1256"/>
      <point x="1367" y="981"/>
    </contour>
  </outline>
</glyph>
<glyph name="uni018B" format="2">
  <advance width="1344"/>
  <unicode hex="018B"/>
  <note>
uni018B
</note>
  <outline>
    <contour>
      <point x="81" y="413" type="qcurve" smooth="yes"/>
      <point x="81" y="226"/>
      <point x="340" y="0"/>
      <point x="566" y="0" type="qcurve" smooth="yes"/>
      <point x="1176" y="0" type="line"/>
      <point x="1176" y="1409" type="line"/>
      <point x="225" y="1409" type="line"/>
      <point x="225" y="1253" type="line"/>
      <point x="985" y="1253" type="line"/>
      <point x="985" y="813" type="line"/>
      <point x="578" y="813" type="line" smooth="yes"/>
      <point x="342" y="813"/>
      <point x="81" y="603"/>
    </contour>
    <contour>
      <point x="273" y="411" type="qcurve" smooth="yes"/>
      <point x="273" y="532"/>
      <point x="437" y="661"/>
      <point x="601" y="661" type="qcurve" smooth="yes"/>
      <point x="985" y="661" type="line"/>
      <point x="985" y="151" type="line"/>
      <point x="593" y="151" type="line" smooth="yes"/>
      <point x="429" y="151"/>
      <point x="273" y="287"/>
    </contour>
  </outline>
</glyph>
<glyph name="uni018C" format="2">
  <advance width="1139"/>
  <unicode hex="018C"/>
  <note>
uni018C
</note>
  <outline>
    <contour>
      <point x="82" y="546" type="qcurve" smooth="yes"/>
      <point x="82" y="-20"/>
      <point x="480" y="-20" type="qcurve" smooth="yes"/>
      <point x="603" y="-20"/>
      <point x="766" y="69"/>
      <point x="817" y="168" type="qcurve"/>
      <point x="819" y="168" type="line"/>
      <point x="819" y="137"/>
      <point x="827" y="9"/>
      <point x="829" y="0" type="qcurve"/>
      <point x="1003" y="0" type="line"/>
      <point x="997" y="54"/>
      <point x="997" y="223" type="qcurve" smooth="yes"/>
      <point x="997" y="1484" type="line"/>
      <point x="253" y="1484" type="line"/>
      <point x="253" y="1325" type="line"/>
      <point x="817" y="1325" type="line"/>
      <point x="817" y="1061" type="line" smooth="yes"/>
      <point x="817" y="996"/>
      <point x="821" y="908" type="qcurve"/>
      <point x="817" y="908" type="line"/>
      <point x="767" y="1012"/>
      <point x="602" y="1102"/>
      <point x="480" y="1102" type="qcurve" smooth="yes"/>
      <point x="275" y="1102"/>
      <point x="82" y="826"/>
    </contour>
    <contour>
      <point x="271" y="540" type="qcurve" smooth="yes"/>
      <point x="271" y="766"/>
      <point x="391" y="963"/>
      <point x="526" y="963" type="qcurve" smooth="yes"/>
      <point x="679" y="963"/>
      <point x="817" y="753"/>
      <point x="817" y="529" type="qcurve" smooth="yes"/>
      <point x="817" y="315"/>
      <point x="679" y="113"/>
      <point x="528" y="113" type="qcurve" smooth="yes"/>
      <point x="392" y="113"/>
      <point x="271" y="315"/>
    </contour>
  </outline>
</glyph>
<glyph name="uni018D" format="2">
  <advance width="1140"/>
  <unicode hex="018D"/>
  <note>
uni018D
</note>
  <outline>
    <contour>
      <point x="189" y="-280" type="line"/>
      <point x="189" y="-425" type="line"/>
      <point x="965" y="-425" type="line"/>
      <point x="965" y="-293" type="line"/>
      <point x="609" y="5" type="line"/>
      <point x="1053" y="30"/>
      <point x="1053" y="557" type="qcurve" smooth="yes"/>
      <point x="1053" y="840"/>
      <point x="822" y="1102"/>
      <point x="571" y="1102" type="qcurve" smooth="yes"/>
      <point x="329" y="1102"/>
      <point x="86" y="836"/>
      <point x="86" y="557" type="qcurve" smooth="yes"/>
      <point x="86" y="389"/>
      <point x="176" y="159"/>
      <point x="281" y="71" type="qcurve" smooth="yes"/>
      <point x="498" y="-104" type="line" smooth="yes"/>
      <point x="608" y="-191"/>
      <point x="708" y="-280" type="qcurve"/>
    </contour>
    <contour>
      <point x="864" y="557" type="qcurve" smooth="yes"/>
      <point x="864" y="407"/>
      <point x="801" y="222"/>
      <point x="676" y="137"/>
      <point x="563" y="137" type="qcurve" smooth="yes"/>
      <point x="412" y="137"/>
      <point x="275" y="345"/>
      <point x="275" y="557" type="qcurve" smooth="yes"/>
      <point x="275" y="773"/>
      <point x="413" y="969"/>
      <point x="574" y="969" type="qcurve" smooth="yes"/>
      <point x="734" y="969"/>
      <point x="864" y="777"/>
    </contour>
  </outline>
</glyph>
<glyph name="florin" format="2">
  <advance width="1139"/>
  <unicode hex="0192"/>
  <note>
florin
</note>
  <outline>
    <contour>
      <point x="854" y="1312" type="qcurve"/>
      <point x="854" y="1434" type="line"/>
      <point x="819" y="1444"/>
      <point x="737" y="1454"/>
      <point x="701" y="1454" type="qcurve" smooth="yes"/>
      <point x="568" y="1454"/>
      <point x="438" y="1314"/>
      <point x="438" y="1154" type="qcurve" smooth="yes"/>
      <point x="438" y="1022" type="line"/>
      <point x="285" y="1022" type="line"/>
      <point x="285" y="891" type="line"/>
      <point x="437" y="891" type="line"/>
      <point x="437" y="-456" type="line"/>
      <point x="617" y="-456" type="line"/>
      <point x="617" y="891" type="line"/>
      <point x="830" y="891" type="line"/>
      <point x="830" y="1022" type="line"/>
      <point x="619" y="1022" type="line"/>
      <point x="619" y="1159" type="line" smooth="yes"/>
      <point x="619" y="1250"/>
      <point x="679" y="1327"/>
      <point x="742" y="1327" type="qcurve" smooth="yes"/>
      <point x="775" y="1327"/>
      <point x="837" y="1317"/>
    </contour>
  </outline>
</glyph>
<glyph name="uni0193" format="2">
  <advance width="1593"/>
  <unicode hex="0193"/>
  <note>
uni0193
</note>
  <outline>
    <contour>
      <point x="1227" y="1044" type="qcurve"/>
      <point x="1409" y="1098" type="line"/>
      <point x="1409" y="1331" type="line" smooth="yes"/>
      <point x="1409" y="1408"/>
      <point x="1471" y="1479"/>
      <point x="1542" y="1479" type="qcurve" smooth="yes"/>
      <point x="1574" y="1479"/>
      <point x="1630" y="1461" type="qcurve"/>
      <point x="1630" y="1618" type="line"/>
      <point x="1564" y="1633"/>
      <point x="1510" y="1633" type="qcurve" smooth="yes"/>
      <point x="1388" y="1633"/>
      <point x="1251" y="1475"/>
      <point x="1251" y="1337" type="qcurve" smooth="yes"/>
      <point x="1251" y="1307" type="line"/>
      <point x="1093" y="1430"/>
      <point x="804" y="1430" type="qcurve" smooth="yes"/>
      <point x="471" y="1430"/>
      <point x="103" y="1054"/>
      <point x="103" y="711" type="qcurve" smooth="yes"/>
      <point x="103" y="487"/>
      <point x="272" y="156"/>
      <point x="592" y="-20"/>
      <point x="813" y="-20" type="qcurve" smooth="yes"/>
      <point x="1003" y="-20"/>
      <point x="1328" y="105"/>
      <point x="1440" y="219" type="qcurve"/>
      <point x="1440" y="705" type="line"/>
      <point x="843" y="705" type="line"/>
      <point x="843" y="545" type="line"/>
      <point x="1264" y="545" type="line"/>
      <point x="1264" y="291" type="line"/>
      <point x="1190" y="219"/>
      <point x="951" y="135"/>
      <point x="813" y="135" type="qcurve" smooth="yes"/>
      <point x="571" y="135"/>
      <point x="297" y="444"/>
      <point x="297" y="711" type="qcurve" smooth="yes"/>
      <point x="297" y="979"/>
      <point x="555" y="1274"/>
      <point x="799" y="1274" type="qcurve" smooth="yes"/>
      <point x="956" y="1274"/>
      <point x="1167" y="1164"/>
    </contour>
  </outline>
</glyph>
<glyph name="uni0194" format="2">
  <advance width="1278"/>
  <unicode hex="0194"/>
  <note>
uni0194
</note>
  <outline>
    <contour>
      <point x="641" y="-425" type="qcurve" smooth="yes"/>
      <point x="757" y="-425"/>
      <point x="890" y="-281"/>
      <point x="890" y="-160" type="qcurve" smooth="yes"/>
      <point x="890" y="-95"/>
      <point x="827" y="85"/>
      <point x="738" y="247" type="qcurve"/>
      <point x="1268" y="1409" type="line"/>
      <point x="1067" y="1409" type="line"/>
      <point x="640" y="408" type="line"/>
      <point x="211" y="1409" type="line"/>
      <point x="10" y="1409" type="line"/>
      <point x="540" y="247" type="line"/>
      <point x="461" y="95"/>
      <point x="419" y="-10"/>
      <point x="392" y="-115"/>
      <point x="392" y="-160" type="qcurve" smooth="yes"/>
      <point x="392" y="-282"/>
      <point x="526" y="-425"/>
    </contour>
    <contour>
      <point x="727" y="-163" type="qcurve" smooth="yes"/>
      <point x="727" y="-217"/>
      <point x="681" y="-275"/>
      <point x="641" y="-275" type="qcurve" smooth="yes"/>
      <point x="601" y="-275"/>
      <point x="555" y="-216"/>
      <point x="555" y="-163" type="qcurve" smooth="yes"/>
      <point x="555" y="-105"/>
      <point x="607" y="59"/>
      <point x="641" y="130" type="qcurve"/>
      <point x="675" y="59"/>
      <point x="727" y="-106"/>
    </contour>
  </outline>
</glyph>
<glyph name="uni0195" format="2">
  <advance width="1804"/>
  <unicode hex="0195"/>
  <note>
uni0195
</note>
  <outline>
    <contour>
      <point x="1256" y="-20" type="qcurve" smooth="yes"/>
      <point x="1455" y="-20"/>
      <point x="1668" y="185"/>
      <point x="1668" y="365" type="qcurve" smooth="yes"/>
      <point x="1668" y="1082" type="line"/>
      <point x="1487" y="1082" type="line"/>
      <point x="1487" y="394" type="line" smooth="yes"/>
      <point x="1487" y="238"/>
      <point x="1379" y="117"/>
      <point x="1257" y="117" type="qcurve" smooth="yes"/>
      <point x="1136" y="117"/>
      <point x="1026" y="238"/>
      <point x="1026" y="394" type="qcurve" smooth="yes"/>
      <point x="1026" y="721" type="line" smooth="yes"/>
      <point x="1026" y="916"/>
      <point x="846" y="1102"/>
      <point x="663" y="1102" type="qcurve" smooth="yes"/>
      <point x="416" y="1102"/>
      <point x="317" y="897" type="qcurve"/>
      <point x="314" y="897" type="line"/>
      <point x="315" y="907"/>
      <point x="322" y="1037"/>
      <point x="322" y="1098" type="qcurve" smooth="yes"/>
      <point x="322" y="1484" type="line"/>
      <point x="142" y="1484" type="line"/>
      <point x="142" y="0" type="line"/>
      <point x="322" y="0" type="line"/>
      <point x="322" y="638" type="line" smooth="yes"/>
      <point x="322" y="787"/>
      <point x="475" y="963"/>
      <point x="602" y="963" type="qcurve" smooth="yes"/>
      <point x="730" y="963"/>
      <point x="845" y="839"/>
      <point x="845" y="686" type="qcurve" smooth="yes"/>
      <point x="845" y="361" type="line" smooth="yes"/>
      <point x="845" y="181"/>
      <point x="1057" y="-20"/>
    </contour>
  </outline>
</glyph>
<glyph name="uni0199" format="2">
  <advance width="1024"/>
  <unicode hex="0199"/>
  <note>
uni0199
</note>
  <outline>
    <contour>
      <point x="793" y="1082" type="line"/>
      <point x="318" y="557" type="line"/>
      <point x="318" y="1188" type="line" smooth="yes"/>
      <point x="318" y="1336"/>
      <point x="446" y="1336" type="qcurve" smooth="yes"/>
      <point x="512" y="1336"/>
      <point x="562" y="1318" type="qcurve"/>
      <point x="562" y="1483" type="line"/>
      <point x="496" y="1498"/>
      <point x="430" y="1498" type="qcurve" smooth="yes"/>
      <point x="290" y="1498"/>
      <point x="138" y="1345"/>
      <point x="138" y="1202" type="qcurve" smooth="yes"/>
      <point x="138" y="0" type="line"/>
      <point x="318" y="0" type="line"/>
      <point x="318" y="385" type="line"/>
      <point x="450" y="494" type="line"/>
      <point x="816" y="0" type="line"/>
      <point x="1027" y="0" type="line"/>
      <point x="565" y="617" type="line"/>
      <point x="1004" y="1082" type="line"/>
    </contour>
  </outline>
</glyph>
<glyph name="uni019B" format="2">
  <advance width="1024"/>
  <unicode hex="019B"/>
  <note>
uni019B
</note>
  <outline>
    <contour>
      <point x="714" y="1275" type="line"/>
      <point x="668" y="1394" type="line"/>
      <point x="511" y="1337" type="line"/>
      <point x="457" y="1484" type="line"/>
      <point x="280" y="1484" type="line"/>
      <point x="353" y="1279" type="line"/>
      <point x="165" y="1210" type="line"/>
      <point x="211" y="1092" type="line"/>
      <point x="395" y="1159" type="line"/>
      <point x="463" y="970" type="line"/>
      <point x="14" y="0" type="line"/>
      <point x="201" y="0" type="line"/>
      <point x="486" y="638"/>
      <point x="529" y="745"/>
      <point x="544" y="791" type="qcurve"/>
      <point x="568" y="689"/>
      <point x="609" y="577" type="qcurve" smooth="yes"/>
      <point x="816" y="0" type="line"/>
      <point x="1006" y="0" type="line"/>
      <point x="555" y="1217" type="line"/>
    </contour>
  </outline>
</glyph>
<glyph name="uni019D" format="2">
  <advance width="1479"/>
  <unicode hex="019D"/>
  <note>
uni019D
</note>
  <outline>
    <contour>
      <point x="168" y="1409" type="line"/>
      <point x="167" y="-109" type="line" smooth="yes"/>
      <point x="167" y="-266"/>
      <point x="52" y="-266" type="qcurve" smooth="yes"/>
      <point x="-4" y="-266"/>
      <point x="-48" y="-252" type="qcurve"/>
      <point x="-48" y="-414" type="line"/>
      <point x="1" y="-425"/>
      <point x="73" y="-425" type="qcurve" smooth="yes"/>
      <point x="203" y="-425"/>
      <point x="338" y="-274"/>
      <point x="338" y="-130" type="qcurve" smooth="yes"/>
      <point x="338" y="936" type="line"/>
      <point x="333" y="1103" type="line"/>
      <point x="328" y="1200" type="line"/>
      <point x="1082" y="0" type="line"/>
      <point x="1312" y="0" type="line"/>
      <point x="1312" y="1409" type="line"/>
      <point x="1140" y="1409" type="line"/>
      <point x="1140" y="485" type="line" smooth="yes"/>
      <point x="1140" y="397"/>
      <point x="1152" y="201" type="qcurve"/>
      <point x="390" y="1409" type="line"/>
    </contour>
  </outline>
</glyph>
<glyph name="Ohorn" format="2">
  <advance width="1756"/>
  <unicode hex="01A0"/>
  <note>
Ohorn
</note>
  <outline>
    <contour>
      <point x="1495" y="711" type="qcurve" smooth="yes"/>
      <point x="1495" y="830"/>
      <point x="1469" y="936" type="qcurve"/>
      <point x="1594" y="997"/>
      <point x="1709" y="1180"/>
      <point x="1709" y="1303" type="qcurve" smooth="yes"/>
      <point x="1709" y="1409" type="line"/>
      <point x="1514" y="1409" type="line"/>
      <point x="1514" y="1242" type="line"/>
      <point x="1602" y="1242" type="line"/>
      <point x="1602" y="1169"/>
      <point x="1533" y="1063"/>
      <point x="1445" y="1019" type="qcurve"/>
      <point x="1373" y="1215"/>
      <point x="1041" y="1430"/>
      <point x="797" y="1430" type="qcurve" smooth="yes"/>
      <point x="467" y="1430"/>
      <point x="97" y="1049"/>
      <point x="97" y="711" type="qcurve" smooth="yes"/>
      <point x="97" y="489"/>
      <point x="263" y="156"/>
      <point x="578" y="-20"/>
      <point x="795" y="-20" type="qcurve" smooth="yes"/>
      <point x="1010" y="-20"/>
      <point x="1326" y="158"/>
      <point x="1495" y="490"/>
    </contour>
    <contour>
      <point x="1300" y="711" type="qcurve" smooth="yes"/>
      <point x="1300" y="436"/>
      <point x="1039" y="135"/>
      <point x="795" y="135" type="qcurve" smooth="yes"/>
      <point x="558" y="135"/>
      <point x="291" y="446"/>
      <point x="291" y="711" type="qcurve" smooth="yes"/>
      <point x="291" y="978"/>
      <point x="555" y="1274"/>
      <point x="797" y="1274" type="qcurve" smooth="yes"/>
      <point x="1037" y="1274"/>
      <point x="1300" y="974"/>
    </contour>
  </outline>
</glyph>
<glyph name="uni01A2" format="2">
  <advance width="1778"/>
  <unicode hex="01A2"/>
  <note>
uni01A2
</note>
  <outline>
    <contour>
      <point x="1206" y="85" type="qcurve"/>
      <point x="1206" y="1223" type="line"/>
      <point x="1432" y="1221" type="line"/>
      <point x="1432" y="-424" type="line"/>
      <point x="1612" y="-424" type="line"/>
      <point x="1612" y="1423" type="line"/>
      <point x="1569" y="1423" type="line"/>
      <point x="1155" y="1359" type="line"/>
      <point x="952" y="1430"/>
      <point x="789" y="1430" type="qcurve" smooth="yes"/>
      <point x="577" y="1430"/>
      <point x="263" y="1258"/>
      <point x="97" y="931"/>
      <point x="97" y="711" type="qcurve" smooth="yes"/>
      <point x="97" y="490"/>
      <point x="262" y="158"/>
      <point x="574" y="-20"/>
      <point x="787" y="-20" type="qcurve" smooth="yes"/>
      <point x="906" y="-20"/>
      <point x="1097" y="33"/>
    </contour>
    <contour>
      <point x="1026" y="1228" type="qcurve"/>
      <point x="1026" y="181" type="line"/>
      <point x="925" y="135"/>
      <point x="787" y="135" type="qcurve" smooth="yes"/>
      <point x="556" y="135"/>
      <point x="291" y="447"/>
      <point x="291" y="711" type="qcurve" smooth="yes"/>
      <point x="291" y="974"/>
      <point x="553" y="1274"/>
      <point x="789" y="1274" type="qcurve" smooth="yes"/>
      <point x="926" y="1274"/>
    </contour>
  </outline>
</glyph>
<glyph name="uni01A3" format="2">
  <advance width="1367"/>
  <unicode hex="01A3"/>
  <note>
uni01A3
</note>
  <outline>
    <contour>
      <point x="1045" y="-425" type="line"/>
      <point x="1220" y="-425" type="line"/>
      <point x="1220" y="1093" type="line"/>
      <point x="1177" y="1093" type="line"/>
      <point x="853" y="1028" type="line"/>
      <point x="802" y="1059"/>
      <point x="653" y="1102"/>
      <point x="571" y="1102" type="qcurve" smooth="yes"/>
      <point x="86" y="1102"/>
      <point x="86" y="542" type="qcurve" smooth="yes"/>
      <point x="86" y="269"/>
      <point x="328" y="-20"/>
      <point x="565" y="-20" type="qcurve" smooth="yes"/>
      <point x="646" y="-20"/>
      <point x="799" y="24"/>
      <point x="856" y="63" type="qcurve"/>
      <point x="856" y="918" type="line"/>
      <point x="1045" y="918" type="line"/>
    </contour>
    <contour>
      <point x="574" y="969" type="qcurve" smooth="yes"/>
      <point x="630" y="969"/>
      <point x="682" y="949" type="qcurve"/>
      <point x="683" y="135" type="line"/>
      <point x="627" y="113"/>
      <point x="563" y="113" type="qcurve" smooth="yes"/>
      <point x="414" y="113"/>
      <point x="275" y="328"/>
      <point x="275" y="542" type="qcurve" smooth="yes"/>
      <point x="275" y="762"/>
      <point x="416" y="969"/>
    </contour>
  </outline>
</glyph>
<glyph name="uni01A5" format="2">
  <advance width="1139"/>
  <unicode hex="01A5"/>
  <note>
uni01A5
</note>
  <outline>
    <contour>
      <point x="1053" y="546" type="qcurve" smooth="yes"/>
      <point x="1053" y="833"/>
      <point x="855" y="1101"/>
      <point x="655" y="1101" type="qcurve" smooth="yes"/>
      <point x="526" y="1101"/>
      <point x="368" y="1008"/>
      <point x="320" y="908" type="qcurve"/>
      <point x="316" y="908" type="line"/>
      <point x="316" y="1188" type="line" smooth="yes"/>
      <point x="316" y="1336"/>
      <point x="441" y="1336" type="qcurve" smooth="yes"/>
      <point x="501" y="1336"/>
      <point x="557" y="1316" type="qcurve"/>
      <point x="557" y="1482" type="line"/>
      <point x="520" y="1490" type="line" smooth="yes"/>
      <point x="481" y="1498"/>
      <point x="427" y="1498" type="qcurve" smooth="yes"/>
      <point x="284" y="1498"/>
      <point x="138" y="1347"/>
      <point x="138" y="1202" type="qcurve" smooth="yes"/>
      <point x="138" y="-425" type="line"/>
      <point x="318" y="-425" type="line"/>
      <point x="318" y="-2" type="line" smooth="yes"/>
      <point x="318" y="160"/>
      <point x="314" y="168" type="qcurve"/>
      <point x="319" y="168" type="line"/>
      <point x="405" y="-20"/>
      <point x="655" y="-20" type="qcurve" smooth="yes"/>
      <point x="1053" y="-20"/>
    </contour>
    <contour>
      <point x="864" y="542" type="qcurve" smooth="yes"/>
      <point x="864" y="310"/>
      <point x="741" y="113"/>
      <point x="607" y="113" type="qcurve" smooth="yes"/>
      <point x="454" y="113"/>
      <point x="318" y="315"/>
      <point x="318" y="528" type="qcurve" smooth="yes"/>
      <point x="318" y="681"/>
      <point x="381" y="872"/>
      <point x="502" y="962"/>
      <point x="609" y="962" type="qcurve" smooth="yes"/>
      <point x="742" y="962"/>
      <point x="864" y="768"/>
    </contour>
  </outline>
</glyph>
<glyph name="uni01A6" format="2">
  <advance width="1366"/>
  <unicode hex="01A6"/>
  <note>
uni01A6
</note>
  <outline>
    <contour>
      <point x="1127" y="-319" type="line"/>
      <point x="1347" y="-319" type="line"/>
      <point x="926" y="453" type="line"/>
      <point x="1087" y="481"/>
      <point x="1270" y="695"/>
      <point x="1270" y="852" type="qcurve" smooth="yes"/>
      <point x="1270" y="1042"/>
      <point x="1011" y="1255"/>
      <point x="773" y="1255" type="qcurve" smooth="yes"/>
      <point x="355" y="1255" type="line"/>
      <point x="355" y="1409" type="line"/>
      <point x="168" y="1409" type="line"/>
      <point x="168" y="0" type="line"/>
      <point x="359" y="0" type="line"/>
      <point x="359" y="431" type="line"/>
      <point x="740" y="431" type="line"/>
    </contour>
    <contour>
      <point x="1078" y="850" type="qcurve" smooth="yes"/>
      <point x="1078" y="723"/>
      <point x="913" y="582"/>
      <point x="762" y="582" type="qcurve" smooth="yes"/>
      <point x="359" y="582" type="line"/>
      <point x="359" y="1102" type="line"/>
      <point x="754" y="1102" type="line" smooth="yes"/>
      <point x="911" y="1102"/>
      <point x="1078" y="973"/>
    </contour>
  </outline>
</glyph>
<glyph name="uni01A8" format="2">
  <advance width="1024"/>
  <unicode hex="01A8"/>
  <note>
uni01A8
</note>
  <outline>
    <contour>
      <point x="79" y="299" type="qcurve" smooth="yes"/>
      <point x="79" y="147"/>
      <point x="304" y="-20"/>
      <point x="498" y="-20" type="qcurve" smooth="yes"/>
      <point x="887" y="-20"/>
      <point x="963" y="294" type="qcurve"/>
      <point x="804" y="325" type="line"/>
      <point x="746" y="117"/>
      <point x="498" y="117" type="qcurve" smooth="yes"/>
      <point x="254" y="117"/>
      <point x="254" y="285" type="qcurve" smooth="yes"/>
      <point x="254" y="336"/>
      <point x="305" y="403"/>
      <point x="405" y="450"/>
      <point x="567" y="489" type="qcurve" smooth="yes"/>
      <point x="712" y="523"/>
      <point x="851" y="601"/>
      <point x="927" y="714"/>
      <point x="927" y="796" type="qcurve" smooth="yes"/>
      <point x="927" y="943"/>
      <point x="722" y="1099"/>
      <point x="539" y="1099" type="qcurve" smooth="yes"/>
      <point x="356" y="1099"/>
      <point x="146" y="952"/>
      <point x="115" y="801" type="qcurve"/>
      <point x="277" y="781" type="line"/>
      <point x="297" y="877"/>
      <point x="427" y="963"/>
      <point x="538" y="963" type="qcurve" smooth="yes"/>
      <point x="752" y="963"/>
      <point x="752" y="814" type="qcurve" smooth="yes"/>
      <point x="752" y="768"/>
      <point x="703" y="707"/>
      <point x="611" y="664"/>
      <point x="459" y="629" type="qcurve" smooth="yes"/>
      <point x="306" y="594"/>
      <point x="160" y="513"/>
      <point x="79" y="390"/>
    </contour>
  </outline>
</glyph>
<glyph name="uni01AA" format="2">
  <advance width="779"/>
  <unicode hex="01AA"/>
  <note>
uni01AA
</note>
  <outline>
    <contour>
      <point x="67" y="1302" type="qcurve" smooth="yes"/>
      <point x="67" y="1222"/>
      <point x="171" y="1119"/>
      <point x="255" y="1119" type="qcurve" smooth="yes"/>
      <point x="282" y="1119"/>
      <point x="343" y="1137"/>
      <point x="358" y="1148" type="qcurve"/>
      <point x="358" y="-129" type="line" smooth="yes"/>
      <point x="358" y="-272"/>
      <point x="499" y="-425"/>
      <point x="627" y="-425" type="qcurve" smooth="yes"/>
      <point x="692" y="-425"/>
      <point x="761" y="-412" type="qcurve"/>
      <point x="761" y="-254" type="line"/>
      <point x="709" y="-267"/>
      <point x="655" y="-267" type="qcurve" smooth="yes"/>
      <point x="597" y="-267"/>
      <point x="538" y="-192"/>
      <point x="538" y="-124" type="qcurve" smooth="yes"/>
      <point x="538" y="1204" type="line" smooth="yes"/>
      <point x="538" y="1341"/>
      <point x="406" y="1493"/>
      <point x="272" y="1493" type="qcurve" smooth="yes"/>
      <point x="178" y="1493"/>
      <point x="67" y="1392"/>
    </contour>
    <contour>
      <point x="144" y="1307" type="qcurve" smooth="yes"/>
      <point x="144" y="1355"/>
      <point x="204" y="1415"/>
      <point x="252" y="1415" type="qcurve" smooth="yes"/>
      <point x="302" y="1415"/>
      <point x="361" y="1355"/>
      <point x="361" y="1307" type="qcurve" smooth="yes"/>
      <point x="361" y="1258"/>
      <point x="301" y="1198"/>
      <point x="252" y="1198" type="qcurve" smooth="yes"/>
      <point x="204" y="1198"/>
      <point x="144" y="1258"/>
    </contour>
  </outline>
</glyph>
<glyph name="uni01AC" format="2">
  <advance width="1251"/>
  <unicode hex="01AC"/>
  <note>
uni01AC
</note>
  <outline>
    <contour>
      <point x="720" y="1253" type="line"/>
      <point x="1204" y="1253" type="line"/>
      <point x="1204" y="1409" type="line"/>
      <point x="326" y="1409" type="line" smooth="yes"/>
      <point x="175" y="1409"/>
      <point x="20" y="1269"/>
      <point x="20" y="1135" type="qcurve" smooth="yes"/>
      <point x="20" y="1074"/>
      <point x="37" y="1000" type="qcurve"/>
      <point x="192" y="1017" type="line"/>
      <point x="174" y="1073"/>
      <point x="174" y="1122" type="qcurve" smooth="yes"/>
      <point x="174" y="1193"/>
      <point x="240" y="1253"/>
      <point x="317" y="1253" type="qcurve" smooth="yes"/>
      <point x="530" y="1253" type="line"/>
      <point x="530" y="0" type="line"/>
      <point x="720" y="0" type="line"/>
    </contour>
  </outline>
</glyph>
<glyph name="uni01AE" format="2">
  <advance width="1251"/>
  <unicode hex="01AE"/>
  <note>
uni01AE
</note>
  <outline>
    <contour>
      <point x="46" y="1253" type="line"/>
      <point x="530" y="1253" type="line"/>
      <point x="530" y="-141" type="line" smooth="yes"/>
      <point x="530" y="-277"/>
      <point x="669" y="-425"/>
      <point x="798" y="-425" type="qcurve" smooth="yes"/>
      <point x="860" y="-425"/>
      <point x="930" y="-408" type="qcurve"/>
      <point x="930" y="-250" type="line"/>
      <point x="880" y="-266"/>
      <point x="820" y="-266" type="qcurve" smooth="yes"/>
      <point x="768" y="-266"/>
      <point x="720" y="-190"/>
      <point x="720" y="-109" type="qcurve" smooth="yes"/>
      <point x="720" y="1253" type="line"/>
      <point x="1204" y="1253" type="line"/>
      <point x="1204" y="1409" type="line"/>
      <point x="46" y="1409" type="line"/>
    </contour>
  </outline>
</glyph>
<glyph name="uni01B2" format="2">
  <advance width="1479"/>
  <unicode hex="01B2"/>
  <note>
uni01B2
</note>
  <outline>
    <contour>
      <point x="703" y="-20" type="qcurve" smooth="yes"/>
      <point x="909" y="-20"/>
      <point x="1183" y="186"/>
      <point x="1318" y="605"/>
      <point x="1318" y="980" type="qcurve" smooth="yes"/>
      <point x="1318" y="1197"/>
      <point x="1150" y="1421"/>
      <point x="989" y="1421" type="qcurve" smooth="yes"/>
      <point x="911" y="1421"/>
      <point x="844" y="1409" type="qcurve"/>
      <point x="851" y="1252" type="line"/>
      <point x="901" y="1262"/>
      <point x="959" y="1262" type="qcurve" smooth="yes"/>
      <point x="1050" y="1262"/>
      <point x="1128" y="1118"/>
      <point x="1128" y="949" type="qcurve" smooth="yes"/>
      <point x="1128" y="539"/>
      <point x="919" y="135"/>
      <point x="719" y="135" type="qcurve" smooth="yes"/>
      <point x="542" y="135"/>
      <point x="349" y="358"/>
      <point x="349" y="558" type="qcurve" smooth="yes"/>
      <point x="349" y="1409" type="line"/>
      <point x="158" y="1409" type="line"/>
      <point x="158" y="542" type="line" smooth="yes"/>
      <point x="158" y="362"/>
      <point x="293" y="111"/>
      <point x="538" y="-20"/>
    </contour>
  </outline>
</glyph>
<glyph name="uni01B4" format="2">
  <advance width="1024"/>
  <unicode hex="01B4"/>
  <note>
uni01B4
</note>
  <outline>
    <contour>
      <point x="191" y="-425" type="qcurve" smooth="yes"/>
      <point x="324" y="-425"/>
      <point x="511" y="-239"/>
      <point x="604" y="0" type="qcurve" smooth="yes"/>
      <point x="1048" y="1196" type="line" smooth="yes"/>
      <point x="1099" y="1333"/>
      <point x="1196" y="1333" type="qcurve" smooth="yes"/>
      <point x="1268" y="1333"/>
      <point x="1336" y="1271" type="qcurve"/>
      <point x="1418" y="1399" type="line"/>
      <point x="1310" y="1492"/>
      <point x="1180" y="1492" type="qcurve" smooth="yes"/>
      <point x="1099" y="1492"/>
      <point x="1000" y="1444"/>
      <point x="923" y="1338"/>
      <point x="891" y="1249" type="qcurve" smooth="yes"/>
      <point x="593" y="393" type="line"/>
      <point x="523" y="196" type="line"/>
      <point x="520" y="209"/>
      <point x="444" y="431"/>
      <point x="430" y="470"/>
      <point x="425" y="484" type="qcurve" smooth="yes"/>
      <point x="197" y="1082" type="line"/>
      <point x="5" y="1082" type="line"/>
      <point x="434" y="5" type="line"/>
      <point x="417" y="-38" type="line" smooth="yes"/>
      <point x="319" y="-285"/>
      <point x="151" y="-285" type="qcurve" smooth="yes"/>
      <point x="105" y="-285"/>
      <point x="67" y="-279" type="qcurve"/>
      <point x="67" y="-414" type="line"/>
      <point x="117" y="-425"/>
    </contour>
  </outline>
</glyph>
<glyph name="uni01B9" format="2">
  <advance width="1116"/>
  <unicode hex="01B9"/>
  <note>
uni01B9
</note>
  <outline>
    <contour>
      <point x="1012" y="942" type="line"/>
      <point x="1012" y="1083" type="line"/>
      <point x="129" y="1083" type="line"/>
      <point x="129" y="905" type="line"/>
      <point x="498" y="540" type="line"/>
      <point x="309" y="515"/>
      <point x="93" y="262"/>
      <point x="93" y="69" type="qcurve" smooth="yes"/>
      <point x="93" y="-70"/>
      <point x="210" y="-298"/>
      <point x="426" y="-427"/>
      <point x="567" y="-427" type="qcurve" smooth="yes"/>
      <point x="782" y="-427"/>
      <point x="1037" y="-235"/>
      <point x="1060" y="-48" type="qcurve"/>
      <point x="882" y="-36" type="line"/>
      <point x="864" y="-166"/>
      <point x="712" y="-286"/>
      <point x="573" y="-286" type="qcurve" smooth="yes"/>
      <point x="492" y="-286"/>
      <point x="355" y="-188"/>
      <point x="274" y="-17"/>
      <point x="274" y="75" type="qcurve" smooth="yes"/>
      <point x="274" y="227"/>
      <point x="464" y="411"/>
      <point x="620" y="411" type="qcurve" smooth="yes"/>
      <point x="702" y="411" type="line"/>
      <point x="702" y="555" type="line"/>
      <point x="319" y="942" type="line"/>
    </contour>
  </outline>
</glyph>
<glyph name="uni01BE" format="2">
  <advance width="997"/>
  <unicode hex="01BE"/>
  <note>
uni01BE
</note>
  <outline>
    <contour>
      <point x="347" y="951" type="line"/>
      <point x="532" y="951" type="line"/>
      <point x="532" y="1082" type="line"/>
      <point x="347" y="1082" type="line"/>
      <point x="347" y="1507" type="line"/>
      <point x="168" y="1429" type="line"/>
      <point x="168" y="1082" type="line"/>
      <point x="36" y="1082" type="line"/>
      <point x="36" y="951" type="line"/>
      <point x="167" y="951" type="line"/>
      <point x="167" y="826" type="line" smooth="yes"/>
      <point x="167" y="689"/>
      <point x="295" y="532"/>
      <point x="460" y="489" type="qcurve" smooth="yes"/>
      <point x="530" y="470"/>
      <point x="637" y="439"/>
      <point x="709" y="397"/>
      <point x="745" y="334"/>
      <point x="745" y="285" type="qcurve" smooth="yes"/>
      <point x="745" y="197"/>
      <point x="639" y="117"/>
      <point x="511" y="117" type="qcurve" smooth="yes"/>
      <point x="383" y="117"/>
      <point x="239" y="198"/>
      <point x="216" y="285" type="qcurve"/>
      <point x="57" y="254" type="line"/>
      <point x="90" y="113"/>
      <point x="309" y="-20"/>
      <point x="511" y="-20" type="qcurve" smooth="yes"/>
      <point x="720" y="-20"/>
      <point x="920" y="147"/>
      <point x="920" y="299" type="qcurve" smooth="yes"/>
      <point x="920" y="354"/>
      <point x="893" y="436"/>
      <point x="843" y="503"/>
      <point x="771" y="553"/>
      <point x="669" y="595"/>
      <point x="538" y="629" type="qcurve" smooth="yes"/>
      <point x="462" y="647"/>
      <point x="380" y="692"/>
      <point x="347" y="760"/>
      <point x="347" y="844" type="qcurve" smooth="yes"/>
    </contour>
  </outline>
</glyph>
<glyph name="uni01DD" format="2">
  <advance width="1139"/>
  <unicode hex="01DD"/>
  <note>
uni01DD
</note>
  <outline>
    <contour>
      <point x="858" y="579" type="qcurve"/>
      <point x="86" y="579" type="line"/>
      <point x="86" y="555" type="line" smooth="yes"/>
      <point x="86" y="-20"/>
      <point x="563" y="-20" type="qcurve" smooth="yes"/>
      <point x="796" y="-20"/>
      <point x="1047" y="266"/>
      <point x="1047" y="534" type="qcurve" smooth="yes"/>
      <point x="1047" y="816"/>
      <point x="796" y="1102"/>
      <point x="556" y="1102" type="qcurve" smooth="yes"/>
      <point x="212" y="1102"/>
      <point x="115" y="846" type="qcurve"/>
      <point x="273" y="801" type="line"/>
      <point x="298" y="873"/>
      <point x="439" y="967"/>
      <point x="556" y="967" type="qcurve" smooth="yes"/>
      <point x="704" y="967"/>
      <point x="858" y="765"/>
    </contour>
    <contour>
      <point x="272" y="441" type="qcurve"/>
      <point x="856" y="441" type="line"/>
      <point x="850" y="288"/>
      <point x="697" y="113"/>
      <point x="566" y="113" type="qcurve" smooth="yes"/>
      <point x="431" y="113"/>
      <point x="287" y="270"/>
    </contour>
  </outline>
</glyph>
<glyph name="uni01E5" format="2">
  <advance width="1139"/>
  <unicode hex="01E5"/>
  <note>
uni01E5
</note>
  <outline>
    <contour>
      <point x="548" y="-425" type="qcurve" smooth="yes"/>
      <point x="741" y="-425"/>
      <point x="957" y="-266"/>
      <point x="988" y="-108" type="qcurve"/>
      <point x="1128" y="-108" type="line"/>
      <point x="1128" y="22" type="line"/>
      <point x="1001" y="22" type="line"/>
      <point x="1001" y="858" type="line" smooth="yes"/>
      <point x="1001" y="1028"/>
      <point x="1007" y="1082" type="qcurve"/>
      <point x="836" y="1082" type="line"/>
      <point x="832" y="1075"/>
      <point x="824" y="927"/>
      <point x="824" y="897" type="qcurve"/>
      <point x="822" y="897" type="line"/>
      <point x="776" y="994"/>
      <point x="607" y="1099"/>
      <point x="492" y="1099" type="qcurve" smooth="yes"/>
      <point x="289" y="1099"/>
      <point x="86" y="849"/>
      <point x="86" y="585" type="qcurve" smooth="yes"/>
      <point x="86" y="323"/>
      <point x="274" y="82"/>
      <point x="472" y="82" type="qcurve" smooth="yes"/>
      <point x="591" y="82"/>
      <point x="769" y="187"/>
      <point x="820" y="291" type="qcurve"/>
      <point x="822" y="291" type="line"/>
      <point x="822" y="75" type="line"/>
      <point x="820" y="22" type="line"/>
      <point x="404" y="22" type="line"/>
      <point x="404" y="-108" type="line"/>
      <point x="802" y="-108" type="line"/>
      <point x="778" y="-200"/>
      <point x="658" y="-288"/>
      <point x="553" y="-288" type="qcurve" smooth="yes"/>
      <point x="453" y="-288"/>
      <point x="330" y="-207"/>
      <point x="312" y="-132" type="qcurve"/>
      <point x="131" y="-158" type="line"/>
      <point x="161" y="-286"/>
      <point x="371" y="-425"/>
    </contour>
    <contour>
      <point x="822" y="586" type="qcurve" smooth="yes"/>
      <point x="822" y="413"/>
      <point x="663" y="215"/>
      <point x="533" y="215" type="qcurve" smooth="yes"/>
      <point x="391" y="215"/>
      <point x="272" y="387"/>
      <point x="272" y="586" type="qcurve" smooth="yes"/>
      <point x="272" y="785"/>
      <point x="398" y="965"/>
      <point x="536" y="965" type="qcurve" smooth="yes"/>
      <point x="620" y="965"/>
      <point x="750" y="874"/>
      <point x="822" y="704"/>
    </contour>
  </outline>
</glyph>
<glyph name="uni01F6" format="2">
  <advance width="2118"/>
  <unicode hex="01F6"/>
  <note>
uni01F6
</note>
  <outline>
    <contour>
      <point x="1312" y="394" type="qcurve" smooth="yes"/>
      <point x="1312" y="1409" type="line"/>
      <point x="1121" y="1409" type="line"/>
      <point x="1121" y="813" type="line"/>
      <point x="359" y="813" type="line"/>
      <point x="359" y="1409" type="line"/>
      <point x="168" y="1409" type="line"/>
      <point x="168" y="0" type="line"/>
      <point x="359" y="0" type="line"/>
      <point x="359" y="653" type="line"/>
      <point x="1121" y="653" type="line"/>
      <point x="1121" y="362" type="line" smooth="yes"/>
      <point x="1121" y="184"/>
      <point x="1353" y="-20"/>
      <point x="1557" y="-20" type="qcurve" smooth="yes"/>
      <point x="1758" y="-20"/>
      <point x="1984" y="188"/>
      <point x="1984" y="365" type="qcurve" smooth="yes"/>
      <point x="1984" y="1082" type="line"/>
      <point x="1803" y="1082" type="line"/>
      <point x="1803" y="394" type="line" smooth="yes"/>
      <point x="1803" y="246"/>
      <point x="1686" y="117"/>
      <point x="1558" y="117" type="qcurve" smooth="yes"/>
      <point x="1430" y="117"/>
      <point x="1312" y="247"/>
    </contour>
  </outline>
</glyph>
<glyph name="Aringacute" format="2">
  <advance width="1366"/>
  <unicode hex="01FA"/>
  <note>
Aringacute
</note>
  <outline>
    <contour>
      <point x="926" y="1392" type="qcurve" smooth="yes"/>
      <point x="926" y="1481"/>
      <point x="784" y="1609"/>
      <point x="684" y="1609" type="qcurve" smooth="yes"/>
      <point x="584" y="1609"/>
      <point x="442" y="1482"/>
      <point x="442" y="1392" type="qcurve" smooth="yes"/>
      <point x="442" y="1336"/>
      <point x="503" y="1237"/>
      <point x="552" y="1209" type="qcurve"/>
      <point x="4" y="0" type="line"/>
      <point x="202" y="0" type="line"/>
      <point x="364" y="371" type="line"/>
      <point x="1006" y="371" type="line"/>
      <point x="1167" y="0" type="line"/>
      <point x="1362" y="0" type="line"/>
      <point x="821" y="1212" type="line"/>
      <point x="867" y="1240"/>
      <point x="926" y="1337"/>
    </contour>
    <contour>
      <point x="685" y="1138" type="line"/>
      <point x="712" y="1063" type="line" smooth="yes"/>
      <point x="741" y="983"/>
      <point x="768" y="923" type="qcurve" smooth="yes"/>
      <point x="949" y="505" type="line"/>
      <point x="422" y="505" type="line"/>
      <point x="607" y="932"/>
      <point x="660" y="1065"/>
      <point x="676" y="1114" type="qcurve" smooth="yes"/>
    </contour>
    <contour>
      <point x="818" y="1392" type="qcurve" smooth="yes"/>
      <point x="818" y="1343"/>
      <point x="742" y="1268"/>
      <point x="684" y="1268" type="qcurve" smooth="yes"/>
      <point x="675" y="1268" type="line" smooth="yes"/>
      <point x="621" y="1271"/>
      <point x="549" y="1345"/>
      <point x="549" y="1392" type="qcurve" smooth="yes"/>
      <point x="549" y="1442"/>
      <point x="627" y="1513"/>
      <point x="684" y="1513" type="qcurve" smooth="yes"/>
      <point x="740" y="1513"/>
      <point x="818" y="1442"/>
    </contour>
    <contour>
      <point x="571" y="1657" type="line"/>
      <point x="685" y="1657" type="line"/>
      <point x="995" y="1831" type="line"/>
      <point x="995" y="1854" type="line"/>
      <point x="788" y="1854" type="line"/>
      <point x="571" y="1673" type="line"/>
    </contour>
  </outline>
</glyph>
<glyph name="uni021D" format="2">
  <advance width="894"/>
  <unicode hex="021D"/>
  <note>
uni021D
</note>
  <outline>
    <contour>
      <point x="269" y="472" type="qcurve"/>
      <point x="269" y="321" type="line"/>
      <point x="343" y="344"/>
      <point x="472" y="394"/>
      <point x="529" y="422" type="qcurve"/>
      <point x="585" y="363"/>
      <point x="640" y="230"/>
      <point x="640" y="149" type="qcurve" smooth="yes"/>
      <point x="640" y="52"/>
      <point x="543" y="-92"/>
      <point x="382" y="-183"/>
      <point x="216" y="-239"/>
      <point x="89" y="-271" type="qcurve"/>
      <point x="89" y="-426" type="line"/>
      <point x="363" y="-364"/>
      <point x="671" y="-201"/>
      <point x="819" y="16"/>
      <point x="819" y="155" type="qcurve" smooth="yes"/>
      <point x="819" y="248"/>
      <point x="733" y="435"/>
      <point x="660" y="500" type="qcurve"/>
      <point x="734" y="555"/>
      <point x="814" y="685"/>
      <point x="814" y="766" type="qcurve" smooth="yes"/>
      <point x="814" y="933"/>
      <point x="628" y="1102"/>
      <point x="436" y="1102" type="qcurve" smooth="yes"/>
      <point x="271" y="1102"/>
      <point x="80" y="964"/>
      <point x="40" y="825" type="qcurve"/>
      <point x="207" y="792" type="line"/>
      <point x="236" y="884"/>
      <point x="346" y="969"/>
      <point x="438" y="969" type="qcurve" smooth="yes"/>
      <point x="539" y="969"/>
      <point x="635" y="869"/>
      <point x="635" y="764" type="qcurve" smooth="yes"/>
      <point x="635" y="691"/>
      <point x="555" y="592"/>
      <point x="426" y="521"/>
    </contour>
  </outline>
</glyph>
<glyph name="uni0220" format="2">
  <advance width="1446"/>
  <unicode hex="0220"/>
  <note>
uni0220
</note>
  <outline>
    <contour>
      <point x="1093" y="-425" type="line"/>
      <point x="1283" y="-425" type="line"/>
      <point x="1283" y="939" type="line" smooth="yes"/>
      <point x="1283" y="1193"/>
      <point x="1069" y="1429"/>
      <point x="836" y="1429" type="qcurve" smooth="yes"/>
      <point x="686" y="1429"/>
      <point x="425" y="1337"/>
      <point x="351" y="1258" type="qcurve"/>
      <point x="351" y="1409" type="line"/>
      <point x="164" y="1409" type="line"/>
      <point x="164" y="0" type="line"/>
      <point x="353" y="0" type="line"/>
      <point x="353" y="1100" type="line"/>
      <point x="435" y="1182"/>
      <point x="666" y="1280"/>
      <point x="777" y="1280" type="qcurve" smooth="yes"/>
      <point x="898" y="1280"/>
      <point x="1030" y="1212"/>
      <point x="1093" y="1064"/>
      <point x="1093" y="939" type="qcurve" smooth="yes"/>
    </contour>
  </outline>
</glyph>
<glyph name="uni0221" format="2">
  <advance width="1396"/>
  <unicode hex="0221"/>
  <note>
uni0221
</note>
  <outline>
    <contour>
      <point x="821" y="174" type="qcurve"/>
      <point x="825" y="174" type="line"/>
      <point x="825" y="-44" type="line"/>
      <point x="717" y="-140"/>
      <point x="596" y="-309" type="qcurve"/>
      <point x="706" y="-426" type="line"/>
      <point x="863" y="-236" type="line"/>
      <point x="942" y="-425"/>
      <point x="1127" y="-425" type="qcurve" smooth="yes"/>
      <point x="1201" y="-425"/>
      <point x="1324" y="-363"/>
      <point x="1396" y="-250"/>
      <point x="1396" y="-167" type="qcurve" smooth="yes"/>
      <point x="1396" y="-48"/>
      <point x="1256" y="87"/>
      <point x="1128" y="87" type="qcurve" smooth="yes"/>
      <point x="1068" y="87"/>
      <point x="1003" y="64" type="qcurve"/>
      <point x="1001" y="223" type="line"/>
      <point x="1001" y="1484" type="line"/>
      <point x="821" y="1484" type="line"/>
      <point x="821" y="1035" type="line"/>
      <point x="823" y="914" type="line"/>
      <point x="821" y="914" type="line"/>
      <point x="771" y="1012"/>
      <point x="607" y="1102"/>
      <point x="484" y="1102" type="qcurve" smooth="yes"/>
      <point x="86" y="1102"/>
      <point x="86" y="536" type="qcurve" smooth="yes"/>
      <point x="86" y="256"/>
      <point x="279" y="-20"/>
      <point x="484" y="-20" type="qcurve" smooth="yes"/>
      <point x="606" y="-20"/>
      <point x="771" y="70"/>
    </contour>
    <contour>
      <point x="275" y="542" type="qcurve" smooth="yes"/>
      <point x="275" y="768"/>
      <point x="396" y="969"/>
      <point x="532" y="969" type="qcurve" smooth="yes"/>
      <point x="683" y="969"/>
      <point x="821" y="769"/>
      <point x="821" y="554" type="qcurve" smooth="yes"/>
      <point x="821" y="331"/>
      <point x="683" y="119"/>
      <point x="530" y="119" type="qcurve" smooth="yes"/>
      <point x="395" y="119"/>
      <point x="275" y="315"/>
    </contour>
    <contour>
      <point x="1241" y="-171" type="qcurve" smooth="yes"/>
      <point x="1241" y="-224"/>
      <point x="1178" y="-281"/>
      <point x="1126" y="-281" type="qcurve" smooth="yes"/>
      <point x="1065" y="-281"/>
      <point x="994" y="-187"/>
      <point x="994" y="-107" type="qcurve"/>
      <point x="1026" y="-87"/>
      <point x="1088" y="-58"/>
      <point x="1126" y="-58" type="qcurve" smooth="yes"/>
      <point x="1184" y="-58"/>
      <point x="1241" y="-123"/>
    </contour>
  </outline>
</glyph>
<glyph name="uni0224" format="2">
  <advance width="1251"/>
  <unicode hex="0224"/>
  <note>
uni0224
</note>
  <outline>
    <contour>
      <point x="65" y="143" type="line"/>
      <point x="65" y="0" type="line"/>
      <point x="897" y="0" type="line" smooth="yes"/>
      <point x="974" y="0"/>
      <point x="1045" y="-62"/>
      <point x="1045" y="-133" type="qcurve" smooth="yes"/>
      <point x="1045" y="-165"/>
      <point x="1027" y="-221" type="qcurve"/>
      <point x="1182" y="-255" type="line"/>
      <point x="1199" y="-178"/>
      <point x="1199" y="-101" type="qcurve" smooth="yes"/>
      <point x="1199" y="25"/>
      <point x="1050" y="156"/>
      <point x="918" y="156" type="qcurve" smooth="yes"/>
      <point x="282" y="156" type="line"/>
      <point x="1140" y="1270" type="line"/>
      <point x="1140" y="1409" type="line"/>
      <point x="138" y="1409" type="line"/>
      <point x="138" y="1253" type="line"/>
      <point x="923" y="1253" type="line"/>
    </contour>
  </outline>
</glyph>
<glyph name="uni0234" format="2">
  <advance width="715"/>
  <unicode hex="0234"/>
  <note>
uni0234
</note>
  <outline>
    <contour>
      <point x="318" y="1484" type="line"/>
      <point x="138" y="1484" type="line"/>
      <point x="138" y="-44" type="line"/>
      <point x="40" y="-130"/>
      <point x="-87" y="-309" type="qcurve"/>
      <point x="23" y="-426" type="line"/>
      <point x="180" y="-236" type="line"/>
      <point x="259" y="-425"/>
      <point x="444" y="-425" type="qcurve" smooth="yes"/>
      <point x="518" y="-425"/>
      <point x="641" y="-363"/>
      <point x="713" y="-250"/>
      <point x="713" y="-167" type="qcurve" smooth="yes"/>
      <point x="713" y="-48"/>
      <point x="573" y="87"/>
      <point x="445" y="87" type="qcurve" smooth="yes"/>
      <point x="386" y="87"/>
      <point x="318" y="63" type="qcurve"/>
    </contour>
    <contour>
      <point x="558" y="-171" type="qcurve" smooth="yes"/>
      <point x="558" y="-224"/>
      <point x="495" y="-281"/>
      <point x="443" y="-281" type="qcurve" smooth="yes"/>
      <point x="382" y="-281"/>
      <point x="311" y="-187"/>
      <point x="311" y="-107" type="qcurve"/>
      <point x="343" y="-87"/>
      <point x="405" y="-58"/>
      <point x="443" y="-58" type="qcurve" smooth="yes"/>
      <point x="501" y="-58"/>
      <point x="558" y="-123"/>
    </contour>
  </outline>
</glyph>
<glyph name="uni0235" format="2">
  <advance width="1402"/>
  <unicode hex="0235"/>
  <note>
uni0235
</note>
  <outline>
    <contour>
      <point x="825" y="686" type="qcurve" smooth="yes"/>
      <point x="825" y="-44" type="line"/>
      <point x="717" y="-140"/>
      <point x="596" y="-309" type="qcurve"/>
      <point x="706" y="-426" type="line"/>
      <point x="863" y="-236" type="line"/>
      <point x="942" y="-425"/>
      <point x="1127" y="-425" type="qcurve" smooth="yes"/>
      <point x="1201" y="-425"/>
      <point x="1324" y="-363"/>
      <point x="1396" y="-250"/>
      <point x="1396" y="-167" type="qcurve" smooth="yes"/>
      <point x="1396" y="-46"/>
      <point x="1258" y="87"/>
      <point x="1133" y="87" type="qcurve" smooth="yes"/>
      <point x="1074" y="87"/>
      <point x="1006" y="63" type="qcurve"/>
      <point x="1006" y="721" type="line" smooth="yes"/>
      <point x="1006" y="925"/>
      <point x="841" y="1102"/>
      <point x="663" y="1102" type="qcurve" smooth="yes"/>
      <point x="542" y="1102"/>
      <point x="379" y="1009"/>
      <point x="317" y="897" type="qcurve"/>
      <point x="314" y="897" type="line"/>
      <point x="312" y="976"/>
      <point x="309" y="1033"/>
      <point x="307" y="1077"/>
      <point x="306" y="1082" type="qcurve"/>
      <point x="136" y="1082" type="line"/>
      <point x="142" y="1040"/>
      <point x="142" y="851" type="qcurve" smooth="yes"/>
      <point x="142" y="0" type="line"/>
      <point x="322" y="0" type="line"/>
      <point x="322" y="627" type="line" smooth="yes"/>
      <point x="322" y="785"/>
      <point x="472" y="963"/>
      <point x="602" y="963" type="qcurve" smooth="yes"/>
      <point x="691" y="963"/>
      <point x="783" y="911"/>
      <point x="825" y="793"/>
    </contour>
    <contour>
      <point x="1241" y="-171" type="qcurve" smooth="yes"/>
      <point x="1241" y="-224"/>
      <point x="1178" y="-281"/>
      <point x="1126" y="-281" type="qcurve" smooth="yes"/>
      <point x="1065" y="-281"/>
      <point x="994" y="-187"/>
      <point x="994" y="-107" type="qcurve"/>
      <point x="1026" y="-87"/>
      <point x="1088" y="-58"/>
      <point x="1126" y="-58" type="qcurve" smooth="yes"/>
      <point x="1184" y="-58"/>
      <point x="1241" y="-123"/>
    </contour>
  </outline>
</glyph>
<glyph name="uni0236" format="2">
  <advance width="752"/>
  <unicode hex="0236"/>
  <note>
uni0236
</note>
  <outline>
    <contour>
      <point x="31" y="951" type="line"/>
      <point x="156" y="951" type="line"/>
      <point x="156" y="361" type="line"/>
      <point x="48" y="265"/>
      <point x="-73" y="96" type="qcurve"/>
      <point x="37" y="-21" type="line"/>
      <point x="194" y="169" type="line"/>
      <point x="273" y="-20"/>
      <point x="458" y="-20" type="qcurve" smooth="yes"/>
      <point x="532" y="-20"/>
      <point x="655" y="42"/>
      <point x="727" y="155"/>
      <point x="727" y="238" type="qcurve" smooth="yes"/>
      <point x="727" y="357"/>
      <point x="590" y="492"/>
      <point x="463" y="492" type="qcurve" smooth="yes"/>
      <point x="404" y="492"/>
      <point x="336" y="468" type="qcurve"/>
      <point x="336" y="951" type="line"/>
      <point x="536" y="951" type="line"/>
      <point x="536" y="1082" type="line"/>
      <point x="336" y="1082" type="line"/>
      <point x="336" y="1324" type="line"/>
      <point x="216" y="1324" type="line"/>
      <point x="163" y="1082" type="line"/>
      <point x="31" y="1082" type="line"/>
    </contour>
    <contour>
      <point x="572" y="234" type="qcurve" smooth="yes"/>
      <point x="572" y="181"/>
      <point x="509" y="124"/>
      <point x="457" y="124" type="qcurve" smooth="yes"/>
      <point x="397" y="124"/>
      <point x="329" y="214"/>
      <point x="329" y="298" type="qcurve"/>
      <point x="361" y="318"/>
      <point x="419" y="347"/>
      <point x="457" y="347" type="qcurve" smooth="yes"/>
      <point x="515" y="347"/>
      <point x="572" y="282"/>
    </contour>
  </outline>
</glyph>
<glyph name="uni0239" format="2">
  <advance width="1816"/>
  <unicode hex="0239"/>
  <note>
uni0239
</note>
  <outline>
    <contour>
      <point x="1733" y="544" type="qcurve" smooth="yes"/>
      <point x="1733" y="831"/>
      <point x="1535" y="1099"/>
      <point x="1335" y="1099" type="qcurve" smooth="yes"/>
      <point x="1206" y="1099"/>
      <point x="1048" y="1006"/>
      <point x="1000" y="906" type="qcurve"/>
      <point x="996" y="906" type="line"/>
      <point x="996" y="1082" type="line"/>
      <point x="820" y="1082" type="line"/>
      <point x="820" y="912" type="line"/>
      <point x="816" y="912" type="line"/>
      <point x="763" y="1012"/>
      <point x="606" y="1100"/>
      <point x="481" y="1100" type="qcurve" smooth="yes"/>
      <point x="83" y="1100"/>
      <point x="83" y="534" type="qcurve" smooth="yes"/>
      <point x="83" y="256"/>
      <point x="275" y="-20"/>
      <point x="481" y="-20" type="qcurve" smooth="yes"/>
      <point x="613" y="-20"/>
      <point x="764" y="65"/>
      <point x="816" y="168" type="qcurve"/>
      <point x="820" y="168" type="line"/>
      <point x="818" y="67" type="line"/>
      <point x="818" y="-425" type="line"/>
      <point x="998" y="-425" type="line"/>
      <point x="998" y="-2" type="line" smooth="yes"/>
      <point x="998" y="160"/>
      <point x="994" y="168" type="qcurve"/>
      <point x="999" y="168" type="line"/>
      <point x="1085" y="-20"/>
      <point x="1335" y="-20" type="qcurve" smooth="yes"/>
      <point x="1733" y="-20"/>
    </contour>
    <contour>
      <point x="1544" y="540" type="qcurve" smooth="yes"/>
      <point x="1544" y="310"/>
      <point x="1422" y="113"/>
      <point x="1287" y="113" type="qcurve" smooth="yes"/>
      <point x="1135" y="113"/>
      <point x="998" y="313"/>
      <point x="998" y="526" type="qcurve" smooth="yes"/>
      <point x="998" y="679"/>
      <point x="1061" y="870"/>
      <point x="1182" y="960"/>
      <point x="1289" y="960" type="qcurve" smooth="yes"/>
      <point x="1422" y="960"/>
      <point x="1544" y="766"/>
    </contour>
    <contour>
      <point x="818" y="552" type="qcurve" smooth="yes"/>
      <point x="818" y="336"/>
      <point x="682" y="119"/>
      <point x="527" y="119" type="qcurve" smooth="yes"/>
      <point x="392" y="119"/>
      <point x="272" y="315"/>
      <point x="272" y="540" type="qcurve" smooth="yes"/>
      <point x="272" y="763"/>
      <point x="392" y="967"/>
      <point x="529" y="967" type="qcurve" smooth="yes"/>
      <point x="680" y="967"/>
      <point x="818" y="763"/>
    </contour>
  </outline>
</glyph>
<glyph name="uni023B" format="2">
  <advance width="1479"/>
  <unicode hex="023B"/>
  <note>
uni023B
</note>
  <outline>
    <contour>
      <point x="342" y="123" type="qcurve"/>
      <point x="207" y="-107" type="line"/>
      <point x="369" y="-107" type="line"/>
      <point x="460" y="48" type="line"/>
      <point x="604" y="-20"/>
      <point x="791" y="-20" type="qcurve" smooth="yes"/>
      <point x="999" y="-20"/>
      <point x="1314" y="170"/>
      <point x="1401" y="352" type="qcurve"/>
      <point x="1245" y="430" type="line"/>
      <point x="1096" y="137"/>
      <point x="800" y="137" type="qcurve" smooth="yes"/>
      <point x="661" y="137"/>
      <point x="549" y="199" type="qcurve"/>
      <point x="1113" y="1160" type="line"/>
      <point x="1176" y="1099"/>
      <point x="1207" y="1021" type="qcurve"/>
      <point x="1388" y="1081" type="line"/>
      <point x="1327" y="1229"/>
      <point x="1205" y="1316" type="qcurve"/>
      <point x="1321" y="1514" type="line"/>
      <point x="1159" y="1514" type="line"/>
      <point x="1081" y="1381" type="line"/>
      <point x="952" y="1430"/>
      <point x="790" y="1430" type="qcurve" smooth="yes"/>
      <point x="468" y="1430"/>
      <point x="104" y="1048"/>
      <point x="104" y="711" type="qcurve" smooth="yes"/>
      <point x="104" y="523"/>
      <point x="223" y="221"/>
    </contour>
    <contour>
      <point x="792" y="1274" type="qcurve" smooth="yes"/>
      <point x="905" y="1274"/>
      <point x="996" y="1236" type="qcurve"/>
      <point x="439" y="289" type="line"/>
      <point x="298" y="444"/>
      <point x="298" y="711" type="qcurve" smooth="yes"/>
      <point x="298" y="973"/>
      <point x="558" y="1274"/>
    </contour>
  </outline>
</glyph>
<glyph name="uni023D" format="2">
  <advance width="1139"/>
  <unicode hex="023D"/>
  <note>
uni023D
</note>
  <outline>
    <contour>
      <point x="26" y="810" type="line"/>
      <point x="26" y="654" type="line"/>
      <point x="168" y="654" type="line"/>
      <point x="168" y="0" type="line"/>
      <point x="1071" y="0" type="line"/>
      <point x="1071" y="156" type="line"/>
      <point x="359" y="156" type="line"/>
      <point x="359" y="654" type="line"/>
      <point x="758" y="654" type="line"/>
      <point x="758" y="810" type="line"/>
      <point x="359" y="810" type="line"/>
      <point x="359" y="1409" type="line"/>
      <point x="168" y="1409" type="line"/>
      <point x="168" y="810" type="line"/>
    </contour>
  </outline>
</glyph>
<glyph name="uni0242" format="2">
  <advance width="928"/>
  <unicode hex="0242"/>
  <note>
uni0242
</note>
  <outline>
    <contour>
      <point x="354" y="0" type="line"/>
      <point x="534" y="0" type="line"/>
      <point x="534" y="314" type="line"/>
      <point x="685" y="352"/>
      <point x="848" y="554"/>
      <point x="848" y="697" type="qcurve" smooth="yes"/>
      <point x="848" y="892"/>
      <point x="629" y="1102"/>
      <point x="424" y="1102" type="qcurve" smooth="yes"/>
      <point x="261" y="1102"/>
      <point x="46" y="929"/>
      <point x="20" y="779" type="qcurve"/>
      <point x="205" y="765" type="line"/>
      <point x="233" y="961"/>
      <point x="424" y="961" type="qcurve" smooth="yes"/>
      <point x="551" y="961"/>
      <point x="660" y="832"/>
      <point x="660" y="699" type="qcurve" smooth="yes"/>
      <point x="660" y="576"/>
      <point x="497" y="432"/>
      <point x="354" y="432" type="qcurve"/>
    </contour>
  </outline>
</glyph>
<glyph name="uni0244" format="2">
  <advance width="1479"/>
  <unicode hex="0244"/>
  <note>
uni0244
</note>
  <outline>
    <contour>
      <point x="41" y="809" type="line"/>
      <point x="41" y="656" type="line"/>
      <point x="158" y="656" type="line"/>
      <point x="158" y="512" type="line" smooth="yes"/>
      <point x="158" y="346"/>
      <point x="300" y="106"/>
      <point x="558" y="-20"/>
      <point x="731" y="-20" type="qcurve" smooth="yes"/>
      <point x="911" y="-20"/>
      <point x="1176" y="111"/>
      <point x="1321" y="359"/>
      <point x="1321" y="530" type="qcurve" smooth="yes"/>
      <point x="1321" y="656" type="line"/>
      <point x="1438" y="656" type="line"/>
      <point x="1438" y="809" type="line"/>
      <point x="1321" y="809" type="line"/>
      <point x="1321" y="1409" type="line"/>
      <point x="1131" y="1409" type="line"/>
      <point x="1131" y="809" type="line"/>
      <point x="349" y="809" type="line"/>
      <point x="349" y="1409" type="line"/>
      <point x="158" y="1409" type="line"/>
      <point x="158" y="809" type="line"/>
    </contour>
    <contour>
      <point x="730" y="135" type="qcurve" smooth="yes"/>
      <point x="545" y="135"/>
      <point x="349" y="335"/>
      <point x="349" y="528" type="qcurve" smooth="yes"/>
      <point x="349" y="656" type="line"/>
      <point x="1131" y="656" type="line"/>
      <point x="1131" y="541" type="line" smooth="yes"/>
      <point x="1131" y="342"/>
      <point x="920" y="135"/>
    </contour>
  </outline>
</glyph>
<glyph name="uni0245" format="2">
  <advance width="1368"/>
  <unicode hex="0245"/>
  <note>
uni0245
</note>
  <outline>
    <contour>
      <point x="584" y="1409" type="line"/>
      <point x="9" y="0" type="line"/>
      <point x="210" y="0" type="line"/>
      <point x="598" y="992" type="line"/>
      <point x="682" y="1241" type="line"/>
      <point x="766" y="992" type="line"/>
      <point x="1156" y="0" type="line"/>
      <point x="1357" y="0" type="line"/>
      <point x="782" y="1409" type="line"/>
    </contour>
  </outline>
</glyph>
<glyph name="uni0249" format="2">
  <advance width="455"/>
  <unicode hex="0249"/>
  <note>
uni0249
</note>
  <outline>
    <contour>
      <point x="317" y="617" type="line"/>
      <point x="317" y="1082" type="line"/>
      <point x="137" y="1082" type="line"/>
      <point x="137" y="617" type="line"/>
      <point x="25" y="617" type="line"/>
      <point x="25" y="484" type="line"/>
      <point x="137" y="484" type="line"/>
      <point x="137" y="-107" type="line" smooth="yes"/>
      <point x="137" y="-211"/>
      <point x="81" y="-283"/>
      <point x="12" y="-283" type="qcurve"/>
      <point x="-50" y="-277" type="line"/>
      <point x="-50" y="-416" type="line"/>
      <point x="0" y="-425"/>
      <point x="77" y="-425" type="qcurve" smooth="yes"/>
      <point x="197" y="-425"/>
      <point x="317" y="-287"/>
      <point x="317" y="-134" type="qcurve" smooth="yes"/>
      <point x="317" y="484" type="line"/>
      <point x="428" y="484" type="line"/>
      <point x="428" y="617" type="line"/>
    </contour>
    <contour>
      <point x="137" y="1312" type="line"/>
      <point x="317" y="1312" type="line"/>
      <point x="317" y="1484" type="line"/>
      <point x="137" y="1484" type="line"/>
    </contour>
  </outline>
</glyph>
<glyph name="uni0250" format="2">
  <advance width="1139"/>
  <unicode hex="0250"/>
  <note>
uni0250
</note>
  <outline>
    <contour>
      <point x="726" y="1102" type="qcurve" smooth="yes"/>
      <point x="592" y="1102"/>
      <point x="407" y="995"/>
      <point x="343" y="875" type="qcurve"/>
      <point x="337" y="875" type="line"/>
      <point x="331" y="987"/>
      <point x="240" y="1092"/>
      <point x="140" y="1092" type="qcurve" smooth="yes"/>
      <point x="69" y="1092"/>
      <point x="1" y="1076" type="qcurve"/>
      <point x="1" y="964" type="line"/>
      <point x="34" y="971"/>
      <point x="60" y="971" type="qcurve" smooth="yes"/>
      <point x="119" y="971"/>
      <point x="161" y="890"/>
      <point x="161" y="810" type="qcurve" smooth="yes"/>
      <point x="161" y="344" type="line" smooth="yes"/>
      <point x="161" y="167"/>
      <point x="367" y="-20"/>
      <point x="571" y="-20" type="qcurve" smooth="yes"/>
      <point x="959" y="-20"/>
      <point x="1005" y="272" type="qcurve"/>
      <point x="817" y="289" type="line"/>
      <point x="807" y="201"/>
      <point x="698" y="117"/>
      <point x="575" y="117" type="qcurve" smooth="yes"/>
      <point x="455" y="117"/>
      <point x="343" y="231"/>
      <point x="343" y="363" type="qcurve" smooth="yes"/>
      <point x="343" y="422" type="line"/>
      <point x="586" y="426" type="line" smooth="yes"/>
      <point x="824" y="430"/>
      <point x="1053" y="607"/>
      <point x="1053" y="780" type="qcurve" smooth="yes"/>
      <point x="1053" y="930"/>
      <point x="889" y="1102"/>
    </contour>
    <contour>
      <point x="685" y="967" type="qcurve" smooth="yes"/>
      <point x="773" y="967"/>
      <point x="868" y="871"/>
      <point x="868" y="783" type="qcurve" smooth="yes"/>
      <point x="868" y="701"/>
      <point x="798" y="602"/>
      <point x="667" y="554"/>
      <point x="540" y="552" type="qcurve" smooth="yes"/>
      <point x="343" y="548" type="line"/>
      <point x="343" y="637" type="line" smooth="yes"/>
      <point x="343" y="720"/>
      <point x="432" y="877"/>
      <point x="586" y="967"/>
    </contour>
  </outline>
</glyph>
<glyph name="uni0252" format="2">
  <advance width="1139"/>
  <unicode hex="0252"/>
  <note>
uni0252
</note>
  <outline>
    <contour>
      <point x="318" y="908" type="qcurve"/>
      <point x="314" y="908" type="line"/>
      <point x="309" y="966"/>
      <point x="275" y="1063"/>
      <point x="256" y="1082" type="qcurve"/>
      <point x="58" y="1082" type="line"/>
      <point x="88" y="1052"/>
      <point x="138" y="912"/>
      <point x="138" y="835" type="qcurve" smooth="yes"/>
      <point x="138" y="0" type="line"/>
      <point x="318" y="0" type="line"/>
      <point x="318" y="47" type="line"/>
      <point x="316" y="168" type="line"/>
      <point x="318" y="168" type="line"/>
      <point x="368" y="70"/>
      <point x="532" y="-20"/>
      <point x="655" y="-20" type="qcurve" smooth="yes"/>
      <point x="1053" y="-20"/>
      <point x="1053" y="546" type="qcurve" smooth="yes"/>
      <point x="1053" y="824"/>
      <point x="861" y="1102"/>
      <point x="655" y="1102" type="qcurve" smooth="yes"/>
      <point x="533" y="1102"/>
      <point x="368" y="1012"/>
    </contour>
    <contour>
      <point x="609" y="963" type="qcurve" smooth="yes"/>
      <point x="746" y="963"/>
      <point x="864" y="766"/>
      <point x="864" y="540" type="qcurve" smooth="yes"/>
      <point x="864" y="317"/>
      <point x="745" y="113"/>
      <point x="607" y="113" type="qcurve" smooth="yes"/>
      <point x="453" y="113"/>
      <point x="318" y="316"/>
      <point x="318" y="528" type="qcurve" smooth="yes"/>
      <point x="318" y="750"/>
      <point x="454" y="963"/>
    </contour>
  </outline>
</glyph>
<glyph name="uni0256" format="2">
  <advance width="1139"/>
  <unicode hex="0256"/>
  <note>
uni0256
</note>
  <outline>
    <contour>
      <point x="1198" y="-413" type="qcurve"/>
      <point x="1198" y="-251" type="line"/>
      <point x="1150" y="-263"/>
      <point x="1112" y="-263" type="qcurve" smooth="yes"/>
      <point x="1057" y="-263"/>
      <point x="1001" y="-196"/>
      <point x="1001" y="-115" type="qcurve" smooth="yes"/>
      <point x="1001" y="1484" type="line"/>
      <point x="821" y="1484" type="line"/>
      <point x="821" y="1035" type="line"/>
      <point x="823" y="914" type="line"/>
      <point x="821" y="914" type="line"/>
      <point x="771" y="1012"/>
      <point x="607" y="1102"/>
      <point x="484" y="1102" type="qcurve" smooth="yes"/>
      <point x="86" y="1102"/>
      <point x="86" y="536" type="qcurve" smooth="yes"/>
      <point x="86" y="256"/>
      <point x="279" y="-20"/>
      <point x="484" y="-20" type="qcurve" smooth="yes"/>
      <point x="606" y="-20"/>
      <point x="773" y="70"/>
      <point x="823" y="174" type="qcurve"/>
      <point x="827" y="174" type="line"/>
      <point x="827" y="-129" type="line" smooth="yes"/>
      <point x="827" y="-425"/>
      <point x="1074" y="-425" type="qcurve" smooth="yes"/>
      <point x="1148" y="-425"/>
    </contour>
    <contour>
      <point x="275" y="542" type="qcurve" smooth="yes"/>
      <point x="275" y="768"/>
      <point x="396" y="969"/>
      <point x="532" y="969" type="qcurve" smooth="yes"/>
      <point x="683" y="969"/>
      <point x="821" y="769"/>
      <point x="821" y="554" type="qcurve" smooth="yes"/>
      <point x="821" y="331"/>
      <point x="683" y="119"/>
      <point x="530" y="119" type="qcurve" smooth="yes"/>
      <point x="395" y="119"/>
      <point x="275" y="315"/>
    </contour>
  </outline>
</glyph>
<glyph name="uni025A" format="2">
  <advance width="1513"/>
  <unicode hex="025A"/>
  <note>
uni025A
</note>
  <outline>
    <contour>
      <point x="844" y="723" type="qcurve"/>
      <point x="87" y="579" type="line"/>
      <point x="87" y="555" type="line" smooth="yes"/>
      <point x="87" y="-20"/>
      <point x="564" y="-20" type="qcurve" smooth="yes"/>
      <point x="797" y="-20"/>
      <point x="1048" y="266"/>
      <point x="1048" y="534" type="qcurve" smooth="yes"/>
      <point x="1048" y="587"/>
      <point x="1044" y="627" type="qcurve"/>
      <point x="1064" y="501"/>
      <point x="1197" y="357"/>
      <point x="1296" y="357" type="qcurve" smooth="yes"/>
      <point x="1381" y="357"/>
      <point x="1507" y="409" type="qcurve"/>
      <point x="1448" y="556" type="line"/>
      <point x="1368" y="516"/>
      <point x="1316" y="516" type="qcurve" smooth="yes"/>
      <point x="1266" y="516"/>
      <point x="1215" y="583"/>
      <point x="1200" y="651" type="qcurve" smooth="yes"/>
      <point x="1172" y="780" type="line"/>
      <point x="1024" y="754" type="line"/>
      <point x="936" y="1102"/>
      <point x="557" y="1102" type="qcurve" smooth="yes"/>
      <point x="213" y="1102"/>
      <point x="116" y="846" type="qcurve"/>
      <point x="274" y="801" type="line"/>
      <point x="299" y="873"/>
      <point x="440" y="967"/>
      <point x="557" y="967" type="qcurve" smooth="yes"/>
      <point x="668" y="967"/>
      <point x="814" y="850"/>
    </contour>
    <contour>
      <point x="270" y="468" type="qcurve"/>
      <point x="861" y="579" type="line"/>
      <point x="864" y="500" type="line" smooth="yes"/>
      <point x="864" y="312"/>
      <point x="706" y="113"/>
      <point x="567" y="113" type="qcurve" smooth="yes"/>
      <point x="427" y="113"/>
      <point x="285" y="284"/>
    </contour>
  </outline>
</glyph>
<glyph name="uni025B" format="2">
  <advance width="939"/>
  <unicode hex="025B"/>
  <note>
uni025B
</note>
  <outline>
    <contour>
      <point x="72" y="289" type="qcurve" smooth="yes"/>
      <point x="72" y="146"/>
      <point x="283" y="-19"/>
      <point x="476" y="-19" type="qcurve" smooth="yes"/>
      <point x="658" y="-19"/>
      <point x="870" y="149"/>
      <point x="886" y="322" type="qcurve"/>
      <point x="709" y="336" type="line"/>
      <point x="689" y="113"/>
      <point x="476" y="113" type="qcurve" smooth="yes"/>
      <point x="371" y="113"/>
      <point x="252" y="212"/>
      <point x="252" y="300" type="qcurve" smooth="yes"/>
      <point x="252" y="387"/>
      <point x="363" y="483"/>
      <point x="480" y="483" type="qcurve" smooth="yes"/>
      <point x="576" y="483" type="line"/>
      <point x="576" y="624" type="line"/>
      <point x="486" y="624" type="line" smooth="yes"/>
      <point x="394" y="624"/>
      <point x="281" y="716"/>
      <point x="281" y="794" type="qcurve" smooth="yes"/>
      <point x="281" y="879"/>
      <point x="387" y="969"/>
      <point x="480" y="969" type="qcurve" smooth="yes"/>
      <point x="653" y="969"/>
      <point x="684" y="765" type="qcurve"/>
      <point x="863" y="781" type="line"/>
      <point x="842" y="934"/>
      <point x="640" y="1102"/>
      <point x="478" y="1102" type="qcurve" smooth="yes"/>
      <point x="302" y="1102"/>
      <point x="101" y="942"/>
      <point x="101" y="803" type="qcurve" smooth="yes"/>
      <point x="101" y="625"/>
      <point x="321" y="558" type="qcurve"/>
      <point x="200" y="538"/>
      <point x="72" y="400"/>
    </contour>
  </outline>
</glyph>
<glyph name="uni025C" format="2">
  <advance width="939"/>
  <unicode hex="025C"/>
  <note>
uni025C
</note>
  <outline>
    <contour>
      <point x="867" y="289" type="qcurve" smooth="yes"/>
      <point x="867" y="400"/>
      <point x="739" y="538"/>
      <point x="618" y="558" type="qcurve"/>
      <point x="838" y="625"/>
      <point x="838" y="803" type="qcurve" smooth="yes"/>
      <point x="838" y="940"/>
      <point x="638" y="1102"/>
      <point x="461" y="1102" type="qcurve" smooth="yes"/>
      <point x="299" y="1102"/>
      <point x="97" y="933"/>
      <point x="76" y="781" type="qcurve"/>
      <point x="255" y="765" type="line"/>
      <point x="286" y="969"/>
      <point x="459" y="969" type="qcurve" smooth="yes"/>
      <point x="553" y="969"/>
      <point x="658" y="876"/>
      <point x="658" y="794" type="qcurve" smooth="yes"/>
      <point x="658" y="716"/>
      <point x="546" y="624"/>
      <point x="453" y="624" type="qcurve" smooth="yes"/>
      <point x="363" y="624" type="line"/>
      <point x="363" y="483" type="line"/>
      <point x="459" y="483" type="line" smooth="yes"/>
      <point x="575" y="483"/>
      <point x="687" y="387"/>
      <point x="687" y="300" type="qcurve" smooth="yes"/>
      <point x="687" y="207"/>
      <point x="571" y="113"/>
      <point x="463" y="113" type="qcurve" smooth="yes"/>
      <point x="250" y="113"/>
      <point x="230" y="336" type="qcurve"/>
      <point x="53" y="322" type="line"/>
      <point x="69" y="149"/>
      <point x="280" y="-19"/>
      <point x="463" y="-19" type="qcurve" smooth="yes"/>
      <point x="655" y="-19"/>
      <point x="867" y="146"/>
    </contour>
  </outline>
</glyph>
<glyph name="uni025E" format="2">
  <advance width="1039"/>
  <unicode hex="025E"/>
  <note>
uni025E
</note>
  <outline>
    <contour>
      <point x="264" y="556" type="qcurve" smooth="yes"/>
      <point x="264" y="760"/>
      <point x="406" y="969"/>
      <point x="567" y="969" type="qcurve" smooth="yes"/>
      <point x="661" y="969"/>
      <point x="766" y="876"/>
      <point x="766" y="794" type="qcurve" smooth="yes"/>
      <point x="766" y="716"/>
      <point x="654" y="624"/>
      <point x="561" y="624" type="qcurve" smooth="yes"/>
      <point x="471" y="624" type="line"/>
      <point x="471" y="483" type="line"/>
      <point x="567" y="483" type="line" smooth="yes"/>
      <point x="683" y="483"/>
      <point x="795" y="387"/>
      <point x="795" y="300" type="qcurve" smooth="yes"/>
      <point x="795" y="207"/>
      <point x="679" y="113"/>
      <point x="571" y="113" type="qcurve" smooth="yes"/>
      <point x="457" y="113"/>
      <point x="331" y="204"/>
      <point x="264" y="397"/>
    </contour>
    <contour>
      <point x="75" y="556" type="qcurve" smooth="yes"/>
      <point x="75" y="269"/>
      <point x="320" y="-19"/>
      <point x="571" y="-19" type="qcurve" smooth="yes"/>
      <point x="763" y="-19"/>
      <point x="975" y="146"/>
      <point x="975" y="289" type="qcurve" smooth="yes"/>
      <point x="975" y="400"/>
      <point x="847" y="538"/>
      <point x="726" y="558" type="qcurve"/>
      <point x="946" y="625"/>
      <point x="946" y="803" type="qcurve" smooth="yes"/>
      <point x="946" y="943"/>
      <point x="736" y="1102"/>
      <point x="548" y="1102" type="qcurve" smooth="yes"/>
      <point x="321" y="1102"/>
      <point x="75" y="817"/>
    </contour>
  </outline>
</glyph>
<glyph name="uni0264" format="2">
  <advance width="1263"/>
  <unicode hex="0264"/>
  <note>
uni0264
</note>
  <outline>
    <contour>
      <point x="703" y="214" type="qcurve" smooth="yes"/>
      <point x="703" y="121"/>
      <point x="631" y="121" type="qcurve" smooth="yes"/>
      <point x="560" y="121"/>
      <point x="560" y="214" type="qcurve" smooth="yes"/>
      <point x="560" y="238"/>
      <point x="573" y="285"/>
      <point x="593" y="333"/>
      <point x="619" y="381"/>
      <point x="631" y="404" type="qcurve"/>
      <point x="672" y="328"/>
      <point x="693" y="277"/>
      <point x="703" y="235"/>
    </contour>
    <contour>
      <point x="961" y="1089" type="qcurve" smooth="yes"/>
      <point x="863" y="1089"/>
      <point x="746" y="1001"/>
      <point x="706" y="892" type="qcurve" smooth="yes"/>
      <point x="651" y="741" type="line"/>
      <point x="630" y="671" type="line"/>
      <point x="608" y="741" type="line"/>
      <point x="553" y="892" type="line" smooth="yes"/>
      <point x="512" y="1002"/>
      <point x="395" y="1089"/>
      <point x="298" y="1089" type="qcurve" smooth="yes"/>
      <point x="222" y="1089"/>
      <point x="78" y="993"/>
      <point x="22" y="901" type="qcurve"/>
      <point x="136" y="790" type="line"/>
      <point x="170" y="840" type="line" smooth="yes"/>
      <point x="232" y="931"/>
      <point x="295" y="931" type="qcurve" smooth="yes"/>
      <point x="330" y="931"/>
      <point x="375" y="878"/>
      <point x="398" y="825" type="qcurve" smooth="yes"/>
      <point x="529" y="521" type="line"/>
      <point x="480" y="428" type="line" smooth="yes"/>
      <point x="400" y="288"/>
      <point x="400" y="202" type="qcurve" smooth="yes"/>
      <point x="400" y="96"/>
      <point x="525" y="-24"/>
      <point x="631" y="-24" type="qcurve" smooth="yes"/>
      <point x="738" y="-24"/>
      <point x="863" y="96"/>
      <point x="863" y="202" type="qcurve" smooth="yes"/>
      <point x="863" y="283"/>
      <point x="781" y="428" type="qcurve" smooth="yes"/>
      <point x="730" y="522" type="line"/>
      <point x="861" y="825" type="line" smooth="yes"/>
      <point x="884" y="878"/>
      <point x="929" y="931"/>
      <point x="964" y="931" type="qcurve" smooth="yes"/>
      <point x="1027" y="931"/>
      <point x="1090" y="840" type="qcurve" smooth="yes"/>
      <point x="1123" y="790" type="line"/>
      <point x="1237" y="901" type="line"/>
      <point x="1181" y="993"/>
      <point x="1037" y="1089"/>
    </contour>
  </outline>
</glyph>
<glyph name="uni0265" format="2">
  <advance width="1139"/>
  <unicode hex="0265"/>
  <note>
uni0265
</note>
  <outline>
    <contour>
      <point x="831" y="186" type="qcurve"/>
      <point x="834" y="186" type="line"/>
      <point x="830" y="112" type="line"/>
      <point x="826" y="-15" type="line"/>
      <point x="826" y="-401" type="line"/>
      <point x="1006" y="-401" type="line"/>
      <point x="1006" y="1083" type="line"/>
      <point x="826" y="1083" type="line"/>
      <point x="826" y="445" type="line" smooth="yes"/>
      <point x="826" y="296"/>
      <point x="673" y="120"/>
      <point x="546" y="120" type="qcurve" smooth="yes"/>
      <point x="461" y="120"/>
      <point x="365" y="172"/>
      <point x="323" y="283"/>
      <point x="323" y="397" type="qcurve" smooth="yes"/>
      <point x="323" y="1083" type="line"/>
      <point x="142" y="1083" type="line"/>
      <point x="142" y="362" type="line" smooth="yes"/>
      <point x="142" y="156"/>
      <point x="309" y="-19"/>
      <point x="485" y="-19" type="qcurve" smooth="yes"/>
      <point x="608" y="-19"/>
      <point x="772" y="77"/>
    </contour>
  </outline>
</glyph>
<glyph name="uni026A" format="2">
  <advance width="729"/>
  <unicode hex="026A"/>
  <note>
uni026A
</note>
  <outline>
    <contour>
      <point x="455" y="140" type="line"/>
      <point x="455" y="943" type="line"/>
      <point x="662" y="943" type="line"/>
      <point x="662" y="1082" type="line"/>
      <point x="68" y="1082" type="line"/>
      <point x="68" y="943" type="line"/>
      <point x="274" y="943" type="line"/>
      <point x="274" y="140" type="line"/>
      <point x="68" y="140" type="line"/>
      <point x="68" y="0" type="line"/>
      <point x="662" y="0" type="line"/>
      <point x="662" y="140" type="line"/>
    </contour>
  </outline>
</glyph>
<glyph name="uni026B" format="2">
  <advance width="670"/>
  <unicode hex="026B"/>
  <note>
uni026B
</note>
  <outline>
    <contour>
      <point x="248" y="0" type="line"/>
      <point x="428" y="0" type="line"/>
      <point x="428" y="648" type="line"/>
      <point x="448" y="643"/>
      <point x="483" y="643" type="qcurve" smooth="yes"/>
      <point x="579" y="643"/>
      <point x="669" y="757"/>
      <point x="669" y="871" type="qcurve"/>
      <point x="539" y="871" type="line"/>
      <point x="533" y="823"/>
      <point x="507" y="776"/>
      <point x="476" y="776" type="qcurve" smooth="yes"/>
      <point x="444" y="776"/>
      <point x="428" y="782" type="qcurve"/>
      <point x="428" y="1484" type="line"/>
      <point x="248" y="1484" type="line"/>
      <point x="248" y="851" type="line"/>
      <point x="193" y="856" type="line"/>
      <point x="109" y="856"/>
      <point x="2" y="732"/>
      <point x="0" y="628" type="qcurve"/>
      <point x="130" y="628" type="line"/>
      <point x="130" y="675"/>
      <point x="157" y="723"/>
      <point x="196" y="723" type="qcurve" smooth="yes"/>
      <point x="222" y="723"/>
      <point x="248" y="715" type="qcurve"/>
    </contour>
  </outline>
</glyph>
<glyph name="uni026D" format="2">
  <advance width="455"/>
  <unicode hex="026D"/>
  <note>
uni026D
</note>
  <outline>
    <contour>
      <point x="314" y="-115" type="qcurve" smooth="yes"/>
      <point x="314" y="1484" type="line"/>
      <point x="134" y="1484" type="line"/>
      <point x="134" y="-129" type="line" smooth="yes"/>
      <point x="134" y="-425"/>
      <point x="415" y="-425" type="qcurve" smooth="yes"/>
      <point x="460" y="-425"/>
      <point x="529" y="-410" type="qcurve"/>
      <point x="529" y="-248" type="line"/>
      <point x="482" y="-263"/>
      <point x="427" y="-263" type="qcurve" smooth="yes"/>
      <point x="372" y="-263"/>
      <point x="315" y="-196"/>
    </contour>
  </outline>
</glyph>
<glyph name="uni026E" format="2">
  <advance width="1171"/>
  <unicode hex="026E"/>
  <note>
uni026E
</note>
  <outline>
    <contour>
      <point x="131" y="0" type="line"/>
      <point x="311" y="0" type="line"/>
      <point x="311" y="941" type="line"/>
      <point x="877" y="941" type="line"/>
      <point x="494" y="555" type="line"/>
      <point x="494" y="411" type="line"/>
      <point x="576" y="411" type="line" smooth="yes"/>
      <point x="733" y="411"/>
      <point x="922" y="227"/>
      <point x="922" y="75" type="qcurve" smooth="yes"/>
      <point x="922" y="-22"/>
      <point x="843" y="-189"/>
      <point x="695" y="-284"/>
      <point x="598" y="-284" type="qcurve" smooth="yes"/>
      <point x="371" y="-284"/>
      <point x="316" y="-102" type="qcurve"/>
      <point x="139" y="-123" type="line"/>
      <point x="178" y="-273"/>
      <point x="411" y="-425"/>
      <point x="599" y="-425" type="qcurve" smooth="yes"/>
      <point x="745" y="-425"/>
      <point x="976" y="-296"/>
      <point x="1103" y="-68"/>
      <point x="1103" y="69" type="qcurve" smooth="yes"/>
      <point x="1103" y="262"/>
      <point x="887" y="516"/>
      <point x="698" y="540" type="qcurve"/>
      <point x="1067" y="904" type="line"/>
      <point x="1067" y="1082" type="line"/>
      <point x="311" y="1082" type="line"/>
      <point x="311" y="1484" type="line"/>
      <point x="131" y="1484" type="line"/>
    </contour>
  </outline>
</glyph>
<glyph name="uni026F" format="2">
  <advance width="1706"/>
  <unicode hex="026F"/>
  <note>
uni026F
</note>
  <outline>
    <contour>
      <point x="940" y="1082" type="line"/>
      <point x="762" y="1082" type="line"/>
      <point x="762" y="455" type="line" smooth="yes"/>
      <point x="762" y="294"/>
      <point x="631" y="119"/>
      <point x="513" y="119" type="qcurve" smooth="yes"/>
      <point x="401" y="119"/>
      <point x="315" y="239"/>
      <point x="315" y="396" type="qcurve" smooth="yes"/>
      <point x="315" y="1082" type="line"/>
      <point x="137" y="1082" type="line"/>
      <point x="137" y="361" type="line" smooth="yes"/>
      <point x="137" y="158"/>
      <point x="286" y="-20"/>
      <point x="450" y="-20" type="qcurve" smooth="yes"/>
      <point x="563" y="-20"/>
      <point x="722" y="76"/>
      <point x="778" y="185" type="qcurve"/>
      <point x="781" y="185" type="line"/>
      <point x="809" y="78"/>
      <point x="952" y="-20"/>
      <point x="1075" y="-20" type="qcurve" smooth="yes"/>
      <point x="1183" y="-20"/>
      <point x="1333" y="70"/>
      <point x="1391" y="185" type="qcurve"/>
      <point x="1394" y="185" type="line"/>
      <point x="1396" y="106"/>
      <point x="1399" y="49"/>
      <point x="1401" y="5"/>
      <point x="1402" y="0" type="qcurve"/>
      <point x="1572" y="0" type="line"/>
      <point x="1566" y="42"/>
      <point x="1566" y="231" type="qcurve" smooth="yes"/>
      <point x="1566" y="1082" type="line"/>
      <point x="1387" y="1082" type="line"/>
      <point x="1387" y="455" type="line" smooth="yes"/>
      <point x="1387" y="295"/>
      <point x="1253" y="119"/>
      <point x="1138" y="119" type="qcurve" smooth="yes"/>
      <point x="1026" y="119"/>
      <point x="940" y="239"/>
      <point x="940" y="396" type="qcurve" smooth="yes"/>
    </contour>
  </outline>
</glyph>
<glyph name="uni0270" format="2">
  <advance width="1706"/>
  <unicode hex="0270"/>
  <note>
uni0270
</note>
  <outline>
    <contour>
      <point x="940" y="1082" type="line"/>
      <point x="762" y="1082" type="line"/>
      <point x="762" y="455" type="line" smooth="yes"/>
      <point x="762" y="294"/>
      <point x="631" y="119"/>
      <point x="513" y="119" type="qcurve" smooth="yes"/>
      <point x="401" y="119"/>
      <point x="315" y="239"/>
      <point x="315" y="396" type="qcurve" smooth="yes"/>
      <point x="315" y="1082" type="line"/>
      <point x="137" y="1082" type="line"/>
      <point x="137" y="361" type="line" smooth="yes"/>
      <point x="137" y="158"/>
      <point x="286" y="-20"/>
      <point x="450" y="-20" type="qcurve" smooth="yes"/>
      <point x="563" y="-20"/>
      <point x="722" y="76"/>
      <point x="778" y="185" type="qcurve"/>
      <point x="781" y="185" type="line"/>
      <point x="809" y="78"/>
      <point x="952" y="-20"/>
      <point x="1075" y="-20" type="qcurve" smooth="yes"/>
      <point x="1185" y="-20"/>
      <point x="1334" y="68"/>
      <point x="1389" y="175" type="qcurve"/>
      <point x="1389" y="-425" type="line"/>
      <point x="1566" y="-425" type="line"/>
      <point x="1566" y="1082" type="line"/>
      <point x="1387" y="1082" type="line"/>
      <point x="1387" y="455" type="line" smooth="yes"/>
      <point x="1387" y="295"/>
      <point x="1253" y="119"/>
      <point x="1138" y="119" type="qcurve" smooth="yes"/>
      <point x="1026" y="119"/>
      <point x="940" y="239"/>
      <point x="940" y="396" type="qcurve" smooth="yes"/>
    </contour>
  </outline>
</glyph>
<glyph name="uni0273" format="2">
  <advance width="1139"/>
  <unicode hex="0273"/>
  <note>
uni0273
</note>
  <outline>
    <contour>
      <point x="1006" y="-115" type="qcurve" smooth="yes"/>
      <point x="1006" y="721" type="line" smooth="yes"/>
      <point x="1006" y="925"/>
      <point x="841" y="1102"/>
      <point x="663" y="1102" type="qcurve" smooth="yes"/>
      <point x="542" y="1102"/>
      <point x="379" y="1009"/>
      <point x="317" y="897" type="qcurve"/>
      <point x="314" y="897" type="line"/>
      <point x="312" y="976"/>
      <point x="309" y="1033"/>
      <point x="307" y="1077"/>
      <point x="306" y="1082" type="qcurve"/>
      <point x="136" y="1082" type="line"/>
      <point x="142" y="1040"/>
      <point x="142" y="851" type="qcurve" smooth="yes"/>
      <point x="142" y="0" type="line"/>
      <point x="322" y="0" type="line"/>
      <point x="322" y="627" type="line" smooth="yes"/>
      <point x="322" y="785"/>
      <point x="472" y="963"/>
      <point x="602" y="963" type="qcurve" smooth="yes"/>
      <point x="691" y="963"/>
      <point x="783" y="911"/>
      <point x="825" y="793"/>
      <point x="825" y="686" type="qcurve" smooth="yes"/>
      <point x="825" y="-129" type="line" smooth="yes"/>
      <point x="825" y="-425"/>
      <point x="1106" y="-425" type="qcurve" smooth="yes"/>
      <point x="1165" y="-425"/>
      <point x="1229" y="-411" type="qcurve"/>
      <point x="1229" y="-247" type="line"/>
      <point x="1185" y="-263"/>
      <point x="1123" y="-263" type="qcurve" smooth="yes"/>
      <point x="1006" y="-263"/>
    </contour>
  </outline>
</glyph>
<glyph name="uni0274" format="2">
  <advance width="1132"/>
  <unicode hex="0274"/>
  <note>
uni0274
</note>
  <outline>
    <contour>
      <point x="316" y="1082" type="line"/>
      <point x="142" y="1082" type="line"/>
      <point x="142" y="0" type="line"/>
      <point x="311" y="0" type="line"/>
      <point x="311" y="665" type="line" smooth="yes"/>
      <point x="311" y="730"/>
      <point x="304" y="828" type="qcurve"/>
      <point x="337" y="757"/>
      <point x="377" y="699" type="qcurve" smooth="yes"/>
      <point x="838" y="0" type="line"/>
      <point x="1005" y="0" type="line"/>
      <point x="1005" y="1082" type="line"/>
      <point x="835" y="1082" type="line"/>
      <point x="835" y="418" type="line"/>
      <point x="839" y="293" type="line"/>
      <point x="802" y="367"/>
      <point x="781" y="397" type="qcurve" smooth="yes"/>
    </contour>
  </outline>
</glyph>
<glyph name="uni0276" format="2">
  <advance width="1619"/>
  <unicode hex="0276"/>
  <note>
uni0276
</note>
  <outline>
    <contour>
      <point x="1481" y="625" type="line"/>
      <point x="1040" y="625" type="line"/>
      <point x="1040" y="945" type="line"/>
      <point x="1527" y="945" type="line"/>
      <point x="1527" y="1082" type="line"/>
      <point x="869" y="1082" type="line"/>
      <point x="869" y="989" type="line"/>
      <point x="751" y="1102"/>
      <point x="571" y="1102" type="qcurve" smooth="yes"/>
      <point x="86" y="1102"/>
      <point x="86" y="542" type="qcurve" smooth="yes"/>
      <point x="86" y="269"/>
      <point x="328" y="-20"/>
      <point x="565" y="-20" type="qcurve" smooth="yes"/>
      <point x="754" y="-20"/>
      <point x="869" y="93" type="qcurve"/>
      <point x="869" y="0" type="line"/>
      <point x="1550" y="0" type="line"/>
      <point x="1550" y="133" type="line"/>
      <point x="1040" y="133" type="line"/>
      <point x="1040" y="495" type="line"/>
      <point x="1481" y="495" type="line"/>
    </contour>
    <contour>
      <point x="864" y="542" type="qcurve" smooth="yes"/>
      <point x="864" y="321"/>
      <point x="725" y="113"/>
      <point x="563" y="113" type="qcurve" smooth="yes"/>
      <point x="414" y="113"/>
      <point x="275" y="328"/>
      <point x="275" y="542" type="qcurve" smooth="yes"/>
      <point x="275" y="762"/>
      <point x="416" y="969"/>
      <point x="574" y="969" type="qcurve" smooth="yes"/>
      <point x="731" y="969"/>
      <point x="864" y="766"/>
    </contour>
  </outline>
</glyph>
<glyph name="uni0277" format="2">
  <advance width="1599"/>
  <unicode hex="0277"/>
  <note>
uni0277
</note>
  <outline>
    <contour>
      <point x="885" y="589" type="line"/>
      <point x="714" y="589" type="line"/>
      <point x="714" y="493" type="line" smooth="yes"/>
      <point x="714" y="298"/>
      <point x="602" y="112"/>
      <point x="488" y="112" type="qcurve" smooth="yes"/>
      <point x="369" y="112"/>
      <point x="264" y="288"/>
      <point x="264" y="475" type="qcurve" smooth="yes"/>
      <point x="264" y="626"/>
      <point x="395" y="854"/>
      <point x="633" y="965"/>
      <point x="799" y="965" type="qcurve" smooth="yes"/>
      <point x="966" y="965"/>
      <point x="1204" y="854"/>
      <point x="1335" y="626"/>
      <point x="1335" y="475" type="qcurve" smooth="yes"/>
      <point x="1335" y="288"/>
      <point x="1230" y="112"/>
      <point x="1111" y="112" type="qcurve" smooth="yes"/>
      <point x="997" y="112"/>
      <point x="885" y="298"/>
      <point x="885" y="493" type="qcurve" smooth="yes"/>
    </contour>
    <contour>
      <point x="799" y="1102" type="qcurve" smooth="yes"/>
      <point x="465" y="1102"/>
      <point x="87" y="768"/>
      <point x="87" y="475" type="qcurve" smooth="yes"/>
      <point x="87" y="238"/>
      <point x="290" y="-20"/>
      <point x="473" y="-20" type="qcurve" smooth="yes"/>
      <point x="602" y="-20"/>
      <point x="771" y="105"/>
      <point x="798" y="227" type="qcurve"/>
      <point x="827" y="107"/>
      <point x="997" y="-20"/>
      <point x="1126" y="-20" type="qcurve" smooth="yes"/>
      <point x="1310" y="-20"/>
      <point x="1512" y="239"/>
      <point x="1512" y="475" type="qcurve" smooth="yes"/>
      <point x="1512" y="769"/>
      <point x="1132" y="1102"/>
    </contour>
  </outline>
</glyph>
<glyph name="uni0278" format="2">
  <advance width="1126"/>
  <unicode hex="0278"/>
  <note>
uni0278
</note>
  <outline>
    <contour>
      <point x="482" y="-425" type="line"/>
      <point x="646" y="-425" type="line"/>
      <point x="646" y="-15" type="line"/>
      <point x="1053" y="30"/>
      <point x="1053" y="542" type="qcurve" smooth="yes"/>
      <point x="1053" y="801"/>
      <point x="858" y="1078"/>
      <point x="646" y="1098" type="qcurve"/>
      <point x="646" y="1484" type="line"/>
      <point x="482" y="1484" type="line"/>
      <point x="482" y="1097" type="line"/>
      <point x="86" y="1047"/>
      <point x="86" y="542" type="qcurve" smooth="yes"/>
      <point x="86" y="283"/>
      <point x="293" y="8"/>
      <point x="482" y="-15" type="qcurve"/>
    </contour>
    <contour>
      <point x="864" y="542" type="qcurve" smooth="yes"/>
      <point x="864" y="349"/>
      <point x="759" y="142"/>
      <point x="646" y="120" type="qcurve"/>
      <point x="646" y="963" type="line"/>
      <point x="760" y="943"/>
      <point x="864" y="741"/>
    </contour>
    <contour>
      <point x="275" y="542" type="qcurve" smooth="yes"/>
      <point x="275" y="728"/>
      <point x="374" y="932"/>
      <point x="482" y="958" type="qcurve"/>
      <point x="482" y="122" type="line"/>
      <point x="376" y="150"/>
      <point x="275" y="358"/>
    </contour>
  </outline>
</glyph>
<glyph name="uni0279" format="2">
  <advance width="682"/>
  <unicode hex="0279"/>
  <note>
uni0279
</note>
  <outline>
    <contour>
      <point x="549" y="1082" type="line"/>
      <point x="369" y="1082" type="line"/>
      <point x="369" y="518" type="line" smooth="yes"/>
      <point x="369" y="338"/>
      <point x="251" y="145"/>
      <point x="139" y="145" type="qcurve" smooth="yes"/>
      <point x="79" y="145"/>
      <point x="43" y="155" type="qcurve"/>
      <point x="43" y="-10" type="line"/>
      <point x="80" y="-20"/>
      <point x="116" y="-20" type="qcurve" smooth="yes"/>
      <point x="185" y="-20"/>
      <point x="276" y="23"/>
      <point x="339" y="117"/>
      <point x="373" y="221" type="qcurve"/>
      <point x="377" y="221" type="line"/>
      <point x="380" y="113" type="line"/>
      <point x="385" y="0" type="line"/>
      <point x="555" y="0" type="line"/>
      <point x="549" y="132"/>
      <point x="549" y="252" type="qcurve" smooth="yes"/>
    </contour>
  </outline>
</glyph>
<glyph name="uni027D" format="2">
  <advance width="682"/>
  <unicode hex="027D"/>
  <note>
uni027D
</note>
  <outline>
    <contour>
      <point x="142" y="830" type="qcurve" smooth="yes"/>
      <point x="142" y="-129" type="line" smooth="yes"/>
      <point x="142" y="-425"/>
      <point x="419" y="-425" type="qcurve" smooth="yes"/>
      <point x="465" y="-425"/>
      <point x="496" y="-419" type="qcurve" smooth="yes"/>
      <point x="530" y="-414" type="line"/>
      <point x="530" y="-250" type="line"/>
      <point x="487" y="-263"/>
      <point x="433" y="-263" type="qcurve" smooth="yes"/>
      <point x="378" y="-263"/>
      <point x="322" y="-196"/>
      <point x="322" y="-115" type="qcurve" smooth="yes"/>
      <point x="322" y="564" type="line" smooth="yes"/>
      <point x="322" y="744"/>
      <point x="440" y="937"/>
      <point x="552" y="937" type="qcurve" smooth="yes"/>
      <point x="612" y="937"/>
      <point x="648" y="927" type="qcurve"/>
      <point x="648" y="1092" type="line"/>
      <point x="611" y="1102"/>
      <point x="575" y="1102" type="qcurve" smooth="yes"/>
      <point x="473" y="1102"/>
      <point x="361" y="1000"/>
      <point x="318" y="861" type="qcurve"/>
      <point x="314" y="861" type="line"/>
      <point x="314" y="898"/>
      <point x="306" y="1082" type="qcurve"/>
      <point x="136" y="1082" type="line"/>
      <point x="142" y="944"/>
    </contour>
  </outline>
</glyph>
<glyph name="uni0280" format="2">
  <advance width="1109"/>
  <unicode hex="0280"/>
  <note>
uni0280
</note>
  <outline>
    <contour>
      <point x="322" y="0" type="line"/>
      <point x="322" y="439" type="line"/>
      <point x="522" y="439" type="line"/>
      <point x="854" y="0" type="line"/>
      <point x="1072" y="0" type="line"/>
      <point x="717" y="449" type="line"/>
      <point x="855" y="474"/>
      <point x="1004" y="644"/>
      <point x="1004" y="773" type="qcurve" smooth="yes"/>
      <point x="1004" y="918"/>
      <point x="788" y="1082"/>
      <point x="604" y="1082" type="qcurve" smooth="yes"/>
      <point x="142" y="1082" type="line"/>
      <point x="142" y="0" type="line"/>
    </contour>
    <contour>
      <point x="322" y="945" type="line"/>
      <point x="592" y="945" type="line" smooth="yes"/>
      <point x="699" y="945"/>
      <point x="815" y="854"/>
      <point x="815" y="762" type="qcurve" smooth="yes"/>
      <point x="815" y="575"/>
      <point x="596" y="575" type="qcurve" smooth="yes"/>
      <point x="322" y="575" type="line"/>
    </contour>
  </outline>
</glyph>
<glyph name="uni0283" format="2">
  <advance width="455"/>
  <unicode hex="0283"/>
  <note>
uni0283
</note>
  <outline>
    <contour>
      <point x="16" y="-425" type="qcurve" smooth="yes"/>
      <point x="171" y="-425"/>
      <point x="323" y="-250"/>
      <point x="323" y="-70" type="qcurve" smooth="yes"/>
      <point x="323" y="1093" type="line" smooth="yes"/>
      <point x="323" y="1221"/>
      <point x="398" y="1326"/>
      <point x="475" y="1326" type="qcurve" smooth="yes"/>
      <point x="541" y="1326"/>
      <point x="590" y="1299" type="qcurve"/>
      <point x="590" y="1466" type="line"/>
      <point x="546" y="1484"/>
      <point x="439" y="1484" type="qcurve" smooth="yes"/>
      <point x="292" y="1484"/>
      <point x="141" y="1303"/>
      <point x="141" y="1130" type="qcurve" smooth="yes"/>
      <point x="141" y="-37" type="line" smooth="yes"/>
      <point x="141" y="-141"/>
      <point x="114" y="-226"/>
      <point x="53" y="-270"/>
      <point x="-1" y="-270" type="qcurve" smooth="yes"/>
      <point x="-58" y="-270"/>
      <point x="-118" y="-246" type="qcurve"/>
      <point x="-118" y="-406" type="line"/>
      <point x="-63" y="-425"/>
    </contour>
  </outline>
</glyph>
<glyph name="uni0284" format="2">
  <advance width="532"/>
  <unicode hex="0284"/>
  <note>
uni0284
</note>
  <outline>
    <contour>
      <point x="5" y="140" type="line"/>
      <point x="5" y="0" type="line"/>
      <point x="198" y="0" type="line"/>
      <point x="198" y="-37" type="line" smooth="yes"/>
      <point x="198" y="-141"/>
      <point x="171" y="-226"/>
      <point x="110" y="-270"/>
      <point x="56" y="-270" type="qcurve" smooth="yes"/>
      <point x="-1" y="-270"/>
      <point x="-61" y="-246" type="qcurve"/>
      <point x="-61" y="-406" type="line"/>
      <point x="-6" y="-425"/>
      <point x="73" y="-425" type="qcurve" smooth="yes"/>
      <point x="228" y="-425"/>
      <point x="380" y="-250"/>
      <point x="380" y="-70" type="qcurve" smooth="yes"/>
      <point x="380" y="0" type="line"/>
      <point x="550" y="0" type="line"/>
      <point x="550" y="140" type="line"/>
      <point x="380" y="140" type="line"/>
      <point x="380" y="1093" type="line" smooth="yes"/>
      <point x="380" y="1221"/>
      <point x="455" y="1326"/>
      <point x="532" y="1326" type="qcurve" smooth="yes"/>
      <point x="598" y="1326"/>
      <point x="647" y="1299" type="qcurve"/>
      <point x="647" y="1466" type="line"/>
      <point x="597" y="1484"/>
      <point x="508" y="1484" type="qcurve" smooth="yes"/>
      <point x="350" y="1484"/>
      <point x="198" y="1308"/>
      <point x="198" y="1130" type="qcurve" smooth="yes"/>
      <point x="198" y="140" type="line"/>
    </contour>
  </outline>
</glyph>
<glyph name="uni0287" format="2">
  <advance width="569"/>
  <unicode hex="0287"/>
  <note>
uni0287
</note>
  <outline>
    <contour>
      <point x="31" y="1078" type="qcurve"/>
      <point x="31" y="945" type="line"/>
      <point x="60" y="951"/>
      <point x="109" y="959"/>
      <point x="135" y="959" type="qcurve" smooth="yes"/>
      <point x="198" y="959"/>
      <point x="249" y="896"/>
      <point x="249" y="818" type="qcurve" smooth="yes"/>
      <point x="249" y="131" type="line"/>
      <point x="49" y="131" type="line"/>
      <point x="49" y="0" type="line"/>
      <point x="249" y="0" type="line"/>
      <point x="249" y="-242" type="line"/>
      <point x="369" y="-242" type="line"/>
      <point x="422" y="0" type="line"/>
      <point x="554" y="0" type="line"/>
      <point x="554" y="131" type="line"/>
      <point x="429" y="131" type="line"/>
      <point x="429" y="857" type="line" smooth="yes"/>
      <point x="429" y="1102"/>
      <point x="213" y="1102" type="qcurve" smooth="yes"/>
      <point x="158" y="1102"/>
      <point x="73" y="1089"/>
    </contour>
  </outline>
</glyph>
<glyph name="uni0288" format="2">
  <advance width="569"/>
  <unicode hex="0288"/>
  <note>
uni0288
</note>
  <outline>
    <contour>
      <point x="554" y="-401" type="qcurve"/>
      <point x="554" y="-263" type="line"/>
      <point x="486" y="-277"/>
      <point x="450" y="-277" type="qcurve" smooth="yes"/>
      <point x="387" y="-277"/>
      <point x="336" y="-214"/>
      <point x="336" y="-136" type="qcurve" smooth="yes"/>
      <point x="336" y="951" type="line"/>
      <point x="536" y="951" type="line"/>
      <point x="536" y="1082" type="line"/>
      <point x="336" y="1082" type="line"/>
      <point x="336" y="1324" type="line"/>
      <point x="216" y="1324" type="line"/>
      <point x="163" y="1082" type="line"/>
      <point x="31" y="1082" type="line"/>
      <point x="31" y="951" type="line"/>
      <point x="156" y="951" type="line"/>
      <point x="156" y="-180" type="line" smooth="yes"/>
      <point x="156" y="-425"/>
      <point x="372" y="-425" type="qcurve" smooth="yes"/>
      <point x="465" y="-425"/>
    </contour>
  </outline>
</glyph>
<glyph name="uni028B" format="2">
  <advance width="1120"/>
  <unicode hex="028B"/>
  <note>
uni028B
</note>
  <outline>
    <contour>
      <point x="997" y="571" type="qcurve" smooth="yes"/>
      <point x="997" y="688"/>
      <point x="939" y="964"/>
      <point x="886" y="1082" type="qcurve"/>
      <point x="698" y="1082" type="line"/>
      <point x="747" y="985"/>
      <point x="812" y="706"/>
      <point x="812" y="567" type="qcurve" smooth="yes"/>
      <point x="812" y="119"/>
      <point x="553" y="119" type="qcurve" smooth="yes"/>
      <point x="426" y="119"/>
      <point x="314" y="267"/>
      <point x="314" y="413" type="qcurve" smooth="yes"/>
      <point x="314" y="1082" type="line"/>
      <point x="133" y="1082" type="line"/>
      <point x="133" y="419" type="line" smooth="yes"/>
      <point x="133" y="190"/>
      <point x="330" y="-20"/>
      <point x="545" y="-20" type="qcurve" smooth="yes"/>
      <point x="763" y="-20"/>
      <point x="997" y="293"/>
    </contour>
  </outline>
</glyph>
<glyph name="uni028C" format="2">
  <advance width="1024"/>
  <unicode hex="028C"/>
  <note>
uni028C
</note>
  <outline>
    <contour>
      <point x="411" y="1082" type="line"/>
      <point x="7" y="0" type="line"/>
      <point x="198" y="0" type="line"/>
      <point x="444" y="706" type="line"/>
      <point x="483" y="824" type="line"/>
      <point x="518" y="941" type="line"/>
      <point x="570" y="758" type="line"/>
      <point x="825" y="0" type="line"/>
      <point x="1017" y="0" type="line"/>
      <point x="624" y="1082" type="line"/>
    </contour>
  </outline>
</glyph>
<glyph name="uni028E" format="2">
  <advance width="1024"/>
  <unicode hex="028E"/>
  <note>
uni028E
</note>
  <outline>
    <contour>
      <point x="834" y="1507" type="qcurve" smooth="yes"/>
      <point x="742" y="1507"/>
      <point x="599" y="1421"/>
      <point x="485" y="1251"/>
      <point x="421" y="1082" type="qcurve" smooth="yes"/>
      <point x="15" y="0" type="line"/>
      <point x="205" y="0" type="line"/>
      <point x="434" y="689" type="line"/>
      <point x="502" y="886" type="line"/>
      <point x="506" y="868"/>
      <point x="578" y="652"/>
      <point x="598" y="598" type="qcurve" smooth="yes"/>
      <point x="818" y="0" type="line"/>
      <point x="1010" y="0" type="line"/>
      <point x="591" y="1077" type="line"/>
      <point x="608" y="1120" type="line" smooth="yes"/>
      <point x="706" y="1367"/>
      <point x="874" y="1367" type="qcurve" smooth="yes"/>
      <point x="920" y="1367"/>
      <point x="958" y="1361" type="qcurve"/>
      <point x="958" y="1496" type="line"/>
      <point x="908" y="1507"/>
    </contour>
  </outline>
</glyph>
<glyph name="uni0290" format="2">
  <advance width="1024"/>
  <unicode hex="0290"/>
  <note>
uni0290
</note>
  <outline>
    <contour>
      <point x="950" y="-115" type="qcurve" smooth="yes"/>
      <point x="950" y="139" type="line"/>
      <point x="251" y="139" type="line"/>
      <point x="913" y="945" type="line"/>
      <point x="913" y="1082" type="line"/>
      <point x="89" y="1082" type="line"/>
      <point x="89" y="943" type="line"/>
      <point x="710" y="943" type="line"/>
      <point x="49" y="137" type="line"/>
      <point x="49" y="0" type="line"/>
      <point x="773" y="0" type="line"/>
      <point x="773" y="-129" type="line" smooth="yes"/>
      <point x="773" y="-425"/>
      <point x="1013" y="-425" type="qcurve" smooth="yes"/>
      <point x="1071" y="-425"/>
      <point x="1138" y="-413" type="qcurve"/>
      <point x="1138" y="-252" type="line"/>
      <point x="1101" y="-263"/>
      <point x="1048" y="-263" type="qcurve" smooth="yes"/>
      <point x="993" y="-263"/>
      <point x="950" y="-196"/>
    </contour>
  </outline>
</glyph>
<glyph name="uni0291" format="2">
  <advance width="1108"/>
  <unicode hex="0291"/>
  <note>
uni0291
</note>
  <outline>
    <contour>
      <point x="424" y="139" type="qcurve"/>
      <point x="251" y="139" type="line"/>
      <point x="913" y="945" type="line"/>
      <point x="913" y="1082" type="line"/>
      <point x="89" y="1082" type="line"/>
      <point x="89" y="943" type="line"/>
      <point x="710" y="943" type="line"/>
      <point x="49" y="137" type="line"/>
      <point x="49" y="0" type="line"/>
      <point x="354" y="0" type="line"/>
      <point x="299" y="-117" type="line"/>
      <point x="438" y="-178" type="line"/>
      <point x="472" y="-94"/>
      <point x="520" y="0" type="qcurve"/>
      <point x="773" y="0" type="line" smooth="yes"/>
      <point x="925" y="0"/>
      <point x="1065" y="121"/>
      <point x="1065" y="241" type="qcurve" smooth="yes"/>
      <point x="1065" y="344"/>
      <point x="929" y="467"/>
      <point x="811" y="467" type="qcurve" smooth="yes"/>
      <point x="714" y="467"/>
      <point x="525" y="309"/>
    </contour>
    <contour>
      <point x="809" y="322" type="qcurve" smooth="yes"/>
      <point x="857" y="322"/>
      <point x="911" y="277"/>
      <point x="911" y="238" type="qcurve" smooth="yes"/>
      <point x="911" y="183"/>
      <point x="841" y="139"/>
      <point x="764" y="139" type="qcurve" smooth="yes"/>
      <point x="592" y="139" type="line"/>
      <point x="662" y="241"/>
      <point x="762" y="322"/>
    </contour>
  </outline>
</glyph>
<glyph name="uni0293" format="2">
  <advance width="1116"/>
  <unicode hex="0293"/>
  <note>
uni0293
</note>
  <outline>
    <contour>
      <point x="999" y="-426" type="line"/>
      <point x="1099" y="-301" type="line"/>
      <point x="1032" y="-228"/>
      <point x="970" y="-172" type="qcurve"/>
      <point x="1035" y="-60"/>
      <point x="1035" y="69" type="qcurve" smooth="yes"/>
      <point x="1035" y="262"/>
      <point x="810" y="521"/>
      <point x="621" y="545" type="qcurve"/>
      <point x="1000" y="905" type="line"/>
      <point x="1000" y="1083" type="line"/>
      <point x="117" y="1083" type="line"/>
      <point x="117" y="942" type="line"/>
      <point x="818" y="942" type="line"/>
      <point x="427" y="555" type="line"/>
      <point x="427" y="411" type="line"/>
      <point x="509" y="411" type="line" smooth="yes"/>
      <point x="662" y="411"/>
      <point x="854" y="230"/>
      <point x="854" y="75" type="qcurve" smooth="yes"/>
      <point x="854" y="6"/>
      <point x="835" y="-62" type="qcurve"/>
      <point x="621" y="87"/>
      <point x="435" y="87" type="qcurve" smooth="yes"/>
      <point x="278" y="87"/>
      <point x="108" y="-43"/>
      <point x="108" y="-160" type="qcurve" smooth="yes"/>
      <point x="108" y="-234"/>
      <point x="203" y="-356"/>
      <point x="383" y="-425"/>
      <point x="510" y="-425" type="qcurve" smooth="yes"/>
      <point x="727" y="-425"/>
      <point x="875" y="-290" type="qcurve"/>
    </contour>
    <contour>
      <point x="487" y="-295" type="qcurve" smooth="yes"/>
      <point x="391" y="-295"/>
      <point x="271" y="-221"/>
      <point x="271" y="-160" type="qcurve" smooth="yes"/>
      <point x="271" y="-107"/>
      <point x="354" y="-49"/>
      <point x="427" y="-49" type="qcurve" smooth="yes"/>
      <point x="591" y="-49"/>
      <point x="765" y="-190" type="qcurve"/>
      <point x="668" y="-295"/>
    </contour>
  </outline>
</glyph>
<glyph name="uni0297" format="2">
  <advance width="1024"/>
  <unicode hex="0297"/>
  <note>
uni0297
</note>
  <outline>
    <contour>
      <point x="87" y="542" type="qcurve" smooth="yes"/>
      <point x="87" y="136" type="line" smooth="yes"/>
      <point x="87" y="-139"/>
      <point x="326" y="-426"/>
      <point x="553" y="-426" type="qcurve" smooth="yes"/>
      <point x="725" y="-426"/>
      <point x="949" y="-240"/>
      <point x="970" y="-84" type="qcurve"/>
      <point x="788" y="-72" type="line"/>
      <point x="773" y="-180"/>
      <point x="644" y="-284"/>
      <point x="548" y="-284" type="qcurve" smooth="yes"/>
      <point x="408" y="-284"/>
      <point x="265" y="-71"/>
      <point x="265" y="140" type="qcurve" smooth="yes"/>
      <point x="265" y="546" type="line" smooth="yes"/>
      <point x="265" y="769"/>
      <point x="401" y="961"/>
      <point x="546" y="961" type="qcurve" smooth="yes"/>
      <point x="651" y="961"/>
      <point x="765" y="855"/>
      <point x="779" y="765" type="qcurve"/>
      <point x="964" y="779" type="line"/>
      <point x="936" y="930"/>
      <point x="717" y="1102"/>
      <point x="551" y="1102" type="qcurve" smooth="yes"/>
      <point x="327" y="1102"/>
      <point x="87" y="815"/>
    </contour>
  </outline>
</glyph>
<glyph name="uni029A" format="2">
  <advance width="1039"/>
  <unicode hex="029A"/>
  <note>
uni029A
</note>
  <outline>
    <contour>
      <point x="784" y="556" type="qcurve" smooth="yes"/>
      <point x="784" y="407"/>
      <point x="722" y="209"/>
      <point x="592" y="113"/>
      <point x="477" y="113" type="qcurve" smooth="yes"/>
      <point x="368" y="113"/>
      <point x="253" y="208"/>
      <point x="253" y="300" type="qcurve" smooth="yes"/>
      <point x="253" y="387"/>
      <point x="364" y="483"/>
      <point x="481" y="483" type="qcurve" smooth="yes"/>
      <point x="577" y="483" type="line"/>
      <point x="577" y="624" type="line"/>
      <point x="487" y="624" type="line" smooth="yes"/>
      <point x="395" y="624"/>
      <point x="282" y="716"/>
      <point x="282" y="794" type="qcurve" smooth="yes"/>
      <point x="282" y="879"/>
      <point x="388" y="969"/>
      <point x="481" y="969" type="qcurve" smooth="yes"/>
      <point x="642" y="969"/>
      <point x="784" y="762"/>
    </contour>
    <contour>
      <point x="973" y="556" type="qcurve" smooth="yes"/>
      <point x="973" y="817"/>
      <point x="727" y="1102"/>
      <point x="500" y="1102" type="qcurve" smooth="yes"/>
      <point x="313" y="1102"/>
      <point x="102" y="935"/>
      <point x="102" y="793" type="qcurve" smooth="yes"/>
      <point x="102" y="705"/>
      <point x="211" y="592"/>
      <point x="322" y="558" type="qcurve"/>
      <point x="73" y="517"/>
      <point x="73" y="297" type="qcurve" smooth="yes"/>
      <point x="73" y="150"/>
      <point x="289" y="-19"/>
      <point x="477" y="-19" type="qcurve" smooth="yes"/>
      <point x="728" y="-19"/>
      <point x="973" y="269"/>
    </contour>
  </outline>
</glyph>
<glyph name="uni02A2" format="2">
  <advance width="1024"/>
  <unicode hex="02A2"/>
  <note>
uni02A2
</note>
  <outline>
    <contour>
      <point x="976" y="153" type="line"/>
      <point x="976" y="276" type="line"/>
      <point x="659" y="276" type="line"/>
      <point x="659" y="542" type="line"/>
      <point x="613" y="524"/>
      <point x="552" y="524" type="qcurve" smooth="yes"/>
      <point x="406" y="524"/>
      <point x="267" y="725"/>
      <point x="267" y="938" type="qcurve" smooth="yes"/>
      <point x="267" y="1156"/>
      <point x="401" y="1343"/>
      <point x="548" y="1343" type="qcurve" smooth="yes"/>
      <point x="653" y="1343"/>
      <point x="767" y="1237"/>
      <point x="781" y="1147" type="qcurve"/>
      <point x="966" y="1161" type="line"/>
      <point x="938" y="1312"/>
      <point x="719" y="1484"/>
      <point x="553" y="1484" type="qcurve" smooth="yes"/>
      <point x="324" y="1484"/>
      <point x="79" y="1206"/>
      <point x="79" y="934" type="qcurve" smooth="yes"/>
      <point x="79" y="691"/>
      <point x="285" y="403"/>
      <point x="479" y="386" type="qcurve"/>
      <point x="479" y="276" type="line"/>
      <point x="148" y="276" type="line"/>
      <point x="148" y="153" type="line"/>
      <point x="479" y="153" type="line"/>
      <point x="479" y="0" type="line"/>
      <point x="659" y="0" type="line"/>
      <point x="659" y="153" type="line"/>
    </contour>
  </outline>
</glyph>
<glyph name="uni02A7" format="2">
  <advance width="879"/>
  <unicode hex="02A7"/>
  <note>
uni02A7
</note>
  <outline>
    <contour>
      <point x="434" y="-425" type="qcurve" smooth="yes"/>
      <point x="589" y="-425"/>
      <point x="741" y="-250"/>
      <point x="741" y="-70" type="qcurve" smooth="yes"/>
      <point x="741" y="1093" type="line" smooth="yes"/>
      <point x="741" y="1221"/>
      <point x="816" y="1326"/>
      <point x="893" y="1326" type="qcurve" smooth="yes"/>
      <point x="959" y="1326"/>
      <point x="1008" y="1299" type="qcurve"/>
      <point x="1008" y="1466" type="line"/>
      <point x="964" y="1484"/>
      <point x="857" y="1484" type="qcurve" smooth="yes"/>
      <point x="710" y="1484"/>
      <point x="559" y="1303"/>
      <point x="559" y="1130" type="qcurve" smooth="yes"/>
      <point x="559" y="1082" type="line"/>
      <point x="346" y="1082" type="line"/>
      <point x="346" y="1324" type="line"/>
      <point x="226" y="1324" type="line"/>
      <point x="173" y="1082" type="line"/>
      <point x="41" y="1082" type="line"/>
      <point x="41" y="951" type="line"/>
      <point x="166" y="951" type="line"/>
      <point x="166" y="229" type="line" smooth="yes"/>
      <point x="166" y="-16"/>
      <point x="382" y="-16" type="qcurve" smooth="yes"/>
      <point x="471" y="-16"/>
      <point x="559" y="6" type="qcurve"/>
      <point x="559" y="-37" type="line" smooth="yes"/>
      <point x="559" y="-141"/>
      <point x="532" y="-226"/>
      <point x="471" y="-270"/>
      <point x="417" y="-270" type="qcurve" smooth="yes"/>
      <point x="360" y="-270"/>
      <point x="300" y="-246" type="qcurve"/>
      <point x="300" y="-406" type="line"/>
      <point x="355" y="-425"/>
    </contour>
    <contour>
      <point x="460" y="141" type="qcurve" smooth="yes"/>
      <point x="397" y="141"/>
      <point x="346" y="204"/>
      <point x="346" y="282" type="qcurve" smooth="yes"/>
      <point x="346" y="951" type="line"/>
      <point x="559" y="951" type="line"/>
      <point x="559" y="154" type="line"/>
      <point x="498" y="141"/>
    </contour>
  </outline>
</glyph>
<glyph name="uni02A8" format="2">
  <advance width="1472"/>
  <unicode hex="02A8"/>
  <note>
uni02A8
</note>
  <outline>
    <contour>
      <point x="1003" y="-20" type="qcurve" smooth="yes"/>
      <point x="1138" y="-20"/>
      <point x="1315" y="59"/>
      <point x="1407" y="192"/>
      <point x="1407" y="278" type="qcurve" smooth="yes"/>
      <point x="1407" y="510"/>
      <point x="1140" y="510" type="qcurve" smooth="yes"/>
      <point x="1054" y="510"/>
      <point x="866" y="413"/>
      <point x="755" y="302" type="qcurve"/>
      <point x="717" y="416"/>
      <point x="717" y="546" type="qcurve" smooth="yes"/>
      <point x="717" y="771"/>
      <point x="845" y="961"/>
      <point x="988" y="961" type="qcurve" smooth="yes"/>
      <point x="1093" y="961"/>
      <point x="1207" y="855"/>
      <point x="1221" y="765" type="qcurve"/>
      <point x="1406" y="779" type="line"/>
      <point x="1378" y="930"/>
      <point x="1159" y="1102"/>
      <point x="993" y="1102" type="qcurve" smooth="yes"/>
      <point x="769" y="1102"/>
      <point x="529" y="815"/>
      <point x="529" y="542" type="qcurve" smooth="yes"/>
      <point x="529" y="329"/>
      <point x="615" y="188" type="qcurve"/>
      <point x="545" y="135"/>
      <point x="470" y="135" type="qcurve" smooth="yes"/>
      <point x="396" y="135"/>
      <point x="336" y="203"/>
      <point x="336" y="290" type="qcurve" smooth="yes"/>
      <point x="336" y="951" type="line"/>
      <point x="536" y="951" type="line"/>
      <point x="536" y="1082" type="line"/>
      <point x="336" y="1082" type="line"/>
      <point x="336" y="1324" type="line"/>
      <point x="216" y="1324" type="line"/>
      <point x="163" y="1082" type="line"/>
      <point x="31" y="1082" type="line"/>
      <point x="31" y="951" type="line"/>
      <point x="156" y="951" type="line"/>
      <point x="156" y="239" type="line" smooth="yes"/>
      <point x="156" y="115"/>
      <point x="298" y="-20"/>
      <point x="420" y="-20" type="qcurve" smooth="yes"/>
      <point x="581" y="-20"/>
      <point x="707" y="80" type="qcurve"/>
      <point x="826" y="-20"/>
    </contour>
    <contour>
      <point x="1002" y="114" type="qcurve" smooth="yes"/>
      <point x="894" y="114"/>
      <point x="828" y="184" type="qcurve"/>
      <point x="916" y="285"/>
      <point x="1064" y="372"/>
      <point x="1135" y="372" type="qcurve" smooth="yes"/>
      <point x="1195" y="372"/>
      <point x="1259" y="322"/>
      <point x="1259" y="265" type="qcurve" smooth="yes"/>
      <point x="1259" y="224"/>
      <point x="1198" y="156"/>
      <point x="1085" y="114"/>
    </contour>
  </outline>
</glyph>
<glyph name="uni02AA" format="2">
  <advance width="1354"/>
  <unicode hex="02AA"/>
  <note>
uni02AA
</note>
  <outline>
    <contour>
      <point x="138" y="0" type="line"/>
      <point x="318" y="0" type="line"/>
      <point x="318" y="111" type="line"/>
      <point x="401" y="51"/>
      <point x="656" y="-20"/>
      <point x="794" y="-20" type="qcurve" smooth="yes"/>
      <point x="1012" y="-20"/>
      <point x="1274" y="153"/>
      <point x="1274" y="299" type="qcurve" smooth="yes"/>
      <point x="1274" y="361"/>
      <point x="1234" y="458"/>
      <point x="1161" y="532"/>
      <point x="1035" y="593"/>
      <point x="892" y="629" type="qcurve" smooth="yes"/>
      <point x="741" y="666"/>
      <point x="647" y="708"/>
      <point x="599" y="768"/>
      <point x="599" y="814" type="qcurve" smooth="yes"/>
      <point x="599" y="889"/>
      <point x="715" y="963"/>
      <point x="837" y="963" type="qcurve" smooth="yes"/>
      <point x="947" y="963"/>
      <point x="1078" y="886"/>
      <point x="1093" y="814" type="qcurve"/>
      <point x="1255" y="834" type="line"/>
      <point x="1227" y="973"/>
      <point x="1016" y="1099"/>
      <point x="837" y="1099" type="qcurve" smooth="yes"/>
      <point x="635" y="1099"/>
      <point x="424" y="944"/>
      <point x="424" y="796" type="qcurve" smooth="yes"/>
      <point x="424" y="716"/>
      <point x="498" y="606"/>
      <point x="629" y="529"/>
      <point x="784" y="489" type="qcurve" smooth="yes"/>
      <point x="913" y="455" type="line" smooth="yes"/>
      <point x="1011" y="429"/>
      <point x="1099" y="349"/>
      <point x="1099" y="285" type="qcurve" smooth="yes"/>
      <point x="1099" y="204"/>
      <point x="942" y="117"/>
      <point x="794" y="117" type="qcurve" smooth="yes"/>
      <point x="651" y="117"/>
      <point x="396" y="205"/>
      <point x="318" y="286" type="qcurve"/>
      <point x="318" y="1484" type="line"/>
      <point x="138" y="1484" type="line"/>
    </contour>
  </outline>
</glyph>
<glyph name="uni02AF" format="2">
  <advance width="1407"/>
  <unicode hex="02AF"/>
  <note>
uni02AF
</note>
  <outline>
    <contour>
      <point x="1095" y="144" type="line"/>
      <point x="1095" y="-27" type="line" smooth="yes"/>
      <point x="1095" y="-219"/>
      <point x="1279" y="-425"/>
      <point x="1449" y="-425" type="qcurve" smooth="yes"/>
      <point x="1529" y="-425"/>
      <point x="1626" y="-402" type="qcurve"/>
      <point x="1597" y="-243" type="line"/>
      <point x="1525" y="-263"/>
      <point x="1466" y="-263" type="qcurve" smooth="yes"/>
      <point x="1276" y="-263"/>
      <point x="1276" y="-20" type="qcurve" smooth="yes"/>
      <point x="1276" y="1082" type="line"/>
      <point x="1096" y="1082" type="line"/>
      <point x="1096" y="443" type="line" smooth="yes"/>
      <point x="1096" y="294"/>
      <point x="943" y="118"/>
      <point x="816" y="118" type="qcurve" smooth="yes"/>
      <point x="731" y="118"/>
      <point x="635" y="170"/>
      <point x="593" y="281"/>
      <point x="593" y="395" type="qcurve" smooth="yes"/>
      <point x="593" y="682" type="line" smooth="yes"/>
      <point x="593" y="904"/>
      <point x="420" y="1100"/>
      <point x="242" y="1100" type="qcurve" smooth="yes"/>
      <point x="119" y="1100"/>
      <point x="39" y="1059" type="qcurve"/>
      <point x="81" y="900" type="line"/>
      <point x="139" y="938"/>
      <point x="228" y="938" type="qcurve" smooth="yes"/>
      <point x="298" y="938"/>
      <point x="377" y="879"/>
      <point x="412" y="766"/>
      <point x="412" y="632" type="qcurve" smooth="yes"/>
      <point x="412" y="360" type="line" smooth="yes"/>
      <point x="412" y="154"/>
      <point x="579" y="-21"/>
      <point x="755" y="-21" type="qcurve" smooth="yes"/>
      <point x="878" y="-21"/>
      <point x="1039" y="64"/>
      <point x="1092" y="144" type="qcurve"/>
    </contour>
  </outline>
</glyph>
<glyph name="uni02B1" format="2">
  <advance width="785"/>
  <unicode hex="02B1"/>
  <note>
uni02B1
</note>
  <outline>
    <contour>
      <point x="216" y="1122" type="qcurve"/>
      <point x="214" y="1122" type="line"/>
      <point x="220" y="1152"/>
      <point x="220" y="1264" type="qcurve" smooth="yes"/>
      <point x="220" y="1332" type="line" smooth="yes"/>
      <point x="220" y="1432"/>
      <point x="306" y="1432" type="qcurve" smooth="yes"/>
      <point x="353" y="1432"/>
      <point x="387" y="1418" type="qcurve"/>
      <point x="387" y="1535" type="line"/>
      <point x="339" y="1546"/>
      <point x="290" y="1546" type="qcurve" smooth="yes"/>
      <point x="97" y="1546"/>
      <point x="97" y="1337" type="qcurve" smooth="yes"/>
      <point x="97" y="490" type="line"/>
      <point x="220" y="490" type="line"/>
      <point x="220" y="940" type="line" smooth="yes"/>
      <point x="220" y="1044"/>
      <point x="322" y="1169"/>
      <point x="410" y="1169" type="qcurve" smooth="yes"/>
      <point x="492" y="1169"/>
      <point x="562" y="1087"/>
      <point x="562" y="974" type="qcurve" smooth="yes"/>
      <point x="562" y="490" type="line"/>
      <point x="685" y="490" type="line"/>
      <point x="685" y="998" type="line" smooth="yes"/>
      <point x="685" y="1144"/>
      <point x="570" y="1267"/>
      <point x="452" y="1267" type="qcurve" smooth="yes"/>
      <point x="368" y="1267"/>
      <point x="257" y="1199"/>
    </contour>
  </outline>
</glyph>
<glyph name="uni02B4" format="2">
  <advance width="491"/>
  <unicode hex="02B4"/>
  <note>
uni02B4
</note>
  <outline>
    <contour>
      <point x="384" y="1253" type="line"/>
      <point x="262" y="1253" type="line"/>
      <point x="262" y="855" type="line" smooth="yes"/>
      <point x="262" y="730"/>
      <point x="184" y="592"/>
      <point x="105" y="592" type="qcurve" smooth="yes"/>
      <point x="68" y="592"/>
      <point x="40" y="599" type="qcurve"/>
      <point x="40" y="483" type="line"/>
      <point x="68" y="476"/>
      <point x="90" y="476" type="qcurve" smooth="yes"/>
      <point x="160" y="476"/>
      <point x="236" y="549"/>
      <point x="264" y="645" type="qcurve"/>
      <point x="267" y="645" type="line"/>
      <point x="272" y="490" type="line"/>
      <point x="388" y="490" type="line"/>
      <point x="384" y="554"/>
      <point x="384" y="667" type="qcurve" smooth="yes"/>
    </contour>
  </outline>
</glyph>
